<?xml version="1.0" encoding="utf-8" ?><svg xmlns="http://www.w3.org/2000/svg" xmlns:xlink="http://www.w3.org/1999/xlink" width="1024" height="1024" viewBox="0 0 1024 1024"><defs><linearGradient id="gradient_0" gradientUnits="userSpaceOnUse" x1="527.51648" y1="1020.2345" x2="495.80737" y2="3.1151192"><stop offset="0" stop-color="#175484"/><stop offset="1" stop-color="#337EA8"/></linearGradient></defs><path fill="url(#gradient_0)" d="M505.246 2.26882C506.519 2.16604 507.794 2.1031 509.071 2.08011C527.163 1.64125 547.822 3.41316 565.705 5.36225C677.329 17.425 781.87 65.9225 863.167 143.357C961.428 236.711 1018.26 365.491 1021.01 500.999C1023.19 603.342 994.559 703.977 938.834 789.846C923.654 813.38 902.973 840.461 883.493 860.72C788.567 961.084 657.248 1019.03 519.125 1021.5C389.091 1022.62 263.497 974.249 167.798 886.205C68.8926 795.387 9.76723 669.247 3.23918 535.129C-2.91676 399.457 45.1968 266.918 136.951 166.789C205.758 92.4327 295.066 40.1467 393.585 16.5413C429.488 8.11819 468.272 3.74609 505.246 2.26882Z"/><path fill="#BEEBF0" d="M497.034 30.6994C762.687 22.3552 984.805 230.945 993.15 496.597C1001.49 762.25 792.906 984.369 527.253 992.714C261.6 1001.06 39.4797 792.47 31.1348 526.817C22.7899 261.163 231.38 39.0435 497.034 30.6994Z"/><defs><linearGradient id="gradient_1" gradientUnits="userSpaceOnUse" x1="509.28815" y1="981.06787" x2="514.27039" y2="42.408546"><stop offset="0" stop-color="#3A88B3"/><stop offset="1" stop-color="#86D3DD"/></linearGradient></defs><path fill="url(#gradient_1)" d="M503.414 41.6503C763.192 36.8058 977.695 243.5 982.483 503.278C987.271 763.056 780.531 977.515 520.752 982.247C261.052 986.977 46.6736 780.314 41.8868 520.615C37.1 260.916 243.717 46.4933 503.414 41.6503Z"/><path fill="#FEFEFD" d="M533.555 158.237C535.859 159.357 538.608 160.399 541.014 161.317C558.948 168.162 577.17 174.488 594.914 181.819C585.126 211.82 571.617 244.06 560.917 274.106C573.702 279.168 586.576 284.003 599.533 288.606C604.779 276.195 609.469 263.018 614.158 250.364L634.05 196.471C653.66 204.385 676.228 212.881 696.055 219.981C684.12 249.895 672.198 283.323 660.98 313.71C704.941 331.392 759.482 357.936 771.472 408.543C778.594 440.046 770.351 474.691 753.699 501.883C745.172 515.807 733.489 527.003 719.38 535.036C706.133 542.578 692.487 546.528 677.868 549.902C695.56 562.413 716.989 582.016 726.071 601.507C751.888 656.919 719.658 746.362 664.238 771.792C621.781 791.274 569.635 781.805 526.985 767.875C515.172 764.016 503.11 759.159 491.419 754.925C488.033 765.339 483.223 777.393 479.382 787.766L456.571 849.316C452.329 847.561 447.691 845.879 443.38 844.223C426.949 837.857 410.464 831.635 393.925 825.557C405.321 794.218 416.897 762.945 428.651 731.739C417.313 726.455 402.559 721.313 390.719 716.998C378.854 746.739 367.721 779.405 356.331 809.734L292.072 785.432C304.386 755.728 315.514 722.866 327.329 692.53C293.771 678.446 258.111 664.831 224.169 651.306C235.895 628.829 246.15 605.154 257.39 582.31C275.156 589.886 311.032 610.752 323.516 583.511C330.803 567.609 336.99 548.991 343.097 532.432L375.381 445.132L404.727 366.731C409.204 354.76 417.848 333.23 420.776 321.578C422.215 316.044 421.92 310.2 419.931 304.839C412.571 285.377 384.519 273.895 366.668 265.724C373.586 246.161 380.921 226.749 388.67 207.5L498.797 250.484C502.722 241.472 507.3 228.089 510.861 218.639L533.555 158.237Z"/><path fill="#5DABC6" d="M468.947 520.245C474.739 523.495 492.401 529.448 499.272 532.042C525.223 541.835 551.958 550.632 576.026 564.741C592.416 574.349 609.532 587.61 614.381 606.897C618.498 623.269 613.487 641.658 604.869 655.772C596.256 669.877 585.684 676.564 569.929 680.361C536.118 684.705 504.908 671.952 473.87 660.02C457.239 653.623 440.649 647.12 424.101 640.51C430.01 626.19 435.474 610.313 440.969 595.673C450.55 570.626 459.876 545.481 468.947 520.245Z"/><path fill="#5DABC6" d="M535.76 345.586C564.921 356.959 593.457 365.905 621.345 380.479C655.289 398.219 663.831 426.554 645.363 460.063C638.091 473.259 628.268 478.491 614.104 482.506C580.496 489.375 527.515 466.215 495.503 454.108C509.311 418.005 521.988 381.539 535.76 345.586Z"/></svg>