<?xml version="1.0" encoding="UTF-8" standalone="no"?>
<!-- Created with Inkscape (http://www.inkscape.org/) -->

<svg
   width="1028"
   height="1028"
   viewBox="0 0 271.99165 271.99167"
   version="1.1"
   id="svg1"
   xml:space="preserve"
   inkscape:version="1.3.2 (091e20e, 2023-11-25, custom)"
   sodipodi:docname="frBtcSnowflake50opacity.svg"
   xmlns:inkscape="http://www.inkscape.org/namespaces/inkscape"
   xmlns:sodipodi="http://sodipodi.sourceforge.net/DTD/sodipodi-0.dtd"
   xmlns:xlink="http://www.w3.org/1999/xlink"
   xmlns="http://www.w3.org/2000/svg"
   xmlns:svg="http://www.w3.org/2000/svg"><sodipodi:namedview
     id="namedview1"
     pagecolor="#ffffff"
     bordercolor="#000000"
     borderopacity="0.25"
     inkscape:showpageshadow="2"
     inkscape:pageopacity="0.0"
     inkscape:pagecheckerboard="0"
     inkscape:deskcolor="#d1d1d1"
     inkscape:document-units="mm"
     inkscape:zoom="0.35355339"
     inkscape:cx="684.47937"
     inkscape:cy="131.52186"
     inkscape:window-width="1920"
     inkscape:window-height="1017"
     inkscape:window-x="-8"
     inkscape:window-y="-8"
     inkscape:window-maximized="1"
     inkscape:current-layer="layer1"
     showguides="true"><sodipodi:guide
       position="428.3206,148.67535"
       orientation="0.70710678,-0.70710678"
       id="guide4"
       inkscape:locked="false" /><sodipodi:guide
       position="589.36554,-4.3775021"
       orientation="0.70710678,-0.70710678"
       id="guide5"
       inkscape:locked="false" /><sodipodi:guide
       position="723.22022,-295.83239"
       orientation="1,0"
       id="guide10"
       inkscape:locked="false" /><sodipodi:guide
       position="924.92136,-260.71127"
       orientation="1,0"
       id="guide11"
       inkscape:locked="false" /><sodipodi:guide
       position="943.36485,-276.99648"
       orientation="0,-1"
       id="guide12"
       inkscape:locked="false" /><sodipodi:guide
       position="904.85924,-297.11794"
       orientation="0,-1"
       id="guide13"
       inkscape:locked="false" /><sodipodi:guide
       position="855.93061,-283.66168"
       orientation="1,0"
       id="guide14"
       inkscape:locked="false" /></sodipodi:namedview><defs
     id="defs1"><linearGradient
       id="linearGradient48"
       inkscape:collect="always"><stop
         style="stop-color:#ffffff;stop-opacity:1;"
         offset="0.48478702"
         id="stop48" /><stop
         style="stop-color:#ffffff;stop-opacity:0;"
         offset="1"
         id="stop49" /></linearGradient><linearGradient
       id="linearGradient6"
       inkscape:collect="always"><stop
         style="stop-color:#ffffff;stop-opacity:1;"
         offset="0"
         id="stop6" /><stop
         style="stop-color:#ffffff;stop-opacity:0;"
         offset="1"
         id="stop7" /></linearGradient><linearGradient
       id="linearGradient1"
       inkscape:collect="always"><stop
         style="stop-color:#cbd8e9;stop-opacity:0.82352942;"
         offset="0"
         id="stop1" /><stop
         style="stop-color:#a5b6d8;stop-opacity:1;"
         offset="0.86939275"
         id="stop8" /><stop
         style="stop-color:#8399cb;stop-opacity:1;"
         offset="0.9039759"
         id="stop3" /><stop
         style="stop-color:#222e48;stop-opacity:1;"
         offset="0.95686269"
         id="stop15" /></linearGradient><radialGradient
       inkscape:collect="always"
       xlink:href="#linearGradient1"
       id="radialGradient2"
       cx="68.003006"
       cy="67.289055"
       fx="68.003006"
       fy="67.289055"
       r="66.218147"
       gradientUnits="userSpaceOnUse"
       gradientTransform="matrix(2.0056845,0,0,2.0056845,0.14251832,1.049753)" /><radialGradient
       inkscape:collect="always"
       xlink:href="#linearGradient6"
       id="radialGradient7"
       cx="67.73333"
       cy="67.73333"
       fx="67.73333"
       fy="67.73333"
       r="66.218147"
       gradientUnits="userSpaceOnUse"
       gradientTransform="matrix(2.0056845,0,0,2.0056845,0.68336724,0.15864966)" /><radialGradient
       inkscape:collect="always"
       xlink:href="#linearGradient48"
       id="radialGradient61"
       gradientUnits="userSpaceOnUse"
       cx="11.999935"
       cy="11.999999"
       fx="11.999935"
       fy="11.999999"
       r="9.7761574"
       gradientTransform="matrix(12.815475,4.508426,-4.508426,12.815475,34.770342,-72.675993)" /><filter
       inkscape:collect="always"
       style="color-interpolation-filters:sRGB"
       id="filter67"
       x="-0.082291531"
       y="-0.060905336"
       width="1.1645831"
       height="1.1218107"><feGaussianBlur
         inkscape:collect="always"
         stdDeviation="4.3333129"
         id="feGaussianBlur67" /></filter><clipPath
       clipPathUnits="userSpaceOnUse"
       id="clipPath3"><path
         fill="#000000"
         d="m 126.99853,50.617833 -5.03806,24.616691 -9.54135,-1.952728 v 0 l -20.609316,-4.217923 -3.280601,16.029478 5.573037,0.941751 q 5.533985,1.132592 5.304092,1.284378 7.442248,1.523121 7.259358,8.245559 l -5.74105,28.051591 1.5266,0.31244 -1.5266,-0.31244 -8.045286,39.31036 q -0.581367,1.86924 -1.960662,2.77986 -1.917165,1.59584 -4.588738,1.04907 l -5.533985,-1.1326 -5.343155,-1.09352 -6.685327,17.12204 30.111609,6.36147 -5.077125,24.80752 14.884519,3.04629 5.03805,-24.61671 q 5.87661,1.40154 11.98307,2.65128 l -4.99901,24.42587 14.88451,3.04627 5.07712,-24.80752 q 21.22529,3.15106 32.62795,-1.07631 13.92688,-4.90371 18.85126,-21.19323 3.91786,-13.31439 -0.43558,-22.15817 -3.9372,-7.96331 -14.801,-13.169 16.21683,-4.43503 18.09241,-22.34263 1.20278,-12.67713 -7.81306,-21.083385 -7.49369,-7.100625 -23.44062,-11.756067 l 5.03806,-24.616687 -14.88448,-3.046277 -4.88185,23.853388 -12.06117,-2.269626 4.9209,-24.044206 z m 14.42438,46.096043 q 11.44962,2.343279 17.43002,6.151894 8.79932,5.57845 6.73387,14.6991 -2.03087,9.923 -15.09854,10.6285 -7.26033,0.5023 -20.38835,-2.38331 l -2.48076,-0.50771 6.13161,-29.959835 z m -7.69032,45.347624 q 13.73954,2.81194 20.82587,7.04571 10.66852,6.15982 8.59861,16.27367 -1.60125,7.82391 -9.86365,10.30815 -6.38874,2.07241 -16.88868,0.91758 -5.84196,-0.59915 -15.53509,-2.78179 l -3.05323,-0.62488 6.71742,-32.82224 z"
         id="path3"
         style="fill:#ffffff;fill-opacity:1;stroke:none;stroke-width:1.095;stroke-dasharray:none;stroke-opacity:1" /></clipPath><radialGradient
       inkscape:collect="always"
       xlink:href="#linearGradient6"
       id="radialGradient17"
       cx="-218.67233"
       cy="120.41451"
       fx="-218.67233"
       fy="120.41451"
       r="171.10539"
       gradientTransform="matrix(1,0,0,1.0000503,0,-0.00606056)"
       gradientUnits="userSpaceOnUse" /><radialGradient
       inkscape:collect="always"
       xlink:href="#linearGradient6"
       id="radialGradient18"
       gradientUnits="userSpaceOnUse"
       gradientTransform="matrix(0.81412453,0.14926822,-0.14927572,0.81416549,332.53659,70.613798)"
       cx="-218.67233"
       cy="120.41451"
       fx="-218.67233"
       fy="120.41451"
       r="171.10539" /><clipPath
       clipPathUnits="userSpaceOnUse"
       id="clipPath18"><circle
         style="opacity:1;fill:#000000;fill-opacity:1;stroke-width:4"
         id="circle18"
         cx="-218.67233"
         cy="120.41451"
         r="155.65778" /></clipPath></defs><g
     inkscape:label="Layer 1"
     inkscape:groupmode="layer"
     id="layer1"
     style="display:inline"><g
       id="g14"
       style="opacity:0.78649;fill:url(#radialGradient17)"
       transform="matrix(0.82444293,0,0,0.82444293,317.34512,37.264576)"
       clip-path="url(#clipPath18)" /><g
       id="g16"
       transform="rotate(180,1373.3552,590.61845)" /><path
       id="path20-6-9-0-4-2"
       style="fill:#ffffff;fill-opacity:1;stroke:none;stroke-width:13.532;stroke-linecap:round;stroke-opacity:1"
       d="m 937.40576,816.89978 c 2.60166,-0.0552 5.18222,-1.10504 7.12256,-3.13572 3.87427,-4.05003 3.73232,-10.47378 -0.31729,-14.34848 l -23.76548,-22.77122 29.63179,-0.63407 c 5.59776,-0.11654 10.04368,-4.74459 9.93583,-10.34252 -0.10939,-5.6122 -4.75383,-10.06965 -10.36578,-9.94875 l -29.61938,0.61133 22.78207,-23.72982 c 3.87462,-4.04996 3.73244,-10.47413 -0.31729,-14.34899 -4.04217,-3.87205 -10.45625,-3.74066 -14.33608,0.29404 l -36.81325,38.39662 c -11.70572,0.27684 -15.50323,0.55987 -27.2092,0.82579 l 14.9133,-15.8812 c 3.87426,-4.05002 3.73231,-10.47377 -0.31729,-14.34848 -4.04217,-3.87204 -10.45625,-3.74066 -14.33607,0.29404 l -31.90503,30.54439 -53.37039,1.02629 v 20.30574 l 53.76106,-1.02784 31.74793,30.54697 c 4.04936,3.89342 10.49095,3.75709 14.37174,-0.30438 3.87474,-4.05009 3.73276,-10.47472 -0.3173,-14.34951 l -14.98565,-16.49253 18.69292,-0.63407 0.0868,-0.009 9.26093,-0.19533 38.41936,36.82566 c 2.0247,1.94658 4.64751,2.88601 7.24917,2.83083 z" /><path
       id="path1"
       style="fill:url(#radialGradient2);stroke:url(#radialGradient7);stroke-width:1.09073"
       d="M 269.34778,136.01029 A 132.8127,132.8127 0 0 1 136.53504,268.82301 132.8127,132.8127 0 0 1 3.7223571,136.01029 132.8127,132.8127 0 0 1 136.53504,3.1976037 132.8127,132.8127 0 0 1 269.34778,136.01029 Z" /><path
       style="opacity:0.516949;fill:url(#radialGradient61);fill-opacity:1;stroke:none;stroke-width:13.5854;stroke-linecap:round;stroke-opacity:1"
       d="m 46.010332,32.094863 35.377362,41.248633 m 0,0 L 187.51962,197.08905 M 81.387694,73.343496 85.791168,15.874043 M 81.387694,73.343496 23.918241,68.940022 m 163.601379,128.149028 35.37723,41.24859 m -35.37723,-41.24859 57.46979,4.4033 m -57.46979,-4.4033 -4.40332,57.46979"
       id="path19" /><path
       id="path20-6-9-0-4"
       style="display:inline;opacity:0.501809;fill:url(#radialGradient18);fill-opacity:1;stroke:none;stroke-width:11.2004;stroke-linecap:round;stroke-opacity:1"
       d="m 164.91485,-2.7759373 c -4.55311,-0.924517 -8.99444,2.10384629 -9.9097,6.6587971 L 150.23272,27.462258 134.56278,5.0421144 C 131.9906,1.1812975 126.77577,0.13636389 122.91486,2.7081925 119.0575,5.2745073 118.00594,10.479689 120.56482,14.341889 l 24.74545,36.773146 c -0.80463,4.452755 -2.63864,12.483487 -4.51066,21.999738 L 129.53129,59.173772 c -2.57216,-3.860453 -7.78671,-4.905088 -11.64759,-2.333424 -0.41191,0.274006 -0.78495,0.583318 -1.13186,0.912656 -0.0165,0.01564 -0.0337,0.03025 -0.0502,0.04601 -0.22266,0.214845 -0.40277,0.457815 -0.59749,0.692325 -0.17154,0.204925 -0.35294,0.398488 -0.50516,0.620537 -0.1415,0.208202 -0.24752,0.432584 -0.36897,0.65116 -0.14899,0.265524 -0.307,0.522911 -0.42767,0.807388 -0.0827,0.196361 -0.12989,0.402795 -0.1973,0.604358 -0.0996,0.29469 -0.22149,0.576954 -0.28938,0.88797 l -5.17898,17.702177 c -0.61894,-0.926269 -6.72394,-10.49386 -12.52468,-19.550049 l 9.25286,-42.919456 c 0.50081,-2.270165 0.0321,-4.528012 -1.12983,-6.341627 l 8.2e-4,1.48e-4 C 103.57391,9.1403758 101.71854,7.7710849 99.446848,7.2772417 94.914347,6.289364 90.439159,9.1622338 89.450572,13.69448 L 83.708829,39.847461 70.776193,19.408126 c -2.498469,-3.902993 -7.611383,-5.092621 -11.51823,-2.60019 -3.916325,2.499733 -5.00477,7.763877 -2.497209,11.674983 L 69.717322,48.753575 42.868117,43.524252 c -4.532674,-0.98825 -9.008226,1.885076 -9.996775,6.417581 -0.989821,4.526083 1.871661,8.999032 6.395693,9.997558 l 43.349411,9.241719 c 2.516031,3.760887 6.779198,10.809588 12.04712,18.952846 L 76.872519,85.941739 c -2.379158,-0.518596 -4.728037,0.04646 -6.579662,1.337087 -0.0068,0.0047 -0.01349,0.0066 -0.01986,0.01113 -0.02335,0.01633 -0.0403,0.03797 -0.06346,0.05451 -0.413112,0.295707 -0.79917,0.623272 -1.153925,0.990366 -0.08888,0.09139 -0.162831,0.191368 -0.246846,0.286099 -0.269626,0.305278 -0.52519,0.619667 -0.749631,0.96491 -0.103127,0.157679 -0.184593,0.323858 -0.276314,0.487253 -0.166869,0.29876 -0.329936,0.597026 -0.460855,0.919582 -0.101722,0.24822 -0.170642,0.504306 -0.24812,0.760288 -0.06119,0.204784 -0.151296,0.393771 -0.197625,0.606043 -0.01235,0.05839 -0.0087,0.115826 -0.02012,0.174158 -0.06585,0.327 -0.08826,0.65809 -0.114775,0.990861 -0.01598,0.211166 -0.05093,0.422795 -0.0511,0.632046 -0.0014,0.381004 0.04692,0.759672 0.09766,1.139823 0.02061,0.150662 0.02198,0.304739 0.05079,0.453294 0.08131,0.428807 0.215819,0.847824 0.366009,1.265123 0.03208,0.08828 0.05013,0.181269 0.08519,0.268272 0.157878,0.396005 0.367562,0.775196 0.590168,1.151856 0.05784,0.09721 0.102951,0.200649 0.164614,0.29544 0.05375,0.08315 0.0856,0.173899 0.142695,0.255765 l 9.46715,15.828947 c -1.09975,-0.17528 -12.267775,-2.19844 -22.853516,-4.09708 L 29.602378,74.763171 C 28.277276,72.853084 26.302259,71.662459 24.18218,71.282458 l 5.02e-4,-3.38e-4 c -2.120089,-0.379961 -4.385745,0.05073 -6.291692,1.381621 -3.804955,2.653789 -4.738374,7.889288 -2.085003,11.694467 L 31.09038,106.34325 7.3075258,101.94055 c -4.5612295,-0.81937 -8.9086045,2.12349 -9.7350508,6.68344 -0.8275354,4.57175 2.29478725,8.94774 6.8682499,9.76588 l 23.6754271,4.27 -22.0820788,16.14325 c -3.8052158,2.65368 -4.7385307,7.88953 -2.0850755,11.6949 2.6477746,3.80187 7.8735193,4.74246 11.6804723,2.10204 l 36.238825,-25.52177 c 4.468849,0.70989 12.536634,2.37236 22.090522,4.04159 L 60.261001,142.682 c -0.281359,0.1962 -0.541786,0.41048 -0.79149,0.63328 -0.12667,0.1135 -0.248351,0.22915 -0.368194,0.35037 -0.124394,0.12541 -0.227015,0.26425 -0.342222,0.39603 -0.252,0.28899 -0.493718,0.58383 -0.705744,0.90818 -0.110877,0.16919 -0.198907,0.34732 -0.296761,0.52307 -0.161919,0.2915 -0.321378,0.58154 -0.449065,0.89564 -0.09974,0.24385 -0.166762,0.49555 -0.243048,0.74687 -0.06421,0.21293 -0.157234,0.4101 -0.205262,0.63117 -0.01353,0.06 -0.0089,0.1192 -0.02071,0.17927 -0.05817,0.29429 -0.07555,0.59239 -0.102102,0.89142 -0.02159,0.24895 -0.06091,0.49793 -0.06039,0.74427 1.15e-4,0.30933 0.04601,0.61635 0.08042,0.92533 0.02619,0.2272 0.03201,0.45757 0.07612,0.68017 0.06395,0.32702 0.176059,0.64471 0.280008,0.96541 0.06337,0.1933 0.107695,0.39238 0.184639,0.58004 0.188311,0.46225 0.415978,0.91273 0.693099,1.34726 0.0053,0.007 0.0099,0.0161 0.0152,0.0242 0.05798,0.0903 0.108138,0.18367 0.17,0.2725 0.504127,0.72383 1.123219,1.30902 1.786619,1.82043 0.122339,0.0943 0.235787,0.19601 0.363691,0.28368 0.352788,0.24215 0.723429,0.44244 1.104534,0.62606 0.105708,0.0508 0.204212,0.11023 0.312625,0.1569 0.456733,0.19708 0.927015,0.3464 1.408955,0.45967 0.04348,0.0105 0.08136,0.0312 0.125221,0.0408 l 17.702038,5.17943 c -0.926282,0.61897 -10.494203,6.72348 -19.549926,12.52426 L 18.5097,166.21516 c -2.27012,-0.50079 -4.527977,-0.0321 -6.341623,1.12981 l 1.47e-4,-8.2e-4 c -1.813554,1.16192 -3.1828698,3.01744 -3.6766963,5.28904 -0.9878819,4.53255 1.8849963,9.00775 6.4172353,9.99628 l 26.153028,5.74178 -20.439281,12.93216 c -3.902953,2.49851 -5.092723,7.61179 -2.600268,11.51868 2.49972,3.91628 7.764214,5.00496 11.67538,2.49724 l 20.270256,-12.95662 -5.229308,26.84921 c -0.98825,4.53266 1.885064,9.00821 6.417603,9.99678 4.525595,0.98971 8.998996,-1.8716 9.997543,-6.3957 l 9.241732,-43.34982 c 3.760891,-2.51606 10.809573,-6.77889 18.952842,-12.04669 l -2.19216,17.7906 c -0.0037,0.0152 -0.0022,0.03 -0.0049,0.0453 -0.106607,0.50158 -0.161048,1.01196 -0.174939,1.526 -0.0013,0.0419 -0.01298,0.0845 -0.01325,0.12629 -0.01259,1.05086 0.179965,2.10866 0.572432,3.12066 0.0096,0.0252 0.01287,0.0527 0.02315,0.0778 0.102218,0.25609 0.254555,0.49699 0.383823,0.74571 0.126838,0.24401 0.235458,0.49695 0.385429,0.7273 0.01735,0.0267 0.02623,0.0562 0.04391,0.0829 0.143791,0.2158 0.323619,0.38971 0.4832,0.58779 0.166642,0.20688 0.319001,0.42324 0.504919,0.61396 0.228268,0.23427 0.481748,0.42874 0.731743,0.63164 0.17304,0.14077 0.332869,0.29343 0.517733,0.42064 0.290119,0.19932 0.59967,0.35557 0.909634,0.51552 0.175225,0.0907 0.338196,0.19688 0.521262,0.2756 0.392009,0.16867 0.799146,0.28743 1.210507,0.39459 0.11099,0.0289 0.209814,0.0806 0.322842,0.10532 0.014,0.003 0.02782,0.002 0.0419,0.005 0.4971,0.10587 1.003196,0.15987 1.512531,0.17469 0.04759,5.5e-4 0.096,0.0142 0.143502,0.0146 0.914476,0.0109 1.828863,-0.1586 2.719571,-0.45334 0.159825,-0.0529 0.32859,-0.0807 0.484556,-0.14298 0.19416,-0.0777 0.375831,-0.19701 0.565851,-0.29024 0.309614,-0.1516 0.622858,-0.29457 0.911295,-0.48259 0.02175,-0.0141 0.04576,-0.0215 0.06746,-0.0359 l 16.02699,-9.12866 c -0.2009,1.09574 -2.45871,12.2186 -4.58209,22.76156 l -36.482351,24.42825 c -1.937868,1.28414 -3.170144,3.23326 -3.595165,5.34486 l -3.26e-4,-5.1e-4 c -0.425016,2.11154 -0.04275,4.38537 1.247371,6.31928 2.572343,3.86036 7.786884,4.90507 11.647668,2.33342 l 22.304723,-14.81309 -4.90719,23.68383 c -0.91621,4.54272 1.93335,8.95184 6.47467,9.87506 4.55313,0.92451 8.99446,-2.10433 9.90971,-6.65924 l 4.77251,-23.57939 15.66979,22.42057 c 2.57219,3.86075 7.78718,4.9053 11.64806,2.33351 3.85737,-2.56633 4.90925,-7.771 2.35037,-11.63322 l -24.74543,-36.77313 c 0.80463,-4.45278 2.63856,-12.48354 4.51057,-21.99976 l 11.26801,13.94095 c 0.23616,0.35449 0.50133,0.67657 0.77906,0.98297 0.074,0.0814 0.14401,0.16417 0.22115,0.24275 0.13838,0.14117 0.29607,0.25277 0.4426,0.38252 0.26973,0.23891 0.53753,0.47739 0.83867,0.68123 0.18932,0.1282 0.39343,0.2234 0.59134,0.33499 0.27446,0.15489 0.54175,0.31717 0.83658,0.44169 0.27283,0.11558 0.55817,0.1877 0.84077,0.27373 0.21784,0.0661 0.41985,0.16147 0.64627,0.21069 0.0275,0.006 0.0544,0.003 0.0818,0.009 0.33539,0.0699 0.67779,0.0882 1.01965,0.11694 0.20896,0.0173 0.41974,0.0628 0.62694,0.0645 0.30134,0.002 0.60218,-0.0487 0.90371,-0.0787 0.23889,-0.0242 0.48318,-0.0207 0.71726,-0.0651 0.24263,-0.0461 0.47762,-0.14055 0.71741,-0.20809 0.28248,-0.0804 0.5723,-0.14002 0.84353,-0.24888 0.46654,-0.18687 0.92029,-0.42194 1.35971,-0.69912 0.027,-0.0171 0.0552,-0.0318 0.082,-0.0493 0.0326,-0.0211 0.0667,-0.0373 0.0991,-0.0588 0.3989,-0.26537 0.76004,-0.56493 1.09802,-0.88232 0.0224,-0.0212 0.046,-0.0405 0.0683,-0.0619 0.24808,-0.23818 0.45058,-0.50691 0.6642,-0.76924 0.1416,-0.17385 0.29526,-0.33447 0.42324,-0.52032 0.20836,-0.30249 0.37264,-0.62527 0.53801,-0.94935 0.0815,-0.15943 0.17897,-0.30653 0.25062,-0.47239 0.19175,-0.44325 0.33345,-0.90258 0.44644,-1.37013 0.0145,-0.0607 0.0435,-0.11389 0.0568,-0.17525 l 5.17947,-17.70207 c 0.6189,0.92628 6.7239,10.49388 12.52466,19.55004 l -9.25289,42.91946 c -0.5008,2.27016 -0.0321,4.52798 1.12984,6.34162 l -8.1e-4,-1.5e-4 c 1.16197,1.81357 3.01735,3.18286 5.28903,3.67671 4.53251,0.98788 9.00768,-1.88496 9.99628,-6.41725 l 5.74178,-26.15298 12.93223,20.43925 c 2.49847,3.903 7.61179,5.09273 11.51865,2.60026 3.91627,-2.49974 5.00437,-7.76435 2.49729,-11.67541 l -12.95659,-20.27064 26.84911,5.22974 c 4.53267,0.98825 9.00818,-1.88505 9.99674,-6.41758 0.98982,-4.52603 -1.8716,-8.99901 -6.39566,-9.99755 l -43.34938,-9.24172 c -2.51605,-3.76083 -6.77921,-10.80955 -12.04712,-18.95285 l 17.79064,2.19215 c 2.06486,0.45011 4.10106,0.0676 5.81823,-0.87704 0.0289,-0.0156 0.0585,-0.0284 0.0872,-0.0443 0.24577,-0.13893 0.48361,-0.28419 0.71424,-0.44697 7.4e-4,-5.9e-4 0.002,-0.001 0.003,-0.002 0.25647,-0.17887 0.49748,-0.37126 0.72765,-0.57235 0.15202,-0.13469 0.29751,-0.27285 0.43984,-0.41856 0.11775,-0.11896 0.21462,-0.25075 0.32406,-0.37544 0.24416,-0.28151 0.47951,-0.56741 0.68577,-0.88226 0.14704,-0.22142 0.26506,-0.45434 0.3895,-0.68697 0.11833,-0.22443 0.2422,-0.44246 0.34075,-0.67983 0.16054,-0.37904 0.27722,-0.7694 0.38034,-1.16612 0.0236,-0.0916 0.0663,-0.17278 0.0866,-0.26589 0.006,-0.0257 0.004,-0.0509 0.009,-0.0767 0.47433,-2.20054 0.0909,-4.5792 -1.29819,-6.57122 l -9.46716,-15.82938 c 1.10017,0.17537 12.26778,2.19844 22.85352,4.09709 l 25.19907,35.95443 c 1.32512,1.91009 3.29977,3.10063 5.41983,3.48063 l -5.5e-4,7.4e-4 c 2.12005,0.37997 4.38564,-0.0503 6.29162,-1.38164 3.8049,-2.65378 4.73838,-7.88968 2.08515,-11.69487 l -15.28411,-21.98456 23.78286,4.4027 c 4.5612,0.81937 8.90861,-2.12348 9.73507,-6.68342 0.8273,-4.57184 -2.29477,-8.94774 -6.86823,-9.76588 l -23.67583,-4.27006 22.08207,-16.14328 c 3.80515,-2.65367 4.73894,-7.88988 2.08558,-11.69522 -2.64779,-3.80187 -7.87408,-4.74213 -11.68099,-2.10173 l -36.23839,25.52186 c -4.46886,-0.70988 -12.53713,-2.37245 -22.09102,-4.04167 l 13.69832,-11.56203 c 0.28232,-0.19692 0.54327,-0.41219 0.79365,-0.63591 0.12447,-0.11166 0.2444,-0.22499 0.36233,-0.34408 0.12828,-0.12921 0.23415,-0.27244 0.35274,-0.40844 0.24842,-0.28556 0.48721,-0.57636 0.69659,-0.89636 0.11326,-0.17258 0.20305,-0.35432 0.30268,-0.53373 0.1601,-0.28895 0.31796,-0.57624 0.44442,-0.88738 0.1001,-0.24431 0.16738,-0.49658 0.24385,-0.74845 0.0642,-0.21279 0.15719,-0.40982 0.20519,-0.63075 0.0127,-0.0602 0.009,-0.11921 0.0207,-0.17929 0.0585,-0.29626 0.0763,-0.59637 0.10285,-0.89738 0.0211,-0.24605 0.0602,-0.49221 0.0597,-0.7357 6e-5,-0.31216 -0.0458,-0.62183 -0.0807,-0.93366 -0.0263,-0.22534 -0.0319,-0.45399 -0.0758,-0.67486 -0.0639,-0.32691 -0.17619,-0.64441 -0.28017,-0.965 -0.0632,-0.1931 -0.10734,-0.39207 -0.18426,-0.57952 -0.18855,-0.46276 -0.41655,-0.91421 -0.69409,-1.3492 -0.004,-0.008 -0.009,-0.0147 -0.0137,-0.0222 -0.0583,-0.0907 -0.10877,-0.18405 -0.1709,-0.27311 -0.50299,-0.72222 -1.12035,-1.30576 -1.78204,-1.81654 -0.12437,-0.0959 -0.24006,-0.19919 -0.37023,-0.28835 -0.35312,-0.2422 -0.72383,-0.44304 -1.10535,-0.62664 -0.10406,-0.05 -0.20102,-0.1088 -0.30772,-0.15471 -0.4582,-0.19783 -0.93002,-0.34745 -1.4136,-0.46095 -0.0426,-0.0104 -0.0798,-0.0306 -0.12268,-0.0398 l -17.70206,-5.17943 c 0.92629,-0.61897 10.49379,-6.72395 19.55002,-12.524691 l 42.91943,9.252001 c 2.27017,0.50079 4.52798,0.0321 6.34163,-1.12982 l -1.5e-4,8.2e-4 c 1.8134,-1.16199 3.18248,-3.01745 3.67625,-5.289118 0.98788,-4.532534 -1.88499,-9.007753 -6.41728,-9.996291 L 232.00778,83.648222 252.44747,70.71613 c 3.90291,-2.498496 5.09238,-7.611855 2.59983,-11.51875 -2.49972,-3.916326 -7.76379,-5.004878 -11.67496,-2.497163 l -20.27065,12.95656 5.22971,-26.849146 c 0.98825,-4.532648 -1.88506,-9.008219 -6.4176,-9.996787 -4.52609,-0.989808 -8.9994,1.871537 -9.99796,6.395624 l -9.24132,43.349471 c -3.76073,2.516086 -10.80997,6.779207 -18.95325,12.047051 l 2.19218,-17.790599 c 0.004,-0.01522 0.003,-0.03006 0.005,-0.04521 0.10687,-0.502568 0.16126,-1.013971 0.17508,-1.529022 6.1e-4,-0.04096 0.0126,-0.08251 0.013,-0.123299 0.0129,-1.065215 -0.18107,-2.138394 -0.58463,-3.162902 -0.005,-0.01113 -0.005,-0.02286 -0.0103,-0.03391 l -3.4e-4,-4.98e-4 c -0.10358,-0.259635 -0.25746,-0.504119 -0.3888,-0.756177 -0.12558,-0.240828 -0.23298,-0.490778 -0.38104,-0.718224 -0.0173,-0.02676 -0.0262,-0.05622 -0.044,-0.08286 -0.1453,-0.218139 -0.32705,-0.393979 -0.48856,-0.594008 -0.16471,-0.204036 -0.31459,-0.417871 -0.49809,-0.606183 -0.23157,-0.237793 -0.48866,-0.435525 -0.74264,-0.641033 -0.16936,-0.137401 -0.32568,-0.286722 -0.50642,-0.411162 -0.29444,-0.20243 -0.60845,-0.361852 -0.92329,-0.523686 -0.17069,-0.08793 -0.32939,-0.191205 -0.50745,-0.267853 -0.39863,-0.171607 -0.81245,-0.293375 -1.23098,-0.401374 -0.10486,-0.02678 -0.19785,-0.07608 -0.30449,-0.09933 -0.013,-0.0028 -0.0261,-0.0014 -0.0392,-0.0046 -0.50971,-0.108685 -1.02853,-0.165776 -1.551,-0.178707 -0.0346,-4.27e-4 -0.07,-0.0103 -0.10457,-0.01076 -0.54599,-0.0067 -1.09374,0.03841 -1.6367,0.139552 -0.36863,0.06866 -0.72824,0.195565 -1.08929,0.315148 -0.15823,0.05252 -0.32542,0.07996 -0.47994,0.141609 -0.19496,0.07798 -0.37735,0.197481 -0.5682,0.291104 -0.30955,0.151668 -0.62285,0.294523 -0.91122,0.482604 -0.0215,0.01401 -0.0452,0.02101 -0.0665,0.0352 l -16.02628,9.12822 c 0.2009,-1.09574 2.45863,-12.218158 4.58201,-22.761131 l 36.48235,-24.428262 c 1.93788,-1.284191 3.17014,-3.233265 3.59516,-5.34486 l 3.4e-4,4.98e-4 c 0.42501,-2.111529 0.0427,-4.385358 -1.24746,-6.319272 -2.57209,-3.86038 -7.78673,-4.905455 -11.64752,-2.333848 l -22.30488,14.813521 4.90728,-23.6838265 c 0.9167,-4.5422217 -1.93286,-8.9513618 -6.47417,-9.8745836 z m -38.47266,87.8458923 9.03038,13.738544 -3.42858,16.859431 -9.18216,-14.39776 z m 38.48685,8.49021 -3.38428,15.071605 -12.54563,8.00277 2.94521,-14.4768 z m -70.693554,13.504065 14.455594,3.24573 7.30467,11.45094 -13.23724,-2.40094 z m 76.349024,15.7383 16.71136,3.69324 -13.98687,9.62577 -18.38247,-3.3326 z m -52.44203,16.4291 -15.65798,9.98644 -16.710888,-3.69358 13.986797,-9.62536 z m 52.16842,13.42908 8.54471,12.32711 -14.49941,-3.25595 -7.32291,-11.47949 z m -29.2945,3.7343 9.16896,14.3771 -3.57151,16.15876 -9.01735,-13.71919 z m -16.9466,-1.00852 -2.94513,14.47636 -12.98423,8.59724 3.38421,-15.07118 z" /><g
       id="g15"
       transform="matrix(1.0793243,0,0,1.0793243,-13.80092,-13.319249)"><path
         fill="#000000"
         d="m 127.01597,50.652435 -5.03807,24.616696 -9.54135,-1.95274 v 0 l -20.60932,-4.21791 -3.2806,16.02948 5.57304,0.94174 q 5.533976,1.13259 5.304091,1.28437 7.442259,1.52313 7.259359,8.24557 l -5.74105,28.051589 1.52661,0.31244 -1.52661,-0.31244 -8.04529,39.31038 q -0.58137,1.86923 -1.96066,2.77985 -1.91716,1.59583 -4.58874,1.04907 l -5.533981,-1.1326 -5.343159,-1.09353 -6.685327,17.12204 30.111608,6.36148 -5.077121,24.80752 14.88453,3.04628 5.03805,-24.61669 q 5.8766,1.40151 11.98306,2.65127 l -4.99901,24.42588 14.88451,3.04625 5.07712,-24.8075 q 21.2253,3.15106 32.62795,-1.07633 13.92688,-4.90369 18.85126,-21.19322 3.91786,-13.3144 -0.43559,-22.15818 -3.93719,-7.9633 -14.801,-13.16899 16.21684,-4.43504 18.09242,-22.34263 1.20279,-12.67714 -7.81306,-21.083399 -7.49369,-7.10062 -23.44061,-11.75606 l 5.03806,-24.61669 -14.88449,-3.04627 -4.88185,23.85338 -12.06117,-2.26962 4.9209,-24.044211 z m 14.42437,46.096046 q 11.44962,2.34327 17.43002,6.151899 8.79931,5.57844 6.73386,14.69909 -2.03086,9.92301 -15.09852,10.62851 -7.26034,0.5023 -20.38836,-2.3833 l -2.48075,-0.50772 6.1316,-29.959849 z m -7.69031,45.347619 q 13.73954,2.81194 20.82586,7.04572 10.66852,6.15982 8.59862,16.27366 -1.60125,7.82391 -9.86365,10.30815 -6.38875,2.07242 -16.88868,0.91759 -5.84196,-0.59916 -15.5351,-2.78179 l -3.05323,-0.62488 6.71742,-32.82225 z"
         id="path1-5-7"
         style="opacity:0.822034;fill:#3a5188;fill-opacity:1;stroke:none;stroke-width:1.095;stroke-dasharray:none;stroke-opacity:1;filter:url(#filter67)"
         transform="matrix(0.93639237,0,0,0.93639237,13.646214,10.976816)" /><path
         fill="#000000"
         d="m 132.58299,58.407373 -4.71761,23.050886 -8.93444,-1.828527 v 0 l -19.298407,-3.949626 -3.071929,15.009882 5.218546,0.881848 q 5.18198,1.060548 4.96671,1.202674 6.96887,1.426247 6.79761,7.72109 l -5.37588,26.26729 1.4295,0.29257 -1.4295,-0.29257 -7.53354,36.80993 q -0.54439,1.75034 -1.835947,2.60304 -1.79521,1.49433 -4.296861,0.98234 l -5.181977,-1.06056 -5.003293,-1.02397 -6.260089,16.03295 28.196277,5.95684 -4.75418,23.22957 13.93775,2.85251 4.71759,-23.05088 q 5.50281,1.31237 11.22086,2.48264 l -4.68104,22.8722 13.93774,2.85248 4.75418,-23.22955 q 19.8752,2.95063 30.55256,-1.00786 13.04102,-4.59179 17.65218,-19.84518 3.66865,-12.46749 -0.40788,-20.74874 -3.68676,-7.45678 -13.85954,-12.33135 15.18531,-4.15293 16.9416,-20.92147 1.12627,-11.87077 -7.3161,-19.74232 -7.01703,-6.648973 -21.94961,-11.008293 l 4.7176,-23.050886 -13.93771,-2.852503 -4.57133,22.336128 -11.29399,-2.125258 4.60789,-22.514816 z m 13.50687,43.163987 q 10.72134,2.19423 16.32134,5.76059 8.23961,5.22362 6.30554,13.76412 -1.90169,9.29183 -14.13815,9.95245 -6.79852,0.47035 -19.0915,-2.23171 l -2.32296,-0.47542 5.74159,-28.05416 z m -7.20115,42.46317 q 12.8656,2.63308 19.50118,6.59755 9.98992,5.76801 8.05168,15.23854 -1.4994,7.32625 -9.23625,9.65247 -5.98237,1.94059 -15.81443,0.85922 -5.47037,-0.56104 -14.54694,-2.60485 l -2.85902,-0.58513 6.29014,-30.7345 z"
         id="path1-5"
         style="fill:#ffffff;fill-opacity:1;stroke:none;stroke-width:1.02535;stroke-dasharray:none;stroke-opacity:1" /></g><circle
       style="fill:none;stroke:#ffffff;stroke-width:4.35164;stroke-dasharray:none;stroke-opacity:1"
       id="path2-9"
       cx="136.53503"
       cy="136.0103"
       r="130.67538" /></g></svg>
