<svg width="300" height="300" viewBox="0 0 300 300" fill="none" xmlns="http://www.w3.org/2000/svg">
<path d="M149.999 296.5C232.365 296.5 299.135 230.988 299.135 150.174C299.135 69.3595 232.365 3.84717 149.999 3.84717C67.634 3.84717 0.86377 69.3595 0.86377 150.174C0.86377 230.988 67.634 296.5 149.999 296.5Z" fill="url(#paint0_radial_2719_11466)"/>
<path d="M149.997 3.84717C197.495 3.84717 239.807 25.6355 267.118 59.5798C239.771 28.4952 199.318 8.81738 154.182 8.81738C71.8174 8.81879 5.04719 74.3326 5.04719 155.146C5.04737 189.398 17.049 220.897 37.1423 245.829C14.5386 220.179 0.862698 186.745 0.862305 150.176C0.862305 69.3618 67.6322 3.84784 149.997 3.84717Z" fill="url(#paint1_radial_2719_11466)" fill-opacity="0.5"/>
<path d="M150 296.501C102.502 296.501 60.1893 274.712 32.8779 240.768C60.2259 271.853 100.678 291.53 145.815 291.53C228.179 291.529 294.95 226.016 294.95 145.202C294.949 110.95 282.948 79.4502 262.854 54.5188C285.458 80.1689 299.134 113.603 299.134 150.173C299.134 230.986 232.365 296.5 150 296.501Z" fill="url(#paint2_radial_2719_11466)" fill-opacity="0.2"/>
<g filter="url(#filter0_ii_2719_11466)">
<path d="M299.136 150.174C299.136 69.6761 232.886 4.35977 150.964 3.8508L150 3.8479C67.635 3.8479 0.864178 69.3606 0.864178 150.174L0.867131 151.121C1.38385 231.184 67.4353 295.991 149.035 296.498L150 296.501C232.044 296.501 298.614 231.499 299.133 151.121L299.136 150.174ZM300 150.174C300 231.457 232.843 297.349 150 297.349C67.1575 297.349 9.26467e-05 231.457 0 150.174C0 68.8921 67.1575 3 150 3C232.843 3.00009 300 68.8927 300 150.174Z" fill="url(#paint3_linear_2719_11466)"/>
</g>
<g filter="url(#filter1_d_2719_11466)">
<path d="M149.806 80.6717C143.26 117.3 104.212 131.083 89.4295 155.885C75.9831 177.205 71.5757 211.545 101.874 240.971C103.658 242.832 107.872 244.215 106.917 238.682C106.178 233.06 103.983 214.725 115.083 194.803C125.63 173.516 147.797 156.982 152.044 146.536C150.229 156.473 149.616 166.038 130.172 194.502C121.547 208.531 111.989 227.617 122.294 251.464C125.6 255.661 128.927 255.585 130.267 251.464C137.85 238.109 152.044 229.906 163.127 222.084C174.21 214.262 201.821 185.073 189.376 135.662C183.154 111.624 165.737 90.0875 158.945 81.4342C154.498 75.766 150.631 76.0506 149.806 80.6717Z" fill="url(#paint4_radial_2719_11466)"/>
</g>
<g filter="url(#filter2_di_2719_11466)">
<path d="M153.034 76.7693C153.959 76.803 154.965 77.1995 156.008 77.9266C157.052 78.656 158.158 79.7341 159.287 81.1738C166.016 89.7467 183.276 111.082 189.647 134.991L189.796 135.556L190.082 136.718C201.863 185.643 174.473 214.597 163.38 222.427C157.814 226.355 151.527 230.338 145.658 235.026C139.808 239.699 134.417 245.039 130.664 251.636C129.965 253.749 128.694 254.994 127.021 255.005C125.401 255.017 123.63 253.85 121.953 251.722L121.919 251.678L121.897 251.628C111.505 227.581 121.163 208.333 129.802 194.281L129.807 194.273L129.813 194.264C139.525 180.047 144.52 170.569 147.315 163.418C149.579 157.627 150.401 153.355 151.117 149.292C149.915 151.289 148.252 153.45 146.293 155.761C143.446 159.121 139.936 162.843 136.248 166.885C128.858 174.985 120.717 184.402 115.472 194.987L115.467 194.996L115.462 195.004C104.432 214.8 106.609 233.021 107.345 238.621C107.587 240.033 107.516 241.08 107.176 241.81C106.819 242.577 106.185 242.949 105.466 243.019C104.777 243.087 104.029 242.879 103.358 242.556C102.687 242.231 102.052 241.77 101.57 241.271L100.862 240.576C71.1728 211.14 75.637 176.947 89.0626 155.66C92.7895 149.411 98.0348 143.869 103.885 138.509C106.812 135.827 109.896 133.186 113.02 130.524C116.146 127.86 119.313 125.175 122.415 122.398C134.826 111.29 146.133 98.7672 149.38 80.5962L149.423 80.3735C149.649 79.2724 150.055 78.3816 150.639 77.7562C151.271 77.0774 152.093 76.7344 153.034 76.7693ZM158.945 81.4325C154.499 75.7643 150.632 76.0483 149.806 80.6694L149.728 81.0973C142.955 117.407 104.155 131.178 89.4304 155.882C75.984 177.203 71.5761 211.543 101.875 240.97C103.659 242.831 107.872 244.212 106.917 238.68C106.184 233.102 104.017 215.009 114.826 195.268L115.083 194.801C125.631 173.515 147.797 156.981 152.044 146.535C150.23 156.472 149.616 166.036 130.172 194.5L129.362 195.83C120.97 209.727 112.312 228.361 122.295 251.462C125.6 255.659 128.927 255.583 130.267 251.462C137.613 238.525 151.164 230.422 162.08 222.817L163.127 222.083C174.124 214.322 201.391 185.526 189.661 136.814L189.377 135.66C183.155 111.622 165.737 90.0852 158.945 81.4325Z" fill="#09A356"/>
</g>
<g filter="url(#filter3_di_2719_11466)">
<path d="M175.537 77.4239C183.695 75.3976 186.184 74.4647 192.246 69.2205C198.308 63.9763 199.54 53.7846 200.123 51.368C200.706 48.9515 204.189 48.9345 204.772 51.351C205.451 54.1619 206.652 63.4972 212.48 69.225C216.651 73.3202 221.84 75.2621 229.207 77.1062C232.253 77.8693 231.786 81.2396 229.207 82.257C225.971 83.533 218.513 86.5175 214.494 89.6337C208.929 93.9494 206.008 103.2 205.031 106.927C204.055 110.653 200.279 111.615 199.263 106.927C198.097 101.526 196.282 95.6118 192.25 90.9693C187.67 85.6953 177.356 82.2148 175.541 81.8543C173.726 81.4938 173.489 77.9328 175.537 77.4239Z" fill="url(#paint5_linear_2719_11466)"/>
</g>
<g filter="url(#filter4_di_2719_11466)">
<path d="M199.702 51.2701C200.388 48.4289 204.501 48.3916 205.193 51.2532L205.259 51.543C205.603 53.0785 206.068 55.893 207.106 59.0644C208.21 62.4356 209.941 66.1287 212.786 68.9248L212.979 69.1116C217.029 72.9953 222.077 74.8838 229.314 76.6952L229.468 76.7368C230.231 76.9562 230.811 77.338 231.197 77.8312C231.61 78.357 231.782 78.9835 231.748 79.6089C231.682 80.8135 230.854 82.008 229.5 82.5951L229.368 82.6502C226.216 83.8931 219.179 86.7123 215.143 89.6788L214.762 89.9662C212.059 92.0628 209.972 95.3825 208.435 98.6775C206.901 101.965 205.934 105.182 205.45 107.032C204.938 108.983 203.653 110.358 202.206 110.504C201.468 110.579 200.744 110.321 200.147 109.726C199.596 109.176 199.162 108.348 198.892 107.24L198.84 107.015C197.695 101.714 195.936 95.9842 192.105 91.4582L191.922 91.2439C189.692 88.6773 186.036 86.5194 182.673 84.9521C179.312 83.3853 176.316 82.4405 175.456 82.2701C174.253 82.0311 173.692 80.7843 173.661 79.7068C173.629 78.6124 174.128 77.3397 175.431 77.0135C179.513 75.9996 182.133 75.2679 184.489 74.1471C186.837 73.0302 188.94 71.5152 191.96 68.9023C194.904 66.3553 196.697 62.5829 197.827 59.1049C198.961 55.6146 199.397 52.5347 199.702 51.2701ZM204.772 51.3509C204.189 48.9344 200.706 48.9514 200.123 51.3678L200.066 51.6166C199.458 54.4162 198.118 64.1401 192.246 69.2207L191.688 69.6998C186.022 74.5239 183.44 75.4608 175.537 77.4241C173.488 77.9325 173.726 81.494 175.541 81.8539C177.356 82.2144 187.67 85.695 192.25 90.9689C196.281 95.6114 198.096 101.525 199.263 106.926C200.263 111.542 203.937 110.682 204.983 107.099L205.031 106.926C205.993 103.258 208.838 94.2375 214.235 89.8397L214.494 89.6333C218.01 86.9069 224.159 84.2811 227.81 82.8128L229.207 82.2571C231.746 81.2555 232.238 77.9735 229.347 77.1434L229.207 77.1058C221.955 75.2904 216.813 73.3806 212.677 69.4152L212.48 69.2246C206.834 63.6762 205.53 54.7416 204.837 51.6332L204.772 51.3509Z" fill="#09A356"/>
</g>
<mask id="mask0_2719_11466" style="mask-type:alpha" maskUnits="userSpaceOnUse" x="81" y="79" width="110" height="174">
<path d="M152.971 80.0208C153.131 80.0449 153.523 80.1456 154.147 80.5809C154.68 80.9532 155.309 81.5099 156.008 82.2995L156.728 83.1673C163.373 91.6322 179.55 111.687 186.055 134.182L186.653 136.368C198.716 184.3 171.958 212.408 161.506 219.786C156.123 223.585 149.592 227.737 143.629 232.499C137.605 237.311 131.856 242.963 127.818 250.074L127.68 250.321L127.587 250.596C127.35 251.326 127.1 251.645 126.989 251.749C126.981 251.756 126.972 251.76 126.967 251.765C126.889 251.755 126.66 251.709 126.275 251.458C125.852 251.183 125.327 250.713 124.726 249.992C115.274 227.719 124.024 209.88 132.492 196.088C142.279 181.76 147.418 172.058 150.335 164.597C153.265 157.1 153.914 151.922 154.806 147.039L149.434 145.479C148.554 147.642 146.634 150.341 143.811 153.673C141.016 156.972 137.59 160.606 133.848 164.707C126.481 172.781 118.09 182.452 112.622 193.435C101.076 214.157 103.362 233.239 104.125 239.046L104.131 239.106L104.142 239.161C104.147 239.187 104.143 239.214 104.147 239.238L103.9 239.024L103.829 238.953L101.193 236.284C75.782 209.475 79.0837 179.184 90.6259 159.336L91.8069 157.386L91.8401 157.326C95.3268 151.475 100.306 146.179 106.075 140.894C108.954 138.256 111.999 135.649 115.126 132.985C118.24 130.331 121.44 127.616 124.578 124.807C136.725 113.934 148.376 101.264 152.224 82.953L152.57 81.1686C152.692 80.4842 152.879 80.1512 152.971 80.0208Z" fill="url(#paint6_linear_2719_11466)" stroke="#0FB662"/>
</mask>
<g mask="url(#mask0_2719_11466)">
<path d="M154.32 77.4875C155.693 78.0269 157.275 79.3136 158.938 81.4338C165.731 90.0871 183.148 111.624 189.37 135.662C201.814 185.073 174.203 214.262 163.121 222.084C152.037 229.906 137.843 238.109 130.26 251.463C129.28 254.478 127.237 255.328 124.917 253.924C126.872 254.655 128.54 253.673 129.396 251.04C136.979 237.685 151.173 229.481 162.256 221.66C173.339 213.838 200.949 184.649 188.506 135.238C182.284 111.2 164.866 89.663 158.074 81.0103C156.749 79.322 155.477 78.1624 154.32 77.4875Z" fill="white" fill-opacity="0.1"/>
<path d="M151.173 146.112C150.98 147.166 150.8 148.217 150.611 149.286C144.16 159.783 124.741 175.298 115.076 194.803C103.976 214.724 106.171 233.06 106.91 238.682C107.685 243.175 105.051 243.107 103.079 241.925C104.864 242.611 106.712 242.117 106.046 238.257C105.307 232.636 103.112 214.3 114.212 194.379C124.759 173.092 146.926 156.558 151.173 146.112Z" fill="white" fill-opacity="0.1"/>
<path d="M149.798 80.6716C150.558 76.4251 153.884 75.8408 157.868 80.1722C155.673 79.4147 154.048 80.621 153.546 83.4289C147 120.058 107.952 133.841 93.171 158.642C79.9129 179.664 75.4425 213.342 104.361 242.488C103.451 242.238 102.504 241.635 101.867 240.971C71.5689 211.544 75.9762 177.204 89.4227 155.884C104.205 131.083 143.252 117.3 149.798 80.6716Z" fill="url(#paint7_radial_2719_11466)" fill-opacity="0.8"/>
<g style="mix-blend-mode:lighten">
<path d="M155.787 149.294C153.972 159.231 153.358 168.796 133.915 197.259C125.29 211.288 115.732 230.375 126.037 254.222C126.11 254.314 126.184 254.404 126.256 254.493C125.025 254.201 123.655 253.198 122.289 251.463C111.984 227.616 121.542 208.53 130.166 194.502C142.341 176.68 147.132 166.267 149.459 158.534C152.418 155.066 154.695 151.979 155.787 149.294Z" fill="url(#paint8_radial_2719_11466)" fill-opacity="0.6"/>
</g>
</g>
<mask id="mask1_2719_11466" style="mask-type:alpha" maskUnits="userSpaceOnUse" x="176" y="53" width="54" height="56">
<path d="M202.459 53.9902C202.791 55.5844 203.285 57.8107 204.024 60.0696C205.057 63.224 206.669 66.8699 209.313 69.95L210.51 71.2294C215.137 75.774 220.804 77.8672 228.024 79.7039C225.009 80.8939 218.062 83.6704 213.635 86.7775L212.773 87.4147C209.47 89.9763 207.116 93.8398 205.496 97.3108C204.263 99.9551 203.376 102.542 202.794 104.495L202.311 106.213C202.258 106.413 202.178 106.575 202.113 106.719L202.014 106.334C200.898 101.167 199.128 95.1327 195.193 90.1163L194.375 89.1277C191.686 86.0318 187.52 83.6389 184.05 82.0215C181.815 80.9794 179.671 80.1752 178.102 79.6651C181.215 78.8626 183.637 78.1399 185.89 77.0675C188.624 75.7661 190.985 74.0306 194.089 71.3447C197.691 68.228 199.716 63.7948 200.916 60.1028C201.649 57.8461 202.14 55.5758 202.459 53.9902Z" fill="url(#paint9_linear_2719_11466)" stroke="#0FB662"/>
</mask>
<g mask="url(#mask1_2719_11466)">
<path d="M194.454 93.5987C198.485 98.2405 200.3 104.157 201.467 109.558C201.511 109.76 201.567 109.949 201.621 110.129C200.638 109.932 199.727 108.974 199.303 107.015C198.265 102.21 196.711 97.0033 193.542 92.6432C193.865 92.9547 194.171 93.273 194.454 93.5987ZM200.165 51.4586C200.749 49.0421 204.234 49.0256 204.817 51.4421C204.869 51.6575 204.916 51.9128 204.977 52.2C203.86 52.0606 202.647 52.6631 202.324 54.0014C201.74 56.4215 200.508 66.6073 194.448 71.8504C188.386 77.0946 185.894 78.0287 177.736 80.0555C176.781 80.2934 176.331 81.1949 176.298 82.1256C175.994 82.0395 175.752 81.9782 175.583 81.9445C173.769 81.584 173.536 78.0219 175.583 77.5124C183.741 75.4862 186.228 74.552 192.29 69.3073C198.349 64.0643 199.582 53.8783 200.165 51.4586ZM212.555 69.3461C216.72 73.4194 221.903 75.3546 229.251 77.1941C230.795 77.581 231.429 78.6394 231.349 79.7203C224.014 77.8808 218.839 75.94 214.681 71.856C213.889 71.0782 213.186 70.2313 212.555 69.3461Z" fill="url(#paint10_radial_2719_11466)" fill-opacity="0.8"/>
<g style="mix-blend-mode:lighten">
<path d="M231.301 79.2122C231.451 80.3971 230.67 81.7271 229.209 82.3041C225.972 83.5801 218.514 86.5636 214.496 89.6797C208.931 93.9948 206.01 103.247 205.033 106.974C204.057 110.7 200.282 111.663 199.267 106.974C198.1 101.573 196.283 95.6612 192.253 91.0198C187.676 85.7481 177.369 82.2664 175.547 81.9031C174.754 81.7457 174.26 80.9763 174.13 80.1182L174.125 80.0687C174.254 80.9268 174.743 81.6956 175.536 81.8536C177.35 82.2141 187.668 85.6964 192.248 90.9704C196.278 95.6117 198.095 101.525 199.261 106.924C200.276 111.614 204.051 110.651 205.028 106.924C206.005 103.196 208.927 93.951 214.49 89.6358C218.509 86.5197 225.967 83.5307 229.203 82.2546C230.644 81.6855 231.424 80.3842 231.301 79.2122Z" fill="white" fill-opacity="0.1"/>
</g>
</g>
<defs>
<filter id="filter0_ii_2719_11466" x="-8" y="-5" width="313" height="307.349" filterUnits="userSpaceOnUse" color-interpolation-filters="sRGB">
<feFlood flood-opacity="0" result="BackgroundImageFix"/>
<feBlend mode="normal" in="SourceGraphic" in2="BackgroundImageFix" result="shape"/>
<feColorMatrix in="SourceAlpha" type="matrix" values="0 0 0 0 0 0 0 0 0 0 0 0 0 0 0 0 0 0 127 0" result="hardAlpha"/>
<feOffset dx="10" dy="10"/>
<feGaussianBlur stdDeviation="2.5"/>
<feComposite in2="hardAlpha" operator="arithmetic" k2="-1" k3="1"/>
<feColorMatrix type="matrix" values="0 0 0 0 0.541176 0 0 0 0 0.941176 0 0 0 0 0.67451 0 0 0 0.5 0"/>
<feBlend mode="lighten" in2="shape" result="effect1_innerShadow_2719_11466"/>
<feColorMatrix in="SourceAlpha" type="matrix" values="0 0 0 0 0 0 0 0 0 0 0 0 0 0 0 0 0 0 127 0" result="hardAlpha"/>
<feOffset dx="-8" dy="-8"/>
<feGaussianBlur stdDeviation="5.2"/>
<feComposite in2="hardAlpha" operator="arithmetic" k2="-1" k3="1"/>
<feColorMatrix type="matrix" values="0 0 0 0 0 0 0 0 0 0 0 0 0 0 0 0 0 0 0.15 0"/>
<feBlend mode="multiply" in2="effect1_innerShadow_2719_11466" result="effect2_innerShadow_2719_11466"/>
</filter>
<filter id="filter1_d_2719_11466" x="78.8064" y="76.8924" width="116.027" height="179.991" filterUnits="userSpaceOnUse" color-interpolation-filters="sRGB">
<feFlood flood-opacity="0" result="BackgroundImageFix"/>
<feColorMatrix in="SourceAlpha" type="matrix" values="0 0 0 0 0 0 0 0 0 0 0 0 0 0 0 0 0 0 127 0" result="hardAlpha"/>
<feOffset dx="1" dy="1"/>
<feGaussianBlur stdDeviation="0.65"/>
<feComposite in2="hardAlpha" operator="out"/>
<feColorMatrix type="matrix" values="0 0 0 0 0.0196078 0 0 0 0 0.180392 0 0 0 0 0.142876 0 0 0 0.5 0"/>
<feBlend mode="normal" in2="BackgroundImageFix" result="effect1_dropShadow_2719_11466"/>
<feBlend mode="normal" in="SourceGraphic" in2="effect1_dropShadow_2719_11466" result="shape"/>
</filter>
<filter id="filter2_di_2719_11466" x="66.9753" y="51.7668" width="167.692" height="244.939" filterUnits="userSpaceOnUse" color-interpolation-filters="sRGB">
<feFlood flood-opacity="0" result="BackgroundImageFix"/>
<feColorMatrix in="SourceAlpha" type="matrix" values="0 0 0 0 0 0 0 0 0 0 0 0 0 0 0 0 0 0 127 0" result="hardAlpha"/>
<feOffset dx="15" dy="15"/>
<feGaussianBlur stdDeviation="13.35"/>
<feComposite in2="hardAlpha" operator="out"/>
<feColorMatrix type="matrix" values="0 0 0 0 0.0196078 0 0 0 0 0.180392 0 0 0 0 0.142876 0 0 0 0.5 0"/>
<feBlend mode="normal" in2="BackgroundImageFix" result="effect1_dropShadow_2719_11466"/>
<feBlend mode="normal" in="SourceGraphic" in2="effect1_dropShadow_2719_11466" result="shape"/>
<feColorMatrix in="SourceAlpha" type="matrix" values="0 0 0 0 0 0 0 0 0 0 0 0 0 0 0 0 0 0 127 0" result="hardAlpha"/>
<feOffset dx="-7" dy="-25"/>
<feGaussianBlur stdDeviation="13.55"/>
<feComposite in2="hardAlpha" operator="arithmetic" k2="-1" k3="1"/>
<feColorMatrix type="matrix" values="0 0 0 0 0 0 0 0 0 0 0 0 0 0 0 0 0 0 0.08 0"/>
<feBlend mode="normal" in2="shape" result="effect2_innerShadow_2719_11466"/>
</filter>
<filter id="filter3_di_2719_11466" x="173.089" y="48.5471" width="60.2312" height="63.5455" filterUnits="userSpaceOnUse" color-interpolation-filters="sRGB">
<feFlood flood-opacity="0" result="BackgroundImageFix"/>
<feColorMatrix in="SourceAlpha" type="matrix" values="0 0 0 0 0 0 0 0 0 0 0 0 0 0 0 0 0 0 127 0" result="hardAlpha"/>
<feOffset dx="1" dy="1"/>
<feGaussianBlur stdDeviation="0.5"/>
<feComposite in2="hardAlpha" operator="out"/>
<feColorMatrix type="matrix" values="0 0 0 0 0.0196078 0 0 0 0 0.180392 0 0 0 0 0.142876 0 0 0 0.5 0"/>
<feBlend mode="normal" in2="BackgroundImageFix" result="effect1_dropShadow_2719_11466"/>
<feBlend mode="normal" in="SourceGraphic" in2="effect1_dropShadow_2719_11466" result="shape"/>
<feColorMatrix in="SourceAlpha" type="matrix" values="0 0 0 0 0 0 0 0 0 0 0 0 0 0 0 0 0 0 127 0" result="hardAlpha"/>
<feOffset dx="-1" dy="-1"/>
<feGaussianBlur stdDeviation="0.5"/>
<feComposite in2="hardAlpha" operator="arithmetic" k2="-1" k3="1"/>
<feColorMatrix type="matrix" values="0 0 0 0 0 0 0 0 0 0 0 0 0 0 0 0 0 0 0.08 0"/>
<feBlend mode="normal" in2="shape" result="effect2_innerShadow_2719_11466"/>
</filter>
<filter id="filter4_di_2719_11466" x="155.959" y="24.123" width="111.493" height="129.093" filterUnits="userSpaceOnUse" color-interpolation-filters="sRGB">
<feFlood flood-opacity="0" result="BackgroundImageFix"/>
<feColorMatrix in="SourceAlpha" type="matrix" values="0 0 0 0 0 0 0 0 0 0 0 0 0 0 0 0 0 0 127 0" result="hardAlpha"/>
<feOffset dx="9" dy="16"/>
<feGaussianBlur stdDeviation="13.35"/>
<feComposite in2="hardAlpha" operator="out"/>
<feColorMatrix type="matrix" values="0 0 0 0 0.0196078 0 0 0 0 0.180392 0 0 0 0 0.142876 0 0 0 0.5 0"/>
<feBlend mode="normal" in2="BackgroundImageFix" result="effect1_dropShadow_2719_11466"/>
<feBlend mode="normal" in="SourceGraphic" in2="effect1_dropShadow_2719_11466" result="shape"/>
<feColorMatrix in="SourceAlpha" type="matrix" values="0 0 0 0 0 0 0 0 0 0 0 0 0 0 0 0 0 0 127 0" result="hardAlpha"/>
<feOffset dx="-7" dy="-25"/>
<feGaussianBlur stdDeviation="13.55"/>
<feComposite in2="hardAlpha" operator="arithmetic" k2="-1" k3="1"/>
<feColorMatrix type="matrix" values="0 0 0 0 0 0 0 0 0 0 0 0 0 0 0 0 0 0 0.08 0"/>
<feBlend mode="normal" in2="shape" result="effect2_innerShadow_2719_11466"/>
</filter>
<radialGradient id="paint0_radial_2719_11466" cx="0" cy="0" r="1" gradientUnits="userSpaceOnUse" gradientTransform="translate(96.1044 84.2547) rotate(45.3792) scale(233.353 154.71)">
<stop stop-color="#2DE093"/>
<stop offset="1" stop-color="#08975C"/>
</radialGradient>
<radialGradient id="paint1_radial_2719_11466" cx="0" cy="0" r="1" gradientUnits="userSpaceOnUse" gradientTransform="translate(37.1075 39.6477) rotate(37.2621) scale(289.004 362.161)">
<stop stop-color="#E3FFDE"/>
<stop offset="1" stop-color="#99EF88" stop-opacity="0"/>
</radialGradient>
<radialGradient id="paint2_radial_2719_11466" cx="0" cy="0" r="1" gradientUnits="userSpaceOnUse" gradientTransform="translate(365.377 296.501) rotate(-145.424) scale(312.273 341.329)">
<stop stop-color="#575757"/>
<stop offset="1" stop-color="#575757" stop-opacity="0"/>
</radialGradient>
<linearGradient id="paint3_linear_2719_11466" x1="86.6551" y1="14.941" x2="242.932" y2="264.023" gradientUnits="userSpaceOnUse">
<stop stop-color="#61D28B"/>
<stop offset="1" stop-color="#018744"/>
</linearGradient>
<radialGradient id="paint4_radial_2719_11466" cx="0" cy="0" r="1" gradientUnits="userSpaceOnUse" gradientTransform="translate(116.038 86.0081) rotate(65.1674) scale(132.603 134.259)">
<stop stop-color="#CEFFE5"/>
<stop offset="1" stop-color="#20C983"/>
</radialGradient>
<linearGradient id="paint5_linear_2719_11466" x1="161.049" y1="26.5372" x2="280.256" y2="184.403" gradientUnits="userSpaceOnUse">
<stop stop-color="#CEFFE5"/>
<stop offset="1" stop-color="#18C17E"/>
</linearGradient>
<linearGradient id="paint6_linear_2719_11466" x1="75.2027" y1="91.4905" x2="194.409" y2="249.357" gradientUnits="userSpaceOnUse">
<stop stop-color="#52DC94"/>
<stop offset="1" stop-color="#18C17E"/>
</linearGradient>
<radialGradient id="paint7_radial_2719_11466" cx="0" cy="0" r="1" gradientUnits="userSpaceOnUse" gradientTransform="translate(89.8225 101.647) rotate(60.3477) scale(137.54 153.783)">
<stop stop-color="#E3FFDE"/>
<stop offset="1" stop-color="#99EF88" stop-opacity="0"/>
</radialGradient>
<radialGradient id="paint8_radial_2719_11466" cx="0" cy="0" r="1" gradientUnits="userSpaceOnUse" gradientTransform="translate(93.0826 173.513) rotate(28.9236) scale(121.947 52.8115)">
<stop stop-color="#88EFAC"/>
<stop offset="1" stop-color="#88EFAC" stop-opacity="0"/>
</radialGradient>
<linearGradient id="paint9_linear_2719_11466" x1="161.051" y1="26.5374" x2="280.257" y2="184.404" gradientUnits="userSpaceOnUse">
<stop stop-color="#52DC94"/>
<stop offset="1" stop-color="#18C17E"/>
</linearGradient>
<radialGradient id="paint10_radial_2719_11466" cx="0" cy="0" r="1" gradientUnits="userSpaceOnUse" gradientTransform="translate(181.924 58.5874) rotate(41.5051) scale(66.0069 85.1896)">
<stop stop-color="#E3FFDE"/>
<stop offset="1" stop-color="#99EF88" stop-opacity="0"/>
</radialGradient>
</defs>
</svg>
