<svg width="223" height="54" viewBox="0 0 223 54" fill="none" xmlns="http://www.w3.org/2000/svg">
<mask id="mask0_1715_2157" style="mask-type:alpha" maskUnits="userSpaceOnUse" x="0" y="0" width="223" height="53">
<rect width="223" height="53" fill="#D9D9D9"/>
</mask>
<g mask="url(#mask0_1715_2157)">
<path d="M26.6723 52.1891C41.3183 52.1891 53.1911 40.5399 53.1911 26.1699C53.1911 11.7998 41.3183 0.150635 26.6723 0.150635C12.0264 0.150635 0.153564 11.7998 0.153564 26.1699C0.153564 40.5399 12.0264 52.1891 26.6723 52.1891Z" fill="url(#paint0_radial_1715_2157)"/>
<path d="M26.6719 0.150635C35.1179 0.150635 42.6416 4.02496 47.498 10.0608C42.6351 4.53345 35.442 1.03442 27.416 1.03442C12.7703 1.03467 0.897461 12.6841 0.897461 27.054C0.897493 33.1446 3.03157 38.7457 6.60449 43.179C2.58519 38.6179 0.15339 32.6728 0.15332 26.1702C0.15332 11.8002 12.0261 0.150754 26.6719 0.150635Z" fill="url(#paint1_radial_1715_2157)" fill-opacity="0.5"/>
<path d="M26.6724 52.1892C18.2264 52.1892 10.7026 48.3149 5.84619 42.2791C10.7091 47.8064 17.9022 51.3054 25.9282 51.3054C40.5739 51.3052 52.4468 39.6558 52.4468 25.2859C52.4467 19.1953 50.3127 13.5941 46.7397 9.16089C50.759 13.7219 53.1909 19.667 53.1909 26.1697C53.1909 40.5396 41.3182 52.1891 26.6724 52.1892Z" fill="url(#paint2_radial_1715_2157)" fill-opacity="0.2"/>
<g filter="url(#filter0_ii_1715_2157)">
<path d="M53.1912 26.17C53.1912 11.8561 41.4109 0.24179 26.8439 0.151286L26.6725 0.150771C12.0266 0.150771 0.153665 11.8 0.153665 26.17L0.15419 26.3383C0.246071 40.5748 11.9911 52.0986 26.5009 52.1887L26.6725 52.1892C41.2612 52.1892 53.0984 40.6308 53.1907 26.3383L53.1912 26.17ZM53.3449 26.17C53.3449 40.6233 41.4032 52.34 26.6725 52.34C11.9417 52.34 1.64741e-05 40.6233 0 26.17C0 11.7167 11.9417 0 26.6725 0C41.4032 1.61722e-05 53.3449 11.7168 53.3449 26.17Z" fill="url(#paint3_linear_1715_2157)"/>
</g>
<g filter="url(#filter1_d_1715_2157)">
<path d="M26.6379 13.8113C25.4739 20.3245 18.5305 22.7753 15.902 27.1854C13.511 30.9765 12.7273 37.0827 18.1148 42.3152C18.4321 42.6461 19.1813 42.8919 19.0115 41.9081C18.8801 40.9085 18.4898 37.6481 20.4636 34.1057C22.3391 30.3206 26.2806 27.3806 27.0359 25.5231C26.7132 27.2901 26.6041 28.9908 23.1466 34.0522C21.613 36.5467 19.9135 39.9406 21.7459 44.181C22.3337 44.9273 22.9253 44.9137 23.1635 44.181C24.5119 41.8063 27.0359 40.3476 29.0066 38.9568C30.9774 37.5659 35.887 32.3756 33.6742 23.5895C32.5678 19.3151 29.4707 15.4856 28.2629 13.9469C27.4723 12.939 26.7847 12.9896 26.6379 13.8113Z" fill="url(#paint4_radial_1715_2157)"/>
</g>
<g filter="url(#filter2_di_1715_2157)">
<path d="M27.212 13.1174C27.3764 13.1234 27.5554 13.1939 27.7407 13.3232C27.9265 13.4529 28.123 13.6446 28.3238 13.9006H28.3239C29.5205 15.425 32.5894 19.2188 33.7224 23.4701L33.7488 23.5706L33.7489 23.5711L33.7997 23.7772C35.8945 32.4769 31.0242 37.6255 29.0516 39.0177C28.0619 39.7161 26.944 40.4245 25.9003 41.2581C24.8601 42.0889 23.9016 43.0385 23.2342 44.2115C23.1099 44.5872 22.8839 44.8087 22.5865 44.8107C22.2983 44.8127 21.9834 44.6053 21.6853 44.2268L21.6792 44.219L21.6753 44.2101C19.8275 39.9342 21.5448 36.5115 23.0809 34.0129L23.0819 34.0114L23.0829 34.0099C24.8098 31.4818 25.6981 29.7965 26.1951 28.525C26.5976 27.4952 26.7438 26.7356 26.871 26.0132C26.6574 26.3682 26.3616 26.7524 26.0133 27.1634C25.507 27.7608 24.883 28.4228 24.2272 29.1415C22.9131 30.5817 21.4655 32.2562 20.5329 34.1384L20.532 34.14L20.5311 34.1415C18.5697 37.6616 18.9568 40.9015 19.0877 41.8973C19.1307 42.1483 19.1181 42.3345 19.0577 42.4643C18.9941 42.6007 18.8815 42.6668 18.7535 42.6794C18.631 42.6914 18.498 42.6544 18.3788 42.5969C18.2595 42.5392 18.1465 42.4572 18.0609 42.3685L17.935 42.245C12.6557 37.0108 13.4495 30.9307 15.8368 27.1454C16.4995 26.0342 17.4322 25.0488 18.4724 24.0957C18.9929 23.6188 19.5413 23.1492 20.0968 22.6758C20.6527 22.2022 21.2158 21.7248 21.7674 21.231C23.9742 19.2557 25.9849 17.029 26.5623 13.7979L26.5699 13.7583C26.6101 13.5625 26.6823 13.4041 26.786 13.2929C26.8985 13.1722 27.0446 13.1112 27.212 13.1174ZM28.263 13.9466C27.4724 12.9387 26.7848 12.9892 26.638 13.8109L26.6241 13.887C25.4198 20.3434 18.5204 22.7922 15.9022 27.185C13.5112 30.9762 12.7274 37.0824 18.115 42.3149C18.4323 42.6458 19.1814 42.8915 19.0116 41.9078C18.8812 40.916 18.496 37.6986 20.4179 34.1884L20.4637 34.1054C22.3392 30.3203 26.2807 27.3803 27.036 25.5228C26.7133 27.2898 26.6042 28.9905 23.1467 34.0519L23.0026 34.2884C21.5104 36.7594 19.9709 40.0728 21.746 44.1807C22.3338 44.927 22.9254 44.9134 23.1636 44.1807C24.4699 41.8802 26.8794 40.4394 28.8204 39.0871L29.0067 38.9565C30.9621 37.5765 35.8106 32.4562 33.7249 23.7944L33.6743 23.5892C32.5679 19.3148 29.4708 15.4852 28.263 13.9466Z" fill="#09A356"/>
</g>
<g filter="url(#filter3_di_1715_2157)">
<path d="M31.2133 13.2338C32.6639 12.8735 33.1065 12.7076 34.1845 11.7751C35.2624 10.8426 35.4814 9.03034 35.5851 8.60064C35.6888 8.17094 36.3081 8.16793 36.4118 8.59762C36.5325 9.09743 36.7461 10.7574 37.7825 11.7759C38.524 12.5041 39.4467 12.8494 40.7567 13.1773C41.2984 13.313 41.2154 13.9123 40.7567 14.0932C40.1813 14.3201 38.8551 14.8508 38.1406 15.4049C37.151 16.1723 36.6316 17.8172 36.4579 18.4799C36.2843 19.1425 35.6128 19.3136 35.4322 18.4799C35.2248 17.5195 34.9021 16.4679 34.1852 15.6424C33.3708 14.7046 31.5368 14.0857 31.2141 14.0216C30.8914 13.9575 30.8499 13.3243 31.2141 13.2338H31.2133Z" fill="url(#paint5_linear_1715_2157)"/>
</g>
<g filter="url(#filter4_di_1715_2157)">
<path d="M35.5102 8.5832C35.6322 8.07798 36.3636 8.07136 36.4865 8.58019L36.4984 8.63172C36.5594 8.90477 36.6421 9.40522 36.8267 9.96915C37.023 10.5686 37.3308 11.2253 37.8368 11.7225L37.871 11.7557C38.5913 12.4463 39.4888 12.7821 40.7756 13.1042L40.8031 13.1116C40.9387 13.1506 41.0418 13.2185 41.1105 13.3062C41.1839 13.3997 41.2145 13.5111 41.2085 13.6223C41.1967 13.8365 41.0495 14.0489 40.8088 14.1533L40.7853 14.1631C40.2248 14.3841 38.9736 14.8854 38.2559 15.4129L38.1881 15.464C37.7075 15.8368 37.3364 16.4271 37.063 17.013C36.7903 17.5975 36.6184 18.1697 36.5322 18.4986C36.4413 18.8455 36.2128 19.09 35.9554 19.1159C35.8243 19.1292 35.6954 19.0835 35.5893 18.9776C35.4913 18.8798 35.4142 18.7326 35.3662 18.5356L35.3569 18.4955C35.1534 17.5529 34.8405 16.5341 34.1594 15.7293L34.1267 15.6912C33.7302 15.2348 33.0802 14.8511 32.4822 14.5724C31.8846 14.2938 31.3517 14.1258 31.1988 14.0955C30.985 14.053 30.8852 13.8313 30.8796 13.6397C30.874 13.4451 30.9627 13.2188 31.1944 13.1608V13.1607C31.9202 12.9804 32.3862 12.8504 32.805 12.6511C33.2225 12.4525 33.5966 12.1831 34.1336 11.7185C34.6571 11.2656 34.9759 10.5948 35.1768 9.97636C35.3784 9.35572 35.456 8.80807 35.5102 8.5832ZM36.4117 8.59756C36.308 8.16787 35.6887 8.17089 35.585 8.60058L35.5749 8.64482C35.4668 9.14262 35.2286 10.8717 34.1844 11.7751L34.0851 11.8603C33.0777 12.7181 32.6185 12.8847 31.2132 13.2338H31.214C30.8498 13.3242 30.8913 13.9575 31.214 14.0215C31.5367 14.0856 33.3707 14.7045 34.1851 15.6423C34.9019 16.4678 35.2247 17.5194 35.4321 18.4798C35.6099 19.3006 36.2633 19.1476 36.4493 18.5105L36.4578 18.4798C36.6288 17.8275 37.1347 16.2235 38.0944 15.4415L38.1405 15.4048C38.7657 14.92 39.8591 14.4531 40.5083 14.192L40.7566 14.0932C41.2081 13.9151 41.2956 13.3315 40.7815 13.1839L40.7566 13.1772C39.4671 12.8544 38.5528 12.5148 37.8173 11.8097L37.7824 11.7758C36.7783 10.7892 36.5465 9.20048 36.4233 8.64777L36.4117 8.59756Z" fill="#09A356"/>
</g>
<mask id="mask1_1715_2157" style="mask-type:alpha" maskUnits="userSpaceOnUse" x="14" y="13" width="21" height="32">
<path d="M27.2007 13.6956C27.2291 13.6999 27.2988 13.7178 27.4097 13.7952C27.5045 13.8614 27.6164 13.9604 27.7407 14.1008L27.8687 14.2551V14.2561C29.0503 15.7613 31.9269 19.3264 33.0835 23.3264L33.1899 23.7151C35.3348 32.2382 30.5769 37.2362 28.7183 38.5481C27.7611 39.2236 26.5999 39.962 25.5396 40.8088C24.4684 41.6644 23.446 42.6694 22.728 43.9338L22.7036 43.9778L22.687 44.0266C22.6448 44.1565 22.6003 44.2131 22.5806 44.2317C22.5792 44.233 22.5777 44.2337 22.5767 44.2346C22.5629 44.2328 22.5221 44.2245 22.4536 44.1799C22.3784 44.131 22.2851 44.0475 22.1782 43.9192C20.4976 39.9588 22.0535 36.7866 23.5591 34.3342C25.2994 31.7865 26.2133 30.0614 26.7319 28.7346C27.253 27.4015 27.3683 26.4808 27.5269 25.6125L26.5718 25.3352C26.4153 25.7198 26.0739 26.1997 25.5718 26.7922C25.0748 27.3787 24.4657 28.0249 23.8003 28.7542C22.4903 30.1898 20.9982 31.9096 20.0259 33.8625C17.9729 37.5472 18.3794 40.9403 18.5151 41.9729L18.5161 41.9836L18.5181 41.9934C18.5189 41.998 18.5183 42.0027 18.519 42.0071L18.4751 41.969L18.4624 41.9563L17.9937 41.4817C13.4752 36.7146 14.0623 31.3285 16.1147 27.7991L16.3247 27.4524L16.3306 27.4417C16.9506 26.4013 17.836 25.4596 18.8618 24.5198C19.3737 24.0508 19.9152 23.5872 20.4712 23.1135C21.025 22.6416 21.5939 22.1588 22.1519 21.6594C24.3119 19.7259 26.3836 17.473 27.0679 14.217L27.1294 13.8997C27.1511 13.778 27.1843 13.7188 27.2007 13.6956Z" fill="url(#paint6_linear_1715_2157)" stroke="#0FB662"/>
</mask>
<g mask="url(#mask1_1715_2157)">
<path d="M27.4407 13.2451C27.6847 13.341 27.966 13.5698 28.2617 13.9468C29.4696 15.4855 32.5667 19.3151 33.673 23.5894C35.8858 32.3755 30.9762 37.5658 29.0055 38.9567C27.0347 40.3475 24.5108 41.8062 23.1624 44.1808C22.9881 44.7168 22.6248 44.868 22.2122 44.6184C22.5599 44.7483 22.8565 44.5738 23.0087 44.1055C24.3571 41.7308 26.881 40.2721 28.8518 38.8813C30.8225 37.4904 35.7321 32.3002 33.5194 23.514C32.413 19.2397 29.3159 15.4101 28.1081 13.8715C27.8726 13.5713 27.6463 13.3651 27.4407 13.2451Z" fill="white" fill-opacity="0.1"/>
<path d="M26.8811 25.4476C26.8468 25.6351 26.8148 25.8219 26.7811 26.012C25.634 27.8786 22.181 30.6374 20.4625 34.1056C18.4887 37.648 18.8789 40.9084 19.0103 41.908C19.1482 42.7071 18.6799 42.6949 18.3291 42.4848C18.6465 42.6067 18.9751 42.5189 18.8567 41.8326C18.7253 40.833 18.335 37.5726 20.3088 34.0303C22.1843 30.2452 26.1258 27.3051 26.8811 25.4476Z" fill="white" fill-opacity="0.1"/>
<path d="M26.6366 13.8113C26.7716 13.0562 27.363 12.9523 28.0715 13.7225C27.6812 13.5878 27.3923 13.8023 27.303 14.3016C26.139 20.8149 19.1957 23.2657 16.5673 27.6757C14.2098 31.4137 13.4149 37.4022 18.5571 42.5849C18.3952 42.5405 18.2269 42.4333 18.1136 42.3151C12.7261 37.0826 13.5098 30.9764 15.9008 27.1853C18.5293 22.7753 25.4726 20.3245 26.6366 13.8113Z" fill="url(#paint7_radial_1715_2157)" fill-opacity="0.8"/>
<g style="mix-blend-mode:lighten">
<path d="M27.7014 26.0134C27.3787 27.7804 27.2696 29.4812 23.8122 34.5425C22.2786 37.037 20.579 40.4309 22.4115 44.6713C22.4244 44.6877 22.4375 44.7038 22.4504 44.7195C22.2314 44.6677 21.9879 44.4892 21.745 44.1808C19.9126 39.9404 21.6122 36.5466 23.1457 34.0521C25.3105 30.8832 26.1625 29.0316 26.5763 27.6564C27.1024 27.0398 27.5072 26.4909 27.7014 26.0134Z" fill="url(#paint8_radial_1715_2157)" fill-opacity="0.6"/>
</g>
</g>
<mask id="mask2_1715_2157" style="mask-type:alpha" maskUnits="userSpaceOnUse" x="30" y="8" width="12" height="12">
<path d="M36.0005 9.06689C36.0595 9.35036 36.1473 9.74623 36.2788 10.1479C36.4625 10.7088 36.749 11.3571 37.2192 11.9048L37.4321 12.1323C38.2549 12.9404 39.2625 13.3126 40.5464 13.6392C40.0102 13.8508 38.775 14.3445 37.9878 14.897L37.8345 15.0103C37.2471 15.4658 36.8285 16.1528 36.5405 16.77C36.3212 17.2402 36.1635 17.7001 36.0601 18.0474L35.9741 18.353C35.9648 18.3886 35.9505 18.4174 35.939 18.4429L35.9214 18.3745C35.7229 17.4556 35.4082 16.3827 34.7085 15.4907L34.563 15.3149C34.0849 14.7644 33.3441 14.3389 32.7271 14.0513C32.3296 13.866 31.9483 13.723 31.6694 13.6323C32.2229 13.4896 32.6536 13.3611 33.0542 13.1704C33.5403 12.939 33.9602 12.6304 34.5122 12.1528C35.1526 11.5986 35.5128 10.8103 35.7261 10.1538C35.8564 9.75253 35.9437 9.34883 36.0005 9.06689Z" fill="url(#paint9_linear_1715_2157)" stroke="#0FB662"/>
</mask>
<g mask="url(#mask2_1715_2157)">
<path d="M34.5771 16.1099C35.2939 16.9353 35.6167 17.9874 35.8241 18.9478C35.8319 18.9836 35.842 19.0172 35.8515 19.0493C35.6768 19.0143 35.5148 18.8439 35.4394 18.4956C35.2548 17.6412 34.9784 16.7153 34.415 15.94C34.4724 15.9954 34.5268 16.052 34.5771 16.1099ZM35.5927 8.61671C35.6964 8.18701 36.3161 8.18408 36.4199 8.61378C36.4291 8.65208 36.4375 8.69747 36.4482 8.74855C36.2496 8.72376 36.0339 8.83089 35.9765 9.06886C35.8727 9.4992 35.6536 11.3104 34.5761 12.2427C33.4981 13.1752 33.055 13.3413 31.6044 13.7017H31.6054C31.4356 13.744 31.3545 13.9043 31.3486 14.0698C31.2946 14.0545 31.2516 14.0436 31.2216 14.0376C30.899 13.9735 30.8575 13.3401 31.2216 13.2495H31.2206C32.6712 12.8892 33.1144 12.7231 34.1923 11.7905C35.2697 10.8582 35.489 9.04697 35.5927 8.61671ZM37.7958 11.7974C38.5363 12.5217 39.458 12.8658 40.7646 13.1929C41.0392 13.2617 41.1518 13.4499 41.1376 13.6421C39.8333 13.315 38.9132 12.9699 38.1738 12.2437C38.033 12.1054 37.908 11.9548 37.7958 11.7974Z" fill="url(#paint10_radial_1715_2157)" fill-opacity="0.8"/>
<g style="mix-blend-mode:lighten">
<path d="M41.1292 13.5518C41.1558 13.7625 41.017 13.999 40.7571 14.1016C40.1816 14.3285 38.8554 14.859 38.1409 15.4131C37.1514 16.1804 36.6319 17.8255 36.4583 18.4883C36.2846 19.1509 35.6134 19.322 35.4329 18.4883C35.2254 17.528 34.9024 16.4767 34.1858 15.6514C33.3718 14.714 31.5391 14.0949 31.2151 14.0303C31.0741 14.0023 30.9863 13.8655 30.9631 13.7129L30.9622 13.7041C30.9853 13.8567 31.0722 13.9934 31.2131 14.0215C31.5358 14.0856 33.3704 14.7048 34.1848 15.6426C34.9014 16.4679 35.2245 17.5193 35.4319 18.4795C35.6124 19.3133 36.2836 19.1421 36.4573 18.4795C36.631 17.8166 37.1506 16.1726 38.1399 15.4053C38.8544 14.8512 40.1806 14.3197 40.7561 14.0928C41.0123 13.9916 41.151 13.7602 41.1292 13.5518Z" fill="white" fill-opacity="0.1"/>
</g>
</g>
<path d="M71.9034 16.3907V21.2735H77.9692V25.7475H71.9034V42.7835H67.4293V25.7475H64.8696V21.2735H67.4293V16.3907C67.4293 15.2148 67.7161 14.1465 68.2897 13.1857C68.8633 12.2106 69.6305 11.4362 70.5913 10.8626C71.5664 10.289 72.6491 10.0022 73.8393 10.0022C74.6997 10.0022 75.5386 10.1743 76.356 10.5184C77.1734 10.8626 77.9047 11.3932 78.55 12.1102L75.345 15.2722C75.1873 15.014 74.965 14.8204 74.6782 14.6914C74.4057 14.548 74.1261 14.4763 73.8393 14.4763C73.3087 14.4763 72.8499 14.6627 72.4627 15.0355C72.0898 15.4084 71.9034 15.8601 71.9034 16.3907Z" fill="#272727"/>
<path d="M96.4396 21.2735H100.914V42.7835H96.4181L96.246 39.6645C95.6151 40.7687 94.7618 41.6578 93.6863 42.3318C92.6108 43.0058 91.3418 43.3427 89.8791 43.3427C88.3017 43.3427 86.8175 43.0488 85.4265 42.4608C84.0355 41.8586 82.8094 41.0268 81.7483 39.9657C80.7015 38.9045 79.8841 37.6856 79.2961 36.309C78.7082 34.918 78.4142 33.4266 78.4142 31.8349C78.4142 30.3005 78.701 28.8593 79.2746 27.5114C79.8482 26.1491 80.6441 24.9588 81.6622 23.9407C82.6804 22.9226 83.8563 22.1267 85.1899 21.5531C86.5378 20.9651 87.979 20.6712 89.5134 20.6712C91.0765 20.6712 92.4531 21.0297 93.6433 21.7467C94.8479 22.4493 95.8445 23.3528 96.6332 24.4569L96.4396 21.2735ZM89.7715 39.0192C91.0334 39.0192 92.1376 38.7109 93.0841 38.0943C94.0305 37.4633 94.7619 36.6173 95.2781 35.5561C95.8087 34.495 96.074 33.3191 96.074 32.0285C96.074 30.7235 95.8087 29.5405 95.2781 28.4793C94.7475 27.4182 94.009 26.5793 93.0626 25.9626C92.1305 25.3317 91.0334 25.0162 89.7715 25.0162C88.5239 25.0162 87.3839 25.3317 86.3514 25.9626C85.3189 26.5936 84.5016 27.4397 83.8993 28.5008C83.297 29.562 82.9959 30.7379 82.9959 32.0285C82.9959 33.3334 83.3042 34.5165 83.9208 35.5776C84.5518 36.6244 85.3763 37.4633 86.3944 38.0943C87.4269 38.7109 88.5526 39.0192 89.7715 39.0192Z" fill="#272727"/>
<path d="M103.915 21.2735H108.389V42.7835H103.915V21.2735ZM106.195 18.1545C105.507 18.1545 104.934 17.9322 104.475 17.4877C104.016 17.0431 103.786 16.4839 103.786 15.8099C103.786 15.1503 104.016 14.5982 104.475 14.1536C104.934 13.6948 105.5 13.4653 106.174 13.4653C106.834 13.4653 107.393 13.6948 107.852 14.1536C108.311 14.5982 108.54 15.1503 108.54 15.8099C108.54 16.4839 108.311 17.0431 107.852 17.4877C107.407 17.9322 106.855 18.1545 106.195 18.1545Z" fill="#272727"/>
<path d="M112.077 42.7835V21.2735H116.552V23.5535C117.297 22.6644 118.215 21.9618 119.305 21.4455C120.395 20.9293 121.571 20.6712 122.832 20.6712C123.635 20.6712 124.431 20.7787 125.22 20.9938L123.435 25.5109C122.875 25.2958 122.316 25.1883 121.757 25.1883C120.81 25.1883 119.943 25.4249 119.154 25.8981C118.366 26.357 117.735 26.9808 117.261 27.7695C116.788 28.5582 116.552 29.4329 116.552 30.3937V42.7835H112.077Z" fill="#272727"/>
<path d="M126.583 42.7835V21.2735H131.057V23.5535C131.803 22.6644 132.714 21.9618 133.789 21.4455C134.879 20.9293 136.055 20.6712 137.317 20.6712C138.851 20.6712 140.264 21.044 141.554 21.7897C142.845 22.521 143.87 23.4962 144.63 24.7151C145.39 23.4962 146.401 22.521 147.663 21.7897C148.939 21.044 150.345 20.6712 151.879 20.6712C153.471 20.6712 154.919 21.0584 156.224 21.8327C157.529 22.6071 158.569 23.6467 159.343 24.9517C160.117 26.2566 160.505 27.705 160.505 29.2967V42.7835H156.03V30.4367C156.03 29.4903 155.801 28.6227 155.342 27.834C154.883 27.0453 154.267 26.4072 153.492 25.9196C152.718 25.4321 151.858 25.1883 150.911 25.1883C149.965 25.1883 149.104 25.4177 148.33 25.8766C147.556 26.3355 146.939 26.9593 146.48 27.748C146.021 28.5367 145.792 29.4329 145.792 30.4367V42.7835H141.318V30.4367C141.318 29.4329 141.088 28.5367 140.629 27.748C140.17 26.9593 139.547 26.3355 138.758 25.8766C137.984 25.4177 137.123 25.1883 136.177 25.1883C135.245 25.1883 134.384 25.4321 133.596 25.9196C132.821 26.4072 132.205 27.0453 131.746 27.834C131.287 28.6227 131.057 29.4903 131.057 30.4367V42.7835H126.583Z" fill="#272727"/>
<path d="M163.523 21.2735H167.997V42.7835H163.523V21.2735ZM165.803 18.1545C165.115 18.1545 164.542 17.9322 164.083 17.4877C163.624 17.0431 163.394 16.4839 163.394 15.8099C163.394 15.1503 163.624 14.5982 164.083 14.1536C164.542 13.6948 165.108 13.4653 165.782 13.4653C166.442 13.4653 167.001 13.6948 167.46 14.1536C167.919 14.5982 168.148 15.1503 168.148 15.8099C168.148 16.4839 167.919 17.0431 167.46 17.4877C167.015 17.9322 166.463 18.1545 165.803 18.1545Z" fill="#272727"/>
<path d="M191.044 29.2967V42.7835H186.57V30.3937C186.57 29.4329 186.334 28.5582 185.861 27.7695C185.402 26.9808 184.778 26.357 183.989 25.8981C183.215 25.4249 182.34 25.1883 181.365 25.1883C180.418 25.1883 179.551 25.4249 178.762 25.8981C177.974 26.357 177.343 26.9808 176.869 27.7695C176.396 28.5582 176.16 29.4329 176.16 30.3937V42.7835H171.685V21.2735H176.16V23.5535C176.905 22.6644 177.823 21.9618 178.913 21.4455C180.003 20.9293 181.179 20.6712 182.44 20.6712C184.032 20.6712 185.481 21.0584 186.785 21.8327C188.09 22.6071 189.123 23.6467 189.883 24.9517C190.657 26.2566 191.044 27.705 191.044 29.2967Z" fill="#272727"/>
<path d="M205.405 25.7475H200.888L200.866 42.7835H196.392L196.414 25.7475H192.993V21.2735H196.414L196.392 14.5193H200.866L200.888 21.2735H205.405V25.7475Z" fill="#272727"/>
<path d="M214.124 43.1922C212.991 43.1205 211.887 42.891 210.811 42.5039C209.736 42.1167 208.79 41.5933 207.972 40.9336C207.169 40.2596 206.567 39.4709 206.165 38.5675L209.973 36.9328C210.159 37.3199 210.482 37.6999 210.941 38.0728C211.414 38.4456 211.966 38.7539 212.597 38.9977C213.228 39.2272 213.887 39.3419 214.576 39.3419C215.25 39.3419 215.874 39.2487 216.447 39.0622C217.035 38.8615 217.515 38.5603 217.888 38.1588C218.261 37.7573 218.448 37.2769 218.448 36.7177C218.448 36.0867 218.232 35.5991 217.802 35.255C217.386 34.8965 216.863 34.624 216.232 34.4376C215.601 34.2512 214.97 34.0719 214.339 33.8998C212.934 33.5844 211.643 33.1542 210.467 32.6092C209.306 32.05 208.381 31.3401 207.693 30.4797C207.004 29.605 206.66 28.5367 206.66 27.2748C206.66 25.8981 207.033 24.7079 207.779 23.7041C208.524 22.6859 209.499 21.9044 210.704 21.3595C211.923 20.8146 213.221 20.5421 214.597 20.5421C216.318 20.5421 217.895 20.9078 219.329 21.6391C220.763 22.3705 221.86 23.3743 222.621 24.6505L219.071 26.7585C218.856 26.3283 218.534 25.9411 218.103 25.597C217.673 25.2528 217.186 24.9803 216.641 24.7796C216.096 24.5645 215.529 24.4426 214.941 24.4139C214.21 24.3852 213.529 24.4713 212.898 24.672C212.281 24.8585 211.787 25.1596 211.414 25.5755C211.041 25.9913 210.855 26.5219 210.855 27.1672C210.855 27.7982 211.077 28.2714 211.521 28.5869C211.966 28.888 212.525 29.1318 213.199 29.3182C213.887 29.5046 214.59 29.7126 215.307 29.942C216.583 30.3435 217.781 30.8382 218.899 31.4262C220.018 31.9998 220.921 32.7096 221.61 33.5557C222.298 34.4017 222.628 35.4342 222.599 36.6531C222.599 38.0011 222.19 39.1841 221.373 40.2023C220.57 41.2204 219.523 41.9948 218.232 42.5254C216.942 43.0559 215.572 43.2782 214.124 43.1922Z" fill="#272727"/>
</g>
<defs>
<filter id="filter0_ii_1715_2157" x="-8" y="-8" width="66.345" height="65.3401" filterUnits="userSpaceOnUse" color-interpolation-filters="sRGB">
<feFlood flood-opacity="0" result="BackgroundImageFix"/>
<feBlend mode="normal" in="SourceGraphic" in2="BackgroundImageFix" result="shape"/>
<feColorMatrix in="SourceAlpha" type="matrix" values="0 0 0 0 0 0 0 0 0 0 0 0 0 0 0 0 0 0 127 0" result="hardAlpha"/>
<feOffset dx="10" dy="10"/>
<feGaussianBlur stdDeviation="2.5"/>
<feComposite in2="hardAlpha" operator="arithmetic" k2="-1" k3="1"/>
<feColorMatrix type="matrix" values="0 0 0 0 0.541176 0 0 0 0 0.941176 0 0 0 0 0.67451 0 0 0 0.5 0"/>
<feBlend mode="lighten" in2="shape" result="effect1_innerShadow_1715_2157"/>
<feColorMatrix in="SourceAlpha" type="matrix" values="0 0 0 0 0 0 0 0 0 0 0 0 0 0 0 0 0 0 127 0" result="hardAlpha"/>
<feOffset dx="-8" dy="-8"/>
<feGaussianBlur stdDeviation="5.2"/>
<feComposite in2="hardAlpha" operator="arithmetic" k2="-1" k3="1"/>
<feColorMatrix type="matrix" values="0 0 0 0 0 0 0 0 0 0 0 0 0 0 0 0 0 0 0.15 0"/>
<feBlend mode="multiply" in2="effect1_innerShadow_1715_2157" result="effect2_innerShadow_1715_2157"/>
</filter>
<filter id="filter1_d_1715_2157" x="13.7664" y="12.8926" width="22.7692" height="34.143" filterUnits="userSpaceOnUse" color-interpolation-filters="sRGB">
<feFlood flood-opacity="0" result="BackgroundImageFix"/>
<feColorMatrix in="SourceAlpha" type="matrix" values="0 0 0 0 0 0 0 0 0 0 0 0 0 0 0 0 0 0 127 0" result="hardAlpha"/>
<feOffset dx="1" dy="1"/>
<feGaussianBlur stdDeviation="0.65"/>
<feComposite in2="hardAlpha" operator="out"/>
<feColorMatrix type="matrix" values="0 0 0 0 0.0196078 0 0 0 0 0.180392 0 0 0 0 0.142876 0 0 0 0.5 0"/>
<feBlend mode="normal" in2="BackgroundImageFix" result="effect1_dropShadow_1715_2157"/>
<feBlend mode="normal" in="SourceGraphic" in2="effect1_dropShadow_1715_2157" result="shape"/>
</filter>
<filter id="filter2_di_1715_2157" x="2.28975" y="-11.8831" width="73.723" height="98.3938" filterUnits="userSpaceOnUse" color-interpolation-filters="sRGB">
<feFlood flood-opacity="0" result="BackgroundImageFix"/>
<feColorMatrix in="SourceAlpha" type="matrix" values="0 0 0 0 0 0 0 0 0 0 0 0 0 0 0 0 0 0 127 0" result="hardAlpha"/>
<feOffset dx="15" dy="15"/>
<feGaussianBlur stdDeviation="13.35"/>
<feComposite in2="hardAlpha" operator="out"/>
<feColorMatrix type="matrix" values="0 0 0 0 0.0196078 0 0 0 0 0.180392 0 0 0 0 0.142876 0 0 0 0.5 0"/>
<feBlend mode="normal" in2="BackgroundImageFix" result="effect1_dropShadow_1715_2157"/>
<feBlend mode="normal" in="SourceGraphic" in2="effect1_dropShadow_1715_2157" result="shape"/>
<feColorMatrix in="SourceAlpha" type="matrix" values="0 0 0 0 0 0 0 0 0 0 0 0 0 0 0 0 0 0 127 0" result="hardAlpha"/>
<feOffset dx="-7" dy="-25"/>
<feGaussianBlur stdDeviation="13.55"/>
<feComposite in2="hardAlpha" operator="arithmetic" k2="-1" k3="1"/>
<feColorMatrix type="matrix" values="0 0 0 0 0 0 0 0 0 0 0 0 0 0 0 0 0 0 0.08 0"/>
<feBlend mode="normal" in2="shape" result="effect2_innerShadow_1715_2157"/>
</filter>
<filter id="filter3_di_1715_2157" x="29.9563" y="7.27686" width="13.1763" height="13.7661" filterUnits="userSpaceOnUse" color-interpolation-filters="sRGB">
<feFlood flood-opacity="0" result="BackgroundImageFix"/>
<feColorMatrix in="SourceAlpha" type="matrix" values="0 0 0 0 0 0 0 0 0 0 0 0 0 0 0 0 0 0 127 0" result="hardAlpha"/>
<feOffset dx="1" dy="1"/>
<feGaussianBlur stdDeviation="0.5"/>
<feComposite in2="hardAlpha" operator="out"/>
<feColorMatrix type="matrix" values="0 0 0 0 0.0196078 0 0 0 0 0.180392 0 0 0 0 0.142876 0 0 0 0.5 0"/>
<feBlend mode="normal" in2="BackgroundImageFix" result="effect1_dropShadow_1715_2157"/>
<feBlend mode="normal" in="SourceGraphic" in2="effect1_dropShadow_1715_2157" result="shape"/>
<feColorMatrix in="SourceAlpha" type="matrix" values="0 0 0 0 0 0 0 0 0 0 0 0 0 0 0 0 0 0 127 0" result="hardAlpha"/>
<feOffset dx="-1" dy="-1"/>
<feGaussianBlur stdDeviation="0.5"/>
<feComposite in2="hardAlpha" operator="arithmetic" k2="-1" k3="1"/>
<feColorMatrix type="matrix" values="0 0 0 0 0 0 0 0 0 0 0 0 0 0 0 0 0 0 0.08 0"/>
<feBlend mode="normal" in2="shape" result="effect2_innerShadow_1715_2157"/>
</filter>
<filter id="filter4_di_1715_2157" x="13.1794" y="-16.7986" width="63.7298" height="78.6167" filterUnits="userSpaceOnUse" color-interpolation-filters="sRGB">
<feFlood flood-opacity="0" result="BackgroundImageFix"/>
<feColorMatrix in="SourceAlpha" type="matrix" values="0 0 0 0 0 0 0 0 0 0 0 0 0 0 0 0 0 0 127 0" result="hardAlpha"/>
<feOffset dx="9" dy="16"/>
<feGaussianBlur stdDeviation="13.35"/>
<feComposite in2="hardAlpha" operator="out"/>
<feColorMatrix type="matrix" values="0 0 0 0 0.0196078 0 0 0 0 0.180392 0 0 0 0 0.142876 0 0 0 0.5 0"/>
<feBlend mode="normal" in2="BackgroundImageFix" result="effect1_dropShadow_1715_2157"/>
<feBlend mode="normal" in="SourceGraphic" in2="effect1_dropShadow_1715_2157" result="shape"/>
<feColorMatrix in="SourceAlpha" type="matrix" values="0 0 0 0 0 0 0 0 0 0 0 0 0 0 0 0 0 0 127 0" result="hardAlpha"/>
<feOffset dx="-7" dy="-25"/>
<feGaussianBlur stdDeviation="13.55"/>
<feComposite in2="hardAlpha" operator="arithmetic" k2="-1" k3="1"/>
<feColorMatrix type="matrix" values="0 0 0 0 0 0 0 0 0 0 0 0 0 0 0 0 0 0 0.08 0"/>
<feBlend mode="normal" in2="shape" result="effect2_innerShadow_1715_2157"/>
</filter>
<radialGradient id="paint0_radial_1715_2157" cx="0" cy="0" r="1" gradientUnits="userSpaceOnUse" gradientTransform="translate(17.0889 14.4484) rotate(45.3792) scale(41.494 27.5099)">
<stop stop-color="#2DE093"/>
<stop offset="1" stop-color="#08975C"/>
</radialGradient>
<radialGradient id="paint1_radial_1715_2157" cx="0" cy="0" r="1" gradientUnits="userSpaceOnUse" gradientTransform="translate(6.5983 6.51655) rotate(37.2621) scale(51.3897 64.3982)">
<stop stop-color="#E3FFDE"/>
<stop offset="1" stop-color="#99EF88" stop-opacity="0"/>
</radialGradient>
<radialGradient id="paint2_radial_1715_2157" cx="0" cy="0" r="1" gradientUnits="userSpaceOnUse" gradientTransform="translate(64.9699 52.1892) rotate(-145.424) scale(55.5273 60.6939)">
<stop stop-color="#575757"/>
<stop offset="1" stop-color="#575757" stop-opacity="0"/>
</radialGradient>
<linearGradient id="paint3_linear_1715_2157" x1="15.4087" y1="2.1233" x2="43.1972" y2="46.4141" gradientUnits="userSpaceOnUse">
<stop stop-color="#61D28B"/>
<stop offset="1" stop-color="#018744"/>
</linearGradient>
<radialGradient id="paint4_radial_1715_2157" cx="0" cy="0" r="1" gradientUnits="userSpaceOnUse" gradientTransform="translate(20.6334 14.7602) rotate(65.1674) scale(23.579 23.8735)">
<stop stop-color="#CEFFE5"/>
<stop offset="1" stop-color="#20C983"/>
</radialGradient>
<linearGradient id="paint5_linear_1715_2157" x1="28.6371" y1="4.18532" x2="49.834" y2="32.2565" gradientUnits="userSpaceOnUse">
<stop stop-color="#CEFFE5"/>
<stop offset="1" stop-color="#18C17E"/>
</linearGradient>
<linearGradient id="paint6_linear_1715_2157" x1="13.3722" y1="15.7351" x2="34.5691" y2="43.8063" gradientUnits="userSpaceOnUse">
<stop stop-color="#52DC94"/>
<stop offset="1" stop-color="#18C17E"/>
</linearGradient>
<radialGradient id="paint7_radial_1715_2157" cx="0" cy="0" r="1" gradientUnits="userSpaceOnUse" gradientTransform="translate(15.9719 17.5411) rotate(60.3477) scale(24.4569 27.3452)">
<stop stop-color="#E3FFDE"/>
<stop offset="1" stop-color="#99EF88" stop-opacity="0"/>
</radialGradient>
<radialGradient id="paint8_radial_1715_2157" cx="0" cy="0" r="1" gradientUnits="userSpaceOnUse" gradientTransform="translate(16.5516 30.32) rotate(28.9236) scale(21.6841 9.39075)">
<stop stop-color="#88EFAC"/>
<stop offset="1" stop-color="#88EFAC" stop-opacity="0"/>
</radialGradient>
<linearGradient id="paint9_linear_1715_2157" x1="28.6374" y1="4.18532" x2="49.8342" y2="32.2565" gradientUnits="userSpaceOnUse">
<stop stop-color="#52DC94"/>
<stop offset="1" stop-color="#18C17E"/>
</linearGradient>
<radialGradient id="paint10_radial_1715_2157" cx="0" cy="0" r="1" gradientUnits="userSpaceOnUse" gradientTransform="translate(32.349 9.88432) rotate(41.5051) scale(11.7371 15.1481)">
<stop stop-color="#E3FFDE"/>
<stop offset="1" stop-color="#99EF88" stop-opacity="0"/>
</radialGradient>
</defs>
</svg>
