<?xml version="1.0" encoding="UTF-8"?><svg id="Layer_1" xmlns="http://www.w3.org/2000/svg" viewBox="0 0 996.14 997.77"><path d="m586.05,383.15c31.92,13.31,56.51,36.79,71.58,65.1,4.4,8.27,7.99,16.95,10.71,25.92,1.44,4.74,2.64,9.56,3.58,14.43,1.45,7.42,2.31,14.98,2.56,22.6l-81.7-34.06c-4.78-1.99-10.14-2.13-15.02-.39l-36.81,13.13,295.11,123.05-17.31-36.5-.02-.06-.68-1.43h0c-1.47-3.1-4.04-5.55-7.21-6.87l-81.22-33.87c-12.53-5.23-20.53-16.76-21.82-29.38,0,0,0-.01,0-.02-.09-.78-.14-1.56-.17-2.36-.32-4.18-.79-8.34-1.41-12.46-.64-4.29-1.43-8.55-2.37-12.76-3.15-13.99-7.96-27.54-14.33-40.34-18.34-36.9-49.54-67.61-90.56-84.72-59.55-24.83-124.93-14.78-173.4,20.79l37.9,15.8c36.65-19.35,81.33-22.79,122.57-5.59Z"/><path d="m854,650.71l-6.77-14.27c-2.21-4.65-6.05-8.32-10.8-10.3L131.95,332.39l.49,1.03,9.77,20.49,6.83,14.33c2.21,4.63,6.05,8.29,10.79,10.27l496.69,207.1c-1.97,3.58-4.09,7.06-6.34,10.42-6.3,9.42-13.61,17.93-21.72,25.42-40.03,37.03-99.49,49.57-153.12,27.21-31.7-13.22-56.17-36.46-71.27-64.53-6.78-12.61-11.68-26.19-14.48-40.27-1.51-7.59-2.41-15.31-2.67-23.11l82.42,34.36c4.78,1.99,10.14,2.13,15.02.39l36.97-13.19-296.85-123.78,16.95,35.74c2.21,4.65,6.05,8.32,10.81,10.3l81.01,33.78c11.29,5.37,18.61,15.94,20.28,27.6,0,.18.02.36.03.54,0,.01,0,.02,0,.03.16,1.26.26,2.53.28,3.81,0,.03,0,.06,0,.09.01.15.03.31.04.46.7,8.23,1.97,16.36,3.8,24.36,3.19,13.97,8.06,27.51,14.48,40.28,18.38,36.65,49.46,67.13,90.27,84.14,71.07,29.63,150.46,9.59,199.5-44.27,7.31-8.01,13.93-16.77,19.76-26.23,2.11-3.43,4.11-6.95,6.01-10.55l176.51,73.6-10.19-21.5Z"/></svg>