<?xml version="1.0" encoding="UTF-8" standalone="no"?>
<!-- Created with Inkscape (http://www.inkscape.org/) -->

<svg
   width="161.66035mm"
   height="189.95547mm"
   viewBox="0 0 161.66035 189.95547"
   version="1.1"
   id="svg520"
   xmlns="http://www.w3.org/2000/svg"
   xmlns:svg="http://www.w3.org/2000/svg">
  <defs
     id="defs517">
    <radialGradient id="snowflakeGradient" cx="50%" cy="50%" r="50%" fx="50%" fy="50%">
      <stop offset="0%" style="stop-color:#c7e0fe;stop-opacity:1" />
      <stop offset="50%" style="stop-color:#6395fc;stop-opacity:1" />
      <stop offset="100%" style="stop-color:#1f3a8a;stop-opacity:1" />
    </radialGradient>
  </defs>
  <g
     id="layer1"
     transform="translate(-20.930434,-40.907793)">
    <path
       d="m 103.4803,230.00222 1.45521,-0.87419 0.13229,-2.56473 0.1323,-2.56474 1.71979,1.18253 c 0.94588,0.65039 1.87183,1.18636 2.05766,1.19106 0.32346,0.008 4.23421,-2.25775 5.61525,-3.25353 0.80652,-0.58152 1.21793,-0.22754 -4.82864,-4.15463 l -4.43177,-2.87832 v -5.56812 c 0,-4.03948 0.084,-5.56812 0.30613,-5.56812 0.16837,0 3.2927,1.9943 6.94296,4.43177 3.65025,2.43748 6.83827,4.55084 7.08449,4.69636 0.24622,0.14552 1.01024,0.65049 1.69784,1.12215 0.75374,0.51703 1.36489,0.76944 1.53907,0.63565 2.47009,-1.89744 5.62513,-4.43814 5.7797,-4.65429 0.11029,-0.15423 -0.0668,-0.49547 -0.39687,-0.76471 -0.59041,-0.48161 -5.14819,-3.48131 -9.46837,-6.23158 -2.95104,-1.87866 -2.57071,-1.62621 -8.32558,-5.52617 l -5.02708,-3.40675 -0.0702,-7.58664 c -0.0633,-6.84591 -0.0283,-7.58663 0.35842,-7.58663 0.3679,0 5.44018,3.27015 14.46969,9.32876 1.27736,0.85708 2.41795,1.51975 2.53464,1.4726 0.60511,-0.24453 5.06475,-5.25302 5.06475,-5.68807 0,-0.33387 -0.55724,-0.86341 -1.62312,-1.54245 -0.89271,-0.56873 -1.75838,-1.1693 -1.92369,-1.33462 -0.16531,-0.16531 -0.59577,-0.45422 -0.95657,-0.64202 -0.3608,-0.1878 -3.39443,-2.15323 -6.74141,-4.36761 -5.30176,-3.50769 -8.46002,-5.5607 -10.64948,-6.92265 -0.5917,-0.36806 -0.59531,-0.41061 -0.59531,-7.0071 0,-5.86818 0.0472,-6.61868 0.40758,-6.48039 0.22418,0.086 3.03856,1.90067 6.25419,4.03254 3.21563,2.13187 6.03854,3.88993 6.27314,3.9068 0.38106,0.0274 0.43405,-0.73813 0.49694,-7.17923 0.0387,-3.96544 0.13585,-7.2099 0.21583,-7.2099 0.28184,0 1.33297,0.6367 4.4395,2.68913 1.72603,1.14036 3.18223,2.07337 3.23601,2.07337 0.0538,0 0.75381,0.41966 1.55561,0.93257 l 1.45784,0.93256 0.0687,12.89192 0.0687,12.89191 h 3.83645 3.83646 l 0.0692,-10.38489 c 0.0604,-9.06776 0.12003,-10.3849 0.46988,-10.3849 0.34056,0 5.01556,2.9441 10.44111,6.57535 l 1.45521,0.97395 0.13229,13.48941 0.13229,13.48943 3.55066,0.0741 c 2.27187,0.0474 3.65285,-0.0281 3.83442,-0.20965 0.1927,-0.1927 0.28442,-3.77559 0.28581,-11.16448 0.001,-7.21707 0.0936,-10.91129 0.27413,-10.97152 0.28631,-0.0956 1.15813,0.41617 6.09022,3.57466 1.66672,1.06737 3.03839,2.0794 3.04817,2.24896 0.01,0.16956 0.002,3.00541 -0.0163,6.30187 -0.023,4.04939 0.0588,6.051 0.25231,6.17058 0.2312,0.14289 2.15907,-0.98219 6.20473,-3.62099 0.1586,-0.10345 0.3479,-1.17502 0.42066,-2.38125 0.15667,-2.59734 0.26764,-2.63672 2.66519,-0.94592 l 1.51974,1.07175 1.94243,-1.04479 1.94243,-1.04478 v -2.09533 -2.09533 l -1.32292,-0.83863 c -0.7276,-0.46125 -1.61435,-1.0711 -1.97056,-1.35523 l -0.64765,-0.51661 1.97057,-1.3013 1.97056,-1.3013 0.0739,-3.67623 c 0.0406,-2.02193 -0.0189,-3.76797 -0.1323,-3.8801 -0.1134,-0.11212 -1.03963,0.37409 -2.05828,1.08046 -4.17946,2.89823 -8.12648,5.33399 -8.44523,5.21168 -0.1867,-0.0717 -1.87524,-1.1285 -3.75232,-2.34857 -1.87708,-1.22007 -3.85935,-2.49048 -4.40505,-2.82314 -0.5457,-0.33265 -0.99219,-0.71372 -0.99219,-0.84681 0,-0.21497 3.63917,-2.67348 8.40711,-5.67957 0.91313,-0.57572 2.12591,-1.34441 2.69508,-1.70821 0.56917,-0.3638 1.9949,-1.23829 3.1683,-1.94331 1.17339,-0.70501 2.18242,-1.3611 2.24229,-1.45796 0.0599,-0.0969 -0.10493,-1.3655 -0.3662,-2.81919 -0.26128,-1.45369 -0.5569,-3.32769 -0.65694,-4.16444 -0.10672,-0.89264 -0.31069,-1.51952 -0.49357,-1.51691 -0.17143,0.002 -2.21669,1.24541 -4.54503,2.76217 -4.22409,2.7517 -9.12849,5.94005 -15.01979,9.76434 -1.71245,1.11163 -3.29107,2.02113 -3.50805,2.02113 -0.61562,0 -12.06271,-7.44682 -11.9538,-7.77646 0.0533,-0.16133 1.24722,-1.0077 2.65315,-1.88083 8.41346,-5.22503 15.52535,-9.86991 15.52535,-10.13982 0,-0.33721 -5.4468,-5.60289 -5.79561,-5.60289 -0.47627,0 -1.64555,0.65203 -4.19927,2.34164 -1.26953,0.83995 -3.3127,2.17475 -4.54036,2.96622 -1.22767,0.79146 -4.2589,2.77847 -6.73606,4.41558 -2.47717,1.63711 -4.65965,2.97656 -4.84996,2.97656 -0.19031,0 -2.3383,-1.26234 -4.77331,-2.80521 -2.43502,-1.54287 -4.69519,-2.97436 -5.02261,-3.1811 -0.32743,-0.20674 -0.59532,-0.53212 -0.59532,-0.72307 0,-0.19095 1.19996,-1.11094 2.66658,-2.04442 5.91761,-3.76648 8.71007,-5.66775 8.70175,-5.92466 -0.005,-0.14877 -0.86802,-0.81701 -1.91823,-1.48497 -1.05021,-0.66796 -3.02073,-1.91812 -4.37893,-2.77813 -4.15348,-2.62997 -4.93604,-3.18814 -5.01188,-3.57479 -0.0428,-0.21808 0.72411,-0.85881 1.85208,-1.54742 1.0588,-0.64637 3.11572,-1.96656 4.57093,-2.93375 4.12273,-2.74012 3.56273,-2.64881 6.0509,-0.98667 1.18315,0.79037 3.3418,2.21292 4.79701,3.16122 1.45521,0.9483 4.61037,3.02211 7.01146,4.60847 2.4011,1.58636 4.5618,2.96525 4.80157,3.06419 0.23977,0.0989 0.51469,0.3073 0.61093,0.46302 0.0962,0.15572 0.38903,0.28313 0.65064,0.28313 0.55029,0 5.93996,-4.94619 6.04706,-5.54949 0.0394,-0.222 -0.31777,-0.65415 -0.79375,-0.96032 -0.47597,-0.30618 -2.41322,-1.53172 -4.30499,-2.72343 -1.89177,-1.19171 -5.28505,-3.34748 -7.54063,-4.79059 -2.25557,-1.44311 -4.51298,-2.88418 -5.01646,-3.20238 -1.0857,-0.68615 -1.34921,-0.41964 3.16438,-3.20041 1.67349,-1.03101 4.12018,-2.57179 5.43709,-3.42397 1.31691,-0.85217 2.57896,-1.5494 2.80457,-1.5494 0.22561,0 0.89875,0.3539 1.49587,0.78646 0.59713,0.43255 2.43069,1.62672 4.0746,2.6537 1.6439,1.02698 4.02,2.5483 5.28021,3.38072 5.63531,3.72233 11.67965,7.53715 12.12783,7.65435 0.41297,0.10799 0.51428,-0.0729 0.64632,-1.15432 0.0861,-0.70531 0.3928,-2.5397 0.68151,-4.07641 0.28871,-1.53672 0.52493,-2.91378 0.52493,-3.06014 0,-0.14635 -0.50602,-0.54503 -1.12448,-0.88594 -2.19093,-1.2077 -14.62095,-9.10767 -15.27129,-9.70577 -0.33965,-0.31236 -0.32302,-0.41936 0.13229,-0.85137 0.91848,-0.87146 8.27211,-5.324625 8.79269,-5.324625 0.27624,0 1.78482,0.86321 3.3524,1.91823 3.84951,2.590825 6.76168,4.431765 7.01057,4.431765 0.22395,0 0.5474,-3.21839 0.5474,-5.446645 0,-2.02095 -0.28982,-2.53249 -2.05059,-3.61929 -2.46696,-1.5227 -2.46767,-1.53044 -0.26445,-2.86995 l 1.91817,-1.1662 0.0772,-1.88746 0.0772,-1.88746 -1.74349,-1.21878 c -0.95892,-0.67034 -1.81992,-1.21879 -1.91334,-1.21879 -0.0934,0 -0.95092,0.46884 -1.90556,1.04186 -2.57488,1.5456 -2.50792,1.57159 -2.66173,-1.03306 l -0.1323,-2.24016 -3.13666,-2.07696 c -1.72516,-1.14233 -3.29988,-2.01432 -3.49937,-1.93777 -0.29974,0.11502 -0.33375,1.23504 -0.19584,6.4503 l 0.16687,6.31112 -3.54666,2.22046 c -1.95068,1.22125 -3.95025,2.49374 -4.4435,2.82775 -0.49325,0.33401 -0.99794,0.60729 -1.12154,0.60729 -0.1236,0 -0.25582,-4.91133 -0.29381,-10.91406 l -0.0691,-10.91406 h -3.83646 -3.83646 l -0.13229,13.33951 c -0.0847,8.53755 -0.22754,13.371775 -0.39687,13.429175 -0.33274,0.11277 -6.46784,4.09474 -9.184,5.96084 -1.12214,0.77095 -2.1937,1.40173 -2.38125,1.40173 -0.27217,0 -0.34434,-2.08293 -0.35751,-10.318755 l -0.0165,-10.31875 -4.01839,-0.073 -4.01839,-0.073 v 12.947755 12.94776 l -1.659,1.04775 c -0.91245,0.57627 -3.22435,2.07522 -5.13756,3.33101 -1.91321,1.25579 -3.60744,2.28326 -3.76496,2.28326 -0.19855,0 -0.28639,-2.24105 -0.28639,-7.3069 0,-6.97285 -0.0223,-7.30106 -0.48831,-7.1792 -0.26857,0.0702 -2.23799,1.30451 -4.37648,2.74284 -6.12634,4.1205 -8.15939,5.38765 -8.40279,5.23723 -0.1244,-0.0769 -0.22617,-2.98463 -0.22617,-6.46167 v -6.32191 l 2.18281,-1.46673 c 1.20055,-0.806705 3.13531,-2.111825 4.29948,-2.900275 2.3351,-1.58147 14.23645,-9.25344 15.80885,-10.19086 0.54571,-0.32534 0.99219,-0.67495 0.99219,-0.77691 0,-0.3024 -5.50431,-5.85686 -5.80397,-5.85686 -0.15124,0 -4.0368,2.50031 -8.63457,5.55625 -4.59778,3.05593 -8.46877,5.55625 -8.60219,5.55625 -0.14147,0 -0.2426,-3.18239 -0.2426,-7.63428 v -7.63427 l 2.57968,-1.72083 c 8.44305,-5.6321 16.89314,-11.157462 18.77604,-12.277332 1.19539,-0.71097 2.17765,-1.43537 2.18281,-1.60977 0.013,-0.43818 -0.88048,-1.32796 -2.88212,-2.87026 -0.93548,-0.7208 -1.99467,-1.57845 -2.35374,-1.90587 -0.35907,-0.32742 -0.7843,-0.59301 -0.94495,-0.59019 -0.16066,0.003 -1.2446,0.67072 -2.40876,1.48424 -4.0477,2.82851 -14.41873,9.62314 -14.68837,9.62314 -0.17896,0 -0.24699,-1.8689 -0.19982,-5.49011 l 0.0715,-5.4901 4.82344,-3.175 c 2.6529,-1.74625 4.82188,-3.29406 4.81998,-3.43958 -0.005,-0.41198 -5.61645,-3.97672 -6.14557,-3.90433 -0.259,0.0354 -1.09084,0.48191 -1.84855,0.99219 -0.75771,0.51027 -1.52807,0.92776 -1.71192,0.92776 -0.24081,0 -0.33426,-0.57883 -0.33426,-2.07055 0,-1.81306 -0.074,-2.13676 -0.59531,-2.60303 -0.78283,-0.70021 -2.42722,-1.67642 -2.82387,-1.67642 -0.17271,0 -1.02186,0.48069 -1.886996,1.06819 l -1.57298,1.06819 -0.004,1.77608 c -0.006,2.55542 -0.17045,2.69045 -1.87804,1.54049 -0.77998,-0.52527 -1.61331,-0.95503 -1.85185,-0.95503 -0.44203,0 -5.86464,3.55239 -5.99484,3.92726 -0.0851,0.2449 1.54673,1.42818 6.02461,4.36868 l 3.30729,2.17181 0.0715,5.48175 c 0.0393,3.01496 -0.008,5.48175 -0.10491,5.48175 -0.097,0 -0.84359,-0.43562 -1.65901,-0.96805 -0.81543,-0.53242 -2.79229,-1.82039 -4.39302,-2.86216 -1.60072,-1.04176 -3.20807,-2.09786 -3.57187,-2.3469 -0.3638,-0.24903 -1.3163,-0.89632 -2.11667,-1.43841 -0.80036,-0.5421 -2.24423,-1.55068 -3.2086,-2.2413 -0.96436,-0.69063 -1.91686,-1.25112 -2.11666,-1.24554 -0.39996,0.0112 -6.09927,4.7249 -6.22586,5.14923 -0.064,0.21449 2.63212,2.22723 4.60741,3.43959 0.23709,0.14552 3.41447,2.21408 7.06083,4.596802 3.64637,2.38271 7.52273,4.90575 8.61413,5.60675 1.09141,0.70099 2.25227,1.46572 2.57969,1.6994 0.59346,0.42355 0.59531,0.44833 0.59531,7.95315 0,4.74308 -0.096,7.52827 -0.25944,7.52827 -0.32733,0 -1.71194,-0.88371 -10.02237,-6.39668 -3.69047,-2.44818 -6.84765,-4.45123 -7.01597,-4.45123 -0.16832,0 -1.61369,1.32041 -3.21194,2.93426 -2.62862,2.65428 -2.85921,2.96355 -2.41657,3.24114 0.26913,0.16879 1.69788,1.08658 3.175,2.03955 1.47711,0.95296 2.86426,1.81553 3.08254,1.91683 0.21828,0.10129 1.05172,0.66588 1.85209,1.25465 1.64843,1.21262 1.56061,1.15387 6.2177,4.15982 1.89178,1.22106 4.57068,2.95541 5.95313,3.854105 l 2.51354,1.63401 0.0708,6.54845 c 0.0554,5.12427 -0.002,6.54843 -0.26229,6.54843 -0.18319,0 -0.92941,-0.40029 -1.65827,-0.88953 -7.98569,-5.3603 -11.05271,-7.30039 -11.29964,-7.14778 -0.21068,0.13021 -0.2425,2.18821 -0.11261,7.28439 0.15487,6.07659 0.1262,7.10292 -0.19843,7.10292 -0.31293,0 -9.31889,-5.76748 -10.41817,-6.67187 -0.25627,-0.21083 -0.33073,-3.14947 -0.33073,-13.05149 V 88.838385 l -3.63803,-0.0916 c -2.00091,-0.0504 -3.78684,-0.0469 -3.96875,0.008 -0.2572,0.0773 -0.33072,2.38693 -0.33072,10.38987 0,6.756445 -0.0918,10.290455 -0.26742,10.290455 -0.28796,0 -2.86888,-1.58525 -8.33154,-5.11738 l -3.43959,-2.22401 -0.0686,-13.374975 -0.0686,-13.37498 -3.76789,-0.0902 c -2.07235,-0.0496 -3.86239,-0.0177 -3.97788,0.071 -0.11549,0.0886 -0.20229,4.9932 -0.19289,10.89908 0.009,5.90587 -0.0832,10.79993 -0.20577,10.87569 -0.12258,0.0757 -1.16687,-0.44386 -2.32066,-1.15469 -1.15378,-0.71083 -3.13958,-1.92386 -4.41289,-2.69562 l -2.31511,-1.40319 v -6.5512 c 0,-3.60316 -0.0643,-6.5512 -0.14283,-6.5512 -0.256,0 -2.05769,1.05469 -4.48737,2.62689 l -2.38125,1.54085 -0.0768,2.14946 c -0.0853,2.38595 -0.17957,2.47662 -1.64295,1.58025 -1.71438,-1.05013 -2.66027,-1.54745 -2.94318,-1.54745 -0.15468,0 -1.04403,0.5015 -1.97632,1.11445 l -1.69508,1.11445 v 1.94056 c 0,1.8947 0.0193,1.95122 0.81691,2.39128 0.4493,0.2479 1.35305,0.82444 2.00834,1.28122 l 1.19143,0.83051 -1.94219,1.30348 -1.9422,1.30349 -0.073,4.017565 c -0.0605,3.32972 -0.009,4.01758 0.30293,4.01758 0.20678,0 1.25168,-0.62788 2.322,-1.39529 2.1663,-1.55322 6.00982,-4.103225 7.25262,-4.811805 0.7874,-0.44894 0.83326,-0.4447 1.74335,0.16104 0.51407,0.34215 1.57892,1.01711 2.36633,1.49991 0.7874,0.482795 1.84041,1.137635 2.34001,1.455205 0.49961,0.31756 1.45211,0.89579 2.11667,1.28493 2.15313,1.2608 2.81622,0.669 -9.37503,8.36714 -4.40594,2.7821 -5.81313,3.79806 -5.78913,4.1796 0.0742,1.17901 1.27276,7.66811 1.45617,7.88355 0.19339,0.22716 1.56105,-0.59885 8.69858,-5.25362 1.81901,-1.18627 4.55745,-2.95825 6.08542,-3.93774 1.52797,-0.97948 3.96875,-2.54818 5.42396,-3.486 1.45521,-0.93783 2.81802,-1.70704 3.02848,-1.70936 0.21046,-0.002 0.80578,0.27801 1.32292,0.62295 0.96279,0.64221 3.38894,2.18122 5.04131,3.19791 2.86261,1.76136 5.53944,3.66096 5.42342,3.84869 -0.14215,0.23 -2.53331,1.83711 -7.67238,5.15664 -6.97814,4.50745 -10.45104,6.82962 -10.45104,6.98811 0,0.0916 1.29782,1.46034 2.88406,3.04165 l 2.88407,2.87513 1.15083,-0.78111 c 0.63295,-0.42961 1.98426,-1.3224 3.00291,-1.98399 1.01865,-0.66158 4.41193,-2.86711 7.54063,-4.90118 9.40851,-6.11678 8.75601,-5.74587 9.37836,-5.33101 0.29893,0.19927 1.65495,1.07591 3.01338,1.94808 4.99581,3.20754 6.48874,4.23887 6.59139,4.55343 0.059,0.18085 -1.61286,1.44053 -3.81666,2.87567 -6.4805,4.22018 -7.49393,4.92939 -7.48519,5.23823 0.005,0.16254 0.56314,0.65271 1.2412,1.08928 0.67806,0.43656 1.41844,0.91729 1.64528,1.06828 0.22684,0.151 1.6626,1.08766 3.19057,2.08147 5.79118,3.76667 5.6339,3.6385 5.102,4.15761 -0.39411,0.38462 -8.20485,5.30748 -9.63762,6.07427 -0.34404,0.18413 -1.73658,-0.62007 -6.1106,-3.52887 -3.11576,-2.07204 -6.88,-4.54125 -8.36499,-5.48714 -1.48498,-0.94589 -3.48779,-2.22994 -4.45067,-2.85346 -0.96288,-0.62352 -1.83505,-1.09977 -1.93813,-1.05833 -0.459,0.18448 -6.08541,5.64596 -6.08541,5.90702 0,0.16041 0.8632,0.79822 1.91823,1.41737 1.05503,0.61915 2.41858,1.44405 3.03011,1.83312 0.61153,0.38907 1.92122,1.21677 2.91041,1.83932 0.9892,0.62255 2.27479,1.47267 2.85688,1.88916 0.58208,0.4165 2.44343,1.65222 4.13634,2.74605 1.6929,1.09383 3.17156,2.14016 3.2859,2.32518 0.12846,0.20785 0.0139,0.47425 -0.29988,0.69719 -0.73014,0.51879 -7.88971,5.09308 -9.77711,6.24664 l -1.59641,0.97572 -5.68258,-3.77259 c -12.48225,-8.28681 -16.54401,-10.91995 -16.96489,-10.99792 -0.53382,-0.0989 -0.58108,0.0468 -1.31397,4.05032 -0.82575,4.51085 -0.84207,4.36922 0.59406,5.15378 0.67158,0.36688 2.6081,1.56002 4.30339,2.65143 10.73022,6.908 11.16254,7.21533 10.85338,7.71556 -0.14563,0.23564 -3.51206,2.43607 -6.78219,4.43311 l -2.31062,1.41108 -3.37792,-2.19846 c -1.85785,-1.20916 -4.10742,-2.71228 -4.99902,-3.34029 -0.89161,-0.62801 -1.75481,-1.14183 -1.91823,-1.14183 -0.20695,0 -0.29713,1.23908 -0.29713,4.08241 v 4.0824 l 1.84333,0.99563 c 1.01383,0.54759 1.89598,1.13284 1.96033,1.30054 0.0644,0.16771 -0.76514,0.87283 -1.84332,1.56694 l -1.96034,1.26201 v 1.91715 1.91715 l 1.69345,1.09518 c 0.9314,0.60234 1.78461,1.09517 1.89602,1.09517 0.11142,0 1.0622,-0.53578 2.11286,-1.19062 1.05065,-0.65485 2.04291,-1.19063 2.20501,-1.19063 0.19338,0 0.29474,0.76988 0.29474,2.23856 v 2.23856 l 3.22418,2.12707 c 1.7733,1.16988 3.39205,2.12706 3.59721,2.12706 0.31186,0 0.36399,-1.00866 0.31794,-6.15156 -0.0303,-3.38336 -0.0417,-6.39675 -0.0253,-6.69642 0.0208,-0.38099 0.64642,-0.92276 2.08028,-1.80147 1.12778,-0.69114 3.0568,-1.90448 4.28671,-2.69629 1.2299,-0.79182 2.32992,-1.43968 2.44449,-1.43968 0.11457,0 0.23937,4.97086 0.27735,11.04636 l 0.0691,11.04635 3.68318,0.0739 c 2.38247,0.0478 3.78402,-0.0271 3.96875,-0.21202 0.19671,-0.19696 0.28557,-4.37776 0.28557,-13.43537 V 169.6278 l 1.26203,-0.79375 c 0.69412,-0.43657 3.25396,-2.09118 5.68855,-3.67692 2.43458,-1.58574 4.6051,-2.89543 4.82338,-2.91042 0.34436,-0.0237 0.41438,1.33812 0.52917,10.2915 l 0.13229,10.31875 3.68318,0.0739 c 2.02574,0.0406 3.78829,-0.0312 3.91677,-0.15969 0.12915,-0.12915 0.22441,-5.9025 0.21305,-12.91258 l -0.0205,-12.67898 1.52773,-0.91177 c 0.84025,-0.50148 2.23751,-1.39158 3.10503,-1.978 0.86751,-0.58642 2.59392,-1.68964 3.83645,-2.4516 l 2.25916,-1.38539 0.0706,7.06513 c 0.0388,3.88582 0.17793,7.17248 0.30915,7.30369 0.1417,0.1417 1.20201,-0.39188 2.61138,-1.31412 1.30505,-0.85397 3.13047,-2.02034 4.05648,-2.59193 0.92602,-0.57159 2.64427,-1.67292 3.81834,-2.4474 1.17407,-0.77448 2.27539,-1.40814 2.44739,-1.40814 0.2321,0 0.31169,1.65432 0.30868,6.41614 -0.002,3.52888 -0.0915,6.5506 -0.19844,6.71494 -0.10691,0.16433 -1.30105,0.96869 -2.65363,1.78748 -2.47543,1.49849 -6.98794,4.43429 -14.07721,9.15851 -2.11005,1.40612 -4.34248,2.83671 -4.96094,3.1791 -0.61846,0.34238 -1.12448,0.70357 -1.12448,0.80263 0,0.0991 1.23788,1.46381 2.75083,3.03277 1.70739,1.77058 2.89091,2.7989 3.12012,2.71095 0.34606,-0.1328 6.90191,-4.38954 13.63572,-8.85375 1.63361,-1.083 3.09213,-1.89375 3.24115,-1.80166 0.17458,0.10791 0.27093,2.84461 0.27093,7.69577 v 7.52832 l -2.40068,1.51805 c -1.32037,0.83493 -5.46614,3.54211 -9.21281,6.01597 -3.74668,2.47385 -7.96466,5.23645 -9.37329,6.13911 -1.40862,0.90266 -2.56114,1.76079 -2.56114,1.90696 0,0.14617 0.86321,0.9527 1.91823,1.79229 1.05503,0.83958 2.42239,1.9892 3.03858,2.5547 0.62432,0.57295 1.26861,0.95586 1.45521,0.86483 0.18417,-0.0898 4.02088,-2.6548 8.52603,-5.69991 4.50514,-3.04511 8.28537,-5.47835 8.40052,-5.40718 0.11514,0.0712 0.20935,2.49853 0.20935,5.39416 v 5.26477 l -0.91598,0.73088 c -0.50379,0.40198 -2.33958,1.64101 -4.07954,2.7534 -3.39833,2.17262 -4.98472,3.32935 -4.78599,3.48976 1.13991,0.92016 5.8073,3.71491 6.16609,3.69215 0.26709,-0.017 1.11152,-0.5137 1.87652,-1.10389 0.765,-0.59019 1.52874,-1.07307 1.6972,-1.07307 0.2053,0 0.30762,0.67609 0.31034,2.05052 0.002,1.12778 0.10201,2.20494 0.22173,2.39367 0.32254,0.50847 2.754686,2.13912 3.213796,2.15472 0.21828,0.007 1.05172,-0.3799 1.85208,-0.86071 z M 92.779334,150.3899 c -0.0601,-0.18784 -0.15759,-1.32318 -0.21659,-2.523 -0.0903,-1.83582 -0.0334,-2.24834 0.35908,-2.60351 0.75315,-0.6816 4.32269,-2.71004 4.53921,-2.57948 0.10914,0.0658 0.19844,1.23196 0.19844,2.59145 v 2.47179 l -0.8599,0.51172 c -0.47294,0.28144 -1.54637,0.9529 -2.38541,1.49213 -1.06005,0.68127 -1.55887,0.87622 -1.63483,0.6389 z m 16.172486,-0.73526 c -0.69111,-0.43829 -1.36157,-0.79689 -1.48991,-0.79689 -0.12834,0 -0.27303,-0.0936 -0.32154,-0.20799 -0.0485,-0.1144 -0.47514,-0.47969 -0.94809,-0.81177 -0.85881,-0.60301 -0.85989,-0.60668 -0.85989,-2.92291 0,-1.27552 0.0743,-2.39341 0.16505,-2.48419 0.18536,-0.18535 1.32561,0.40198 3.67141,1.8911 l 1.5875,1.00775 v 2.46956 c 0,1.4677 -0.11116,2.50662 -0.27399,2.56089 -0.15069,0.0502 -0.83944,-0.26727 -1.53054,-0.70555 z M 84.959474,137.60708 c -1.23693,-0.7961 -2.24896,-1.56047 -2.24896,-1.6986 0,-0.36253 4.35262,-2.92573 4.96824,-2.92573 0.28498,0 0.90852,0.32743 1.38564,0.72761 0.47712,0.40018 1.35604,1.06274 1.95316,1.47236 0.59712,0.40962 1.08567,0.84419 1.08567,0.96571 0,0.28227 -4.14397,2.922 -4.57282,2.91292 -0.17709,-0.004 -1.334,-0.65817 -2.57093,-1.45427 z m 28.839576,0.0696 c -2.17337,-1.41802 -2.66458,-1.86175 -2.43355,-2.19832 0.26385,-0.38442 4.05716,-2.76022 4.40708,-2.76022 0.38962,0 4.37647,2.8841 4.37647,3.16596 0,0.22719 -4.10121,2.92135 -4.44052,2.91706 -0.10433,-0.001 -0.96359,-0.50733 -1.90948,-1.12448 z m -18.166746,-9.26479 c -0.75115,-0.46922 -1.73341,-1.05595 -2.18282,-1.30384 l -0.81709,-0.45072 v -2.52584 c 0,-1.59144 0.10301,-2.52585 0.27846,-2.52585 0.15315,0 1.28425,0.66236 2.51354,1.47191 l 2.23508,1.47192 v 2.36454 c 0,1.71886 -0.0903,2.3627 -0.33073,2.35777 -0.1819,-0.004 -0.9453,-0.39067 -1.69644,-0.85989 z m 9.965106,-1.58073 5.3e-4,-2.4474 2.21466,-1.38906 c 1.21807,-0.76398 2.33359,-1.38906 2.47894,-1.38906 0.37817,0 0.6937,4.08779 0.3632,4.70533 -0.24459,0.45686 -4.34249,2.96759 -4.84365,2.96759 -0.11776,0 -0.21392,-1.10133 -0.21368,-2.4474 z"
       style="fill:url(#snowflakeGradient);stroke-width:0.264583"
       id="path515" />
  </g>
</svg>
