<?xml version="1.0" encoding="UTF-8" standalone="no"?>
<!-- Created with Inkscape (http://www.inkscape.org/) -->

<svg
   width="1028"
   height="1028"
   viewBox="0 0 271.99165 271.99167"
   version="1.1"
   id="svg1"
   xml:space="preserve"
   inkscape:version="1.3.2 (091e20e, 2023-11-25, custom)"
   sodipodi:docname="zcash_snowflake.svg"
   xmlns:inkscape="http://www.inkscape.org/namespaces/inkscape"
   xmlns:sodipodi="http://sodipodi.sourceforge.net/DTD/sodipodi-0.dtd"
   xmlns:xlink="http://www.w3.org/1999/xlink"
   xmlns="http://www.w3.org/2000/svg"
   xmlns:svg="http://www.w3.org/2000/svg"><sodipodi:namedview
     id="namedview1"
     pagecolor="#ffffff"
     bordercolor="#000000"
     borderopacity="0.25"
     inkscape:showpageshadow="2"
     inkscape:pageopacity="0.0"
     inkscape:pagecheckerboard="0"
     inkscape:deskcolor="#d1d1d1"
     inkscape:document-units="mm"
     inkscape:zoom="0.35355339"
     inkscape:cx="684.47937"
     inkscape:cy="131.52186"
     inkscape:window-width="1920"
     inkscape:window-height="1017"
     inkscape:window-x="-8"
     inkscape:window-y="-8"
     inkscape:window-maximized="1"
     inkscape:current-layer="layer1"
     showguides="true"
     showgrid="false"><sodipodi:guide
       position="428.3206,148.67535"
       orientation="0.70710678,-0.70710678"
       id="guide4"
       inkscape:locked="false" /><sodipodi:guide
       position="589.36554,-4.3775021"
       orientation="0.70710678,-0.70710678"
       id="guide5"
       inkscape:locked="false" /><sodipodi:guide
       position="723.22022,-295.83239"
       orientation="1,0"
       id="guide10"
       inkscape:locked="false" /><sodipodi:guide
       position="924.92136,-260.71127"
       orientation="1,0"
       id="guide11"
       inkscape:locked="false" /><sodipodi:guide
       position="943.36485,-276.99648"
       orientation="0,-1"
       id="guide12"
       inkscape:locked="false" /><sodipodi:guide
       position="904.85924,-297.11794"
       orientation="0,-1"
       id="guide13"
       inkscape:locked="false" /><sodipodi:guide
       position="855.93061,-283.66168"
       orientation="1,0"
       id="guide14"
       inkscape:locked="false" /></sodipodi:namedview><defs
     id="defs1"><linearGradient
       id="linearGradient6"
       inkscape:collect="always"><stop
         style="stop-color:#ffffff;stop-opacity:1;"
         offset="0"
         id="stop6" /><stop
         style="stop-color:#ffffff;stop-opacity:0;"
         offset="1"
         id="stop7" /></linearGradient><clipPath
       clipPathUnits="userSpaceOnUse"
       id="clipPath3"><path
         fill="#000000"
         d="m 126.99853,50.617833 -5.03806,24.616691 -9.54135,-1.952728 v 0 l -20.609316,-4.217923 -3.280601,16.029478 5.573037,0.941751 q 5.533985,1.132592 5.304092,1.284378 7.442248,1.523121 7.259358,8.245559 l -5.74105,28.051591 1.5266,0.31244 -1.5266,-0.31244 -8.045286,39.31036 q -0.581367,1.86924 -1.960662,2.77986 -1.917165,1.59584 -4.588738,1.04907 l -5.533985,-1.1326 -5.343155,-1.09352 -6.685327,17.12204 30.111609,6.36147 -5.077125,24.80752 14.884519,3.04629 5.03805,-24.61671 q 5.87661,1.40154 11.98307,2.65128 l -4.99901,24.42587 14.88451,3.04627 5.07712,-24.80752 q 21.22529,3.15106 32.62795,-1.07631 13.92688,-4.90371 18.85126,-21.19323 3.91786,-13.31439 -0.43558,-22.15817 -3.9372,-7.96331 -14.801,-13.169 16.21683,-4.43503 18.09241,-22.34263 1.20278,-12.67713 -7.81306,-21.083385 -7.49369,-7.100625 -23.44062,-11.756067 l 5.03806,-24.616687 -14.88448,-3.046277 -4.88185,23.853388 -12.06117,-2.269626 4.9209,-24.044206 z m 14.42438,46.096043 q 11.44962,2.343279 17.43002,6.151894 8.79932,5.57845 6.73387,14.6991 -2.03087,9.923 -15.09854,10.6285 -7.26033,0.5023 -20.38835,-2.38331 l -2.48076,-0.50771 6.13161,-29.959835 z m -7.69032,45.347624 q 13.73954,2.81194 20.82587,7.04571 10.66852,6.15982 8.59861,16.27367 -1.60125,7.82391 -9.86365,10.30815 -6.38874,2.07241 -16.88868,0.91758 -5.84196,-0.59915 -15.53509,-2.78179 l -3.05323,-0.62488 6.71742,-32.82224 z"
         id="path3"
         style="fill:#ffffff;fill-opacity:1;stroke:none;stroke-width:1.095;stroke-dasharray:none;stroke-opacity:1" /></clipPath><radialGradient
       inkscape:collect="always"
       xlink:href="#linearGradient6"
       id="radialGradient17"
       cx="-218.67233"
       cy="120.41451"
       fx="-218.67233"
       fy="120.41451"
       r="171.10539"
       gradientTransform="matrix(1,0,0,1.0000503,0,-0.00606056)"
       gradientUnits="userSpaceOnUse" /><clipPath
       clipPathUnits="userSpaceOnUse"
       id="clipPath18"><circle
         style="opacity:1;fill:#000000;fill-opacity:1;stroke-width:4"
         id="circle18"
         cx="-218.67233"
         cy="120.41451"
         r="155.65778" /></clipPath><radialGradient
       inkscape:collect="always"
       xlink:href="#linearGradient1"
       id="radialGradient2-8"
       cx="68.003006"
       cy="67.289055"
       fx="68.003006"
       fy="67.289055"
       r="66.218147"
       gradientUnits="userSpaceOnUse"
       gradientTransform="matrix(1.9752805,-0.34790396,0.34790396,1.9752805,-493.96703,-785.77324)" /><linearGradient
       id="linearGradient1"
       inkscape:collect="always"><stop
         style="stop-color:#ccc3ae;stop-opacity:1;"
         offset="0"
         id="stop1" /><stop
         style="stop-color:#dfb870;stop-opacity:1;"
         offset="0.86939275"
         id="stop8" /><stop
         style="stop-color:#d3b47c;stop-opacity:1;"
         offset="0.9039759"
         id="stop3" /><stop
         style="stop-color:#4d3b1b;stop-opacity:1;"
         offset="0.95686269"
         id="stop15" /></linearGradient><radialGradient
       inkscape:collect="always"
       xlink:href="#linearGradient6"
       id="radialGradient7-1"
       cx="67.73333"
       cy="67.73333"
       fx="67.73333"
       fy="67.73333"
       r="66.218147"
       gradientUnits="userSpaceOnUse"
       gradientTransform="matrix(1.9752805,-0.34790396,0.34790396,1.9752805,-493.58895,-786.74465)" /><radialGradient
       inkscape:collect="always"
       xlink:href="#linearGradient6"
       id="radialGradient18-3"
       gradientUnits="userSpaceOnUse"
       gradientTransform="matrix(0.82754063,-0.01600787,0.01600869,0.82758226,-157.19933,-779.67044)"
       cx="-218.67233"
       cy="120.41451"
       fx="-218.67233"
       fy="120.41451"
       r="171.10539" /><radialGradient
       inkscape:collect="always"
       xlink:href="#linearGradient48"
       id="radialGradient61-7"
       gradientUnits="userSpaceOnUse"
       cx="11.999935"
       cy="11.999999"
       fx="11.999935"
       fy="11.999999"
       r="9.7761574"
       gradientTransform="matrix(13.403233,2.2171242,-2.2171242,13.403233,-472.65252,-864.38789)" /><linearGradient
       id="linearGradient48"
       inkscape:collect="always"><stop
         style="stop-color:#ffffff;stop-opacity:1;"
         offset="0.48478702"
         id="stop48" /><stop
         style="stop-color:#ffffff;stop-opacity:0;"
         offset="1"
         id="stop49" /></linearGradient><filter
       inkscape:collect="always"
       style="color-interpolation-filters:sRGB"
       id="filter4-1"
       x="-0.098869937"
       y="-0.067129158"
       width="1.1977399"
       height="1.1342583"><feGaussianBlur
         inkscape:collect="always"
         stdDeviation="4.6878982"
         id="feGaussianBlur4-9" /></filter></defs><g
     inkscape:label="Layer 1"
     inkscape:groupmode="layer"
     id="layer1"
     style="display:inline"><g
       id="g14"
       style="opacity:0.78649;fill:url(#radialGradient17)"
       transform="matrix(0.82444293,0,0,0.82444293,317.34512,37.264576)"
       clip-path="url(#clipPath18)" /><g
       id="g16"
       transform="rotate(180,1373.3552,590.61845)" /><path
       id="path20-6-9-0-4-2"
       style="fill:#ffffff;fill-opacity:1;stroke:none;stroke-width:13.532;stroke-linecap:round;stroke-opacity:1"
       d="m 937.40576,816.89978 c 2.60166,-0.0552 5.18222,-1.10504 7.12256,-3.13572 3.87427,-4.05003 3.73232,-10.47378 -0.31729,-14.34848 l -23.76548,-22.77122 29.63179,-0.63407 c 5.59776,-0.11654 10.04368,-4.74459 9.93583,-10.34252 -0.10939,-5.6122 -4.75383,-10.06965 -10.36578,-9.94875 l -29.61938,0.61133 22.78207,-23.72982 c 3.87462,-4.04996 3.73244,-10.47413 -0.31729,-14.34899 -4.04217,-3.87205 -10.45625,-3.74066 -14.33608,0.29404 l -36.81325,38.39662 c -11.70572,0.27684 -15.50323,0.55987 -27.2092,0.82579 l 14.9133,-15.8812 c 3.87426,-4.05002 3.73231,-10.47377 -0.31729,-14.34848 -4.04217,-3.87204 -10.45625,-3.74066 -14.33607,0.29404 l -31.90503,30.54439 -53.37039,1.02629 v 20.30574 l 53.76106,-1.02784 31.74793,30.54697 c 4.04936,3.89342 10.49095,3.75709 14.37174,-0.30438 3.87474,-4.05009 3.73276,-10.47472 -0.3173,-14.34951 l -14.98565,-16.49253 18.69292,-0.63407 0.0868,-0.009 9.26093,-0.19533 38.41936,36.82566 c 2.0247,1.94658 4.64751,2.88601 7.24917,2.83083 z" /><g
       id="g10"
       style="display:inline"
       transform="translate(472.22731,812.51222)"><path
         id="path1-7"
         style="display:inline;fill:url(#radialGradient2-8);stroke:url(#radialGradient7-1);stroke-width:1.09073"
         d="m -205.43251,-699.55462 a 132.8127,132.8127 0 0 1 -107.76189,153.83698 132.8127,132.8127 0 0 1 -153.83694,-107.76187 132.8127,132.8127 0 0 1 107.76183,-153.83695 132.8127,132.8127 0 0 1 153.837,107.76184 z" /><circle
         style="display:inline;fill:none;stroke:#ffffff;stroke-width:4.35164;stroke-dasharray:none;stroke-opacity:1"
         id="path2-9-0"
         cx="-213.78711"
         cy="-724.58429"
         r="130.67538"
         transform="rotate(-9.9889918)" /><path
         id="path20-6-9-0-4-4"
         style="display:inline;opacity:0.501809;fill:url(#radialGradient18-3);fill-opacity:1;stroke:none;stroke-width:11.2004;stroke-linecap:round;stroke-opacity:1"
         d="m -336.08614,-818.17513 c -4.64602,0.002 -8.39457,3.85451 -8.38352,8.5005 l 0.0235,24.0575 -19.82453,-18.84672 c -3.29014,-3.27061 -8.60861,-3.2551 -11.87939,0.0347 -3.26841,3.28372 -3.2613,8.59405 0.0161,11.86869 l 31.57892,31.10262 c 0.0991,4.5238 -0.0973,12.75894 -0.0349,22.45738 l -13.82108,-11.41511 c -3.29004,-3.27026 -8.60817,-3.25452 -11.87897,0.0352 -0.34903,0.3506 -0.65293,0.72807 -0.92721,1.11994 -0.0132,0.0186 -0.0269,0.0363 -0.0401,0.0551 -0.17537,0.25491 -0.30343,0.52891 -0.4475,0.79752 -0.12726,0.235 -0.26642,0.46085 -0.37134,0.7088 -0.0972,0.23222 -0.15632,0.47323 -0.23175,0.71163 -0.0931,0.28989 -0.19662,0.5736 -0.25815,0.87642 -0.0419,0.20891 -0.0471,0.42062 -0.0729,0.63157 -0.0389,0.30862 -0.10202,0.60953 -0.10658,0.92783 l -1.54645,18.37927 c -0.79115,-0.78431 -8.68076,-8.94297 -16.17027,-16.66117 l 0.51198,-43.90253 c 0.0382,-2.32443 -0.87111,-4.44355 -2.37123,-5.98915 l 8.3e-4,-3e-5 c -1.50015,-1.54555 -3.59122,-2.51754 -5.91577,-2.54865 -4.63845,-0.0646 -8.45118,3.64268 -8.51651,8.28102 l -0.4134,26.77267 -16.74732,-17.45127 c -3.22632,-3.32666 -8.47377,-3.47326 -11.80538,-0.25207 -3.33945,3.2302 -3.35675,8.60567 -0.11986,11.93845 l 16.73713,17.28122 -27.35276,0.22751 c -4.63871,-0.0649 -8.45169,3.64286 -8.51694,8.28147 -0.0678,4.63255 3.62789,8.44535 8.26019,8.52206 l 44.32164,0.41536 c 3.21519,3.18389 8.79783,9.24137 15.58325,16.17113 l -17.871,1.39809 c -2.43479,-0.034 -4.62389,0.98802 -6.18109,2.62179 -0.006,0.006 -0.0118,0.009 -0.0173,0.0148 -0.0195,0.0207 -0.032,0.0453 -0.0513,0.0662 -0.34588,0.37211 -0.6589,0.77006 -0.93336,1.20049 -0.0689,0.10729 -0.12143,0.22 -0.18487,0.32957 -0.20336,0.35289 -0.39114,0.71192 -0.54225,1.09496 -0.0697,0.17506 -0.11634,0.35416 -0.17365,0.53256 -0.10396,0.32603 -0.2043,0.65082 -0.26829,0.993 -0.0502,0.26351 -0.0667,0.52819 -0.0916,0.79447 -0.0191,0.21287 -0.0698,0.41603 -0.0729,0.63328 -8.9e-4,0.0597 0.0141,0.11529 0.0149,0.17467 0.001,0.33354 0.0447,0.66249 0.0849,0.99387 0.0265,0.2101 0.0344,0.42445 0.0759,0.62953 0.075,0.37356 0.19738,0.73509 0.32294,1.09749 0.0502,0.14353 0.0823,0.29424 0.14014,0.43406 0.16514,0.40401 0.38048,0.78779 0.61084,1.16678 0.049,0.0802 0.0852,0.16765 0.13696,0.2459 0.23364,0.3566 0.51472,0.68638 0.80792,1.01111 0.076,0.0838 0.14088,0.1761 0.2202,0.2567 0.0692,0.0708 0.11855,0.15334 0.19081,0.22218 l 12.43238,13.6242 c -1.11262,0.0474 -12.45981,0.29101 -23.21156,0.54059 l -31.85976,-30.20993 c -1.67925,-1.60764 -3.85196,-2.38067 -6.00525,-2.33046 l 4.3e-4,-4.2e-4 c -2.15328,0.0507 -4.28763,0.9239 -5.89004,2.60802 -3.19959,3.35898 -3.07068,8.67548 0.28793,11.87539 l 19.35998,18.49719 -24.18318,0.42629 c -4.63302,0.10623 -8.30656,3.85665 -8.20747,8.48983 0.10035,4.64496 4.0323,8.31075 8.67706,8.20083 l 24.05147,-0.53485 -18.42109,20.22094 c -3.19989,3.35893 -3.07082,8.67574 0.28794,11.87584 3.35247,3.19779 8.66084,3.07783 11.86507,-0.26844 l 30.42431,-32.23314 c 4.52066,-0.19511 12.75793,-0.17423 22.45281,-0.44289 l -11.11823,14.0605 c -0.2366,0.24835 -0.44909,0.51024 -0.64937,0.77834 -0.10151,0.13647 -0.1977,0.27405 -0.29096,0.41673 -0.0969,0.14768 -0.16979,0.30421 -0.25642,0.4563 -0.18934,0.33342 -0.36744,0.67052 -0.51055,1.03063 -0.0749,0.1879 -0.12569,0.37999 -0.18655,0.57173 -0.10061,0.31792 -0.199,0.63393 -0.26152,0.96718 -0.0491,0.25882 -0.0647,0.51884 -0.0893,0.78033 -0.0205,0.22145 -0.0724,0.43321 -0.0753,0.65941 -8.5e-4,0.0615 0.0149,0.11861 0.0154,0.1798 0.002,0.29999 0.044,0.59558 0.0777,0.89389 0.0284,0.24826 0.0396,0.50008 0.0891,0.74138 0.0618,0.30309 0.16794,0.59481 0.26323,0.89072 0.071,0.21743 0.12257,0.44202 0.21016,0.65136 0.12788,0.30769 0.30103,0.59668 0.46681,0.89022 0.10071,0.17678 0.18375,0.36304 0.29657,0.5316 0.27665,0.41544 0.58956,0.81149 0.94773,1.18206 0.006,0.006 0.0131,0.0138 0.0197,0.0206 0.0749,0.0769 0.1426,0.15844 0.22092,0.23315 0.63829,0.60881 1.36161,1.05886 2.11364,1.42778 0.13868,0.068 0.27012,0.14508 0.41293,0.20548 0.39399,0.16697 0.7971,0.28936 1.20715,0.39333 0.11372,0.0287 0.2221,0.0673 0.33764,0.0913 0.48684,0.10208 0.97746,0.15467 1.47231,0.1696 0.0448,0.002 0.0861,0.0143 0.13083,0.0151 l 18.37922,1.54692 c -0.7843,0.79118 -8.9434,8.68037 -16.66111,16.16984 l -43.90258,-0.51165 c -2.32439,-0.0382 -4.44351,0.87111 -5.98916,2.37121 l -2e-5,-8.3e-4 c -1.54555,1.5001 -2.51752,3.59133 -2.54862,5.91579 -0.0646,4.63851 3.64268,8.45124 8.28101,8.51652 l 26.77271,0.41343 -17.45132,16.74683 c -3.3266,3.22635 -3.47325,8.47418 -0.25205,11.80583 3.2302,3.33942 8.60604,3.35688 11.93887,0.11987 l 17.2808,-16.73711 0.22753,27.35276 c -0.0649,4.63869 3.64284,8.4517 8.28148,8.51694 4.63206,0.0678 8.44534,-3.62781 8.52206,-8.26017 l 0.41528,-44.32206 c 3.18389,-3.21523 9.24141,-8.79754 16.17121,-15.58283 l 1.39806,17.87055 c -5.9e-4,0.0157 0.004,0.0298 0.004,0.0454 -0.005,0.51277 0.0439,1.02376 0.13274,1.53024 0.007,0.0412 0.005,0.0854 0.0124,0.12639 0.19711,1.0323 0.59668,2.03048 1.183,2.94393 0.0148,0.0227 0.0232,0.0491 0.038,0.0716 0.15121,0.23057 0.34853,0.43628 0.52476,0.65423 0.17293,0.21383 0.32979,0.44006 0.52267,0.63588 0.0224,0.0227 0.0369,0.0498 0.0596,0.0725 0.18393,0.18281 0.39481,0.31739 0.59067,0.47967 0.20454,0.16952 0.39697,0.35117 0.61716,0.50101 0.27039,0.18406 0.55755,0.3241 0.84297,0.4731 0.19763,0.10344 0.3847,0.22118 0.59119,0.30899 0.32403,0.13749 0.65852,0.2289 0.99413,0.32386 0.18981,0.054 0.37067,0.12551 0.56575,0.16616 0.41777,0.0871 0.8404,0.12237 1.26486,0.14538 0.11453,0.007 0.22169,0.0372 0.33737,0.0388 0.0143,1.6e-4 0.0276,-0.004 0.0421,-0.003 0.50822,0.005 1.01491,-0.0434 1.51699,-0.13029 0.0468,-0.009 0.0969,-0.006 0.14353,-0.0143 0.8983,-0.1716 1.76055,-0.51996 2.57463,-0.98634 0.14607,-0.0837 0.30592,-0.14458 0.44634,-0.2367 0.17478,-0.11485 0.32903,-0.26797 0.49664,-0.39721 0.27318,-0.21027 0.55163,-0.4128 0.7968,-0.65456 0.0185,-0.0181 0.0406,-0.0302 0.059,-0.0487 l 13.88574,-12.14013 c 0.0213,1.11378 0.0262,12.46348 0.047,23.21813 l -30.88091,31.2101 c -1.64301,1.64465 -2.46204,3.80028 -2.45762,5.95423 l -4.3e-4,-4.4e-4 c 0.004,2.15389 0.8323,4.30588 2.48198,5.94383 3.2902,3.27015 8.60834,3.25447 11.87904,-0.0351 l 18.90441,-18.96186 -0.088,24.1867 c 0.008,4.63419 3.67893,8.38683 8.31314,8.38628 4.64605,-0.002 8.3945,-3.85498 8.38347,-8.50091 l -0.0234,-24.05752 19.82446,18.84716 c 3.29014,3.27055 8.60867,3.25463 11.87944,-0.0351 3.26842,-3.28372 3.26173,-8.59362 -0.0157,-11.86828 l -31.5789,-31.10262 c -0.099,-4.52382 0.0972,-12.75897 0.0348,-22.45737 l 13.82077,11.41511 c 0.30207,0.3003 0.62612,0.56307 0.95935,0.80795 0.0887,0.0651 0.17384,0.13219 0.2651,0.1938 0.16374,0.11075 0.34051,0.18869 0.50998,0.28662 0.31193,0.18036 0.6219,0.36067 0.95762,0.50039 0.21108,0.0879 0.43006,0.14049 0.64624,0.2104 0.29983,0.097 0.59412,0.20281 0.90785,0.26607 0.29039,0.0589 0.58437,0.0726 0.87845,0.10065 0.22665,0.0213 0.44362,0.0746 0.6753,0.0776 0.0281,2.5e-4 0.054,-0.008 0.0819,-0.007 0.34258,0.002 0.68177,-0.0486 1.02249,-0.0886 0.20821,-0.0247 0.42384,-0.0221 0.62722,-0.0617 0.29568,-0.0581 0.58039,-0.16776 0.86988,-0.25726 0.22927,-0.0714 0.46936,-0.11659 0.6899,-0.20677 0.22856,-0.0935 0.44001,-0.23293 0.66153,-0.34691 0.26079,-0.13509 0.53291,-0.25129 0.77699,-0.41204 0.41992,-0.27611 0.81771,-0.59691 1.19307,-0.95612 0.023,-0.0221 0.0478,-0.0421 0.0705,-0.0646 0.0277,-0.0271 0.0579,-0.0498 0.0854,-0.0774 0.338,-0.33956 0.63218,-0.7051 0.9001,-1.08349 0.0178,-0.0252 0.0371,-0.0489 0.0545,-0.0743 0.19563,-0.28284 0.34049,-0.58655 0.49753,-0.8862 0.10412,-0.19858 0.22267,-0.38661 0.31103,-0.59424 0.14388,-0.33795 0.24053,-0.687 0.33799,-1.03754 0.0481,-0.17247 0.11428,-0.33605 0.15142,-0.51286 0.0995,-0.47259 0.14685,-0.95094 0.16437,-1.43163 0.002,-0.0624 0.0199,-0.12027 0.0206,-0.18306 l 1.54695,-18.37925 c 0.79113,0.78431 8.68073,8.943 16.17025,16.66116 l -0.51201,43.90254 c -0.0382,2.32444 0.87113,4.44351 2.37127,5.98915 l -8.4e-4,10e-6 c 1.50016,1.54556 3.59125,2.51754 5.91577,2.54865 4.63848,0.0646 8.45118,-3.64265 8.51652,-8.28104 l 0.41345,-26.77266 16.74689,17.45128 c 3.22631,3.32665 8.47418,3.47327 11.8058,0.25205 3.33941,-3.23022 3.35628,-8.60607 0.11988,-11.9389 l -16.73716,-17.2812 27.35276,-0.22709 c 4.63869,0.0649 8.45165,-3.64282 8.51689,-8.28144 0.0678,-4.6325 -3.62781,-8.44535 -8.26012,-8.52206 l -44.32162,-0.41537 c -3.21521,-3.18383 -8.79786,-9.24131 -15.58327,-16.17114 l 17.87059,-1.39808 c 2.11315,0.0295 4.03224,-0.75121 5.52665,-2.01919 0.0253,-0.0211 0.0517,-0.0396 0.0766,-0.0608 0.21313,-0.18513 0.41725,-0.3749 0.6108,-0.58037 6.1e-4,-7.2e-4 0.002,-9.9e-4 0.003,-0.002 0.21566,-0.2264 0.41349,-0.46296 0.59895,-0.70592 0.12212,-0.16228 0.23715,-0.32666 0.34759,-0.49782 0.0917,-0.14004 0.16033,-0.2885 0.24271,-0.43251 0.18316,-0.32453 0.35679,-0.65159 0.49616,-1.00124 0.0999,-0.24629 0.16917,-0.49806 0.24474,-0.75083 0.0713,-0.24351 0.14914,-0.48185 0.19839,-0.73411 0.0818,-0.40343 0.11829,-0.80921 0.14028,-1.21852 0.004,-0.0945 0.0305,-0.18254 0.0318,-0.27782 2.9e-4,-0.0264 -0.007,-0.0506 -0.005,-0.077 0.0261,-2.25092 -0.82371,-4.50543 -2.582,-6.18058 l -12.43246,-13.62462 c 1.11305,-0.0474 12.45982,-0.29101 23.21158,-0.54058 l 31.86022,30.20992 c 1.67926,1.60762 3.8516,2.38067 6.00487,2.33044 l -4e-4,8.4e-4 c 2.15324,-0.0507 4.28761,-0.92348 5.88996,-2.60803 3.19955,-3.35895 3.07063,-8.67586 -0.28784,-11.8758 l -19.35961,-18.49679 24.1832,-0.42629 c 4.63298,-0.10623 8.30655,-3.85663 8.2075,-8.4898 -0.10066,-4.645 -4.03229,-8.31075 -8.67706,-8.20083 l -24.05187,0.53496 18.42106,-20.22097 c 3.19984,-3.35891 3.07115,-8.67617 -0.28755,-11.87625 -3.35248,-3.19778 -8.66131,-3.07741 -11.86551,0.26885 l -30.42385,32.23314 c -4.5207,0.1951 -12.75845,0.17424 -22.45333,0.4429 l 11.11874,-14.06052 c 0.23739,-0.24924 0.45021,-0.5122 0.65096,-0.78135 0.0998,-0.13422 0.19466,-0.26919 0.28648,-0.40939 0.0999,-0.1522 0.17514,-0.31364 0.26423,-0.47056 0.18653,-0.32934 0.36256,-0.6619 0.50395,-1.01722 0.0765,-0.19169 0.12835,-0.38768 0.19022,-0.58334 0.0993,-0.31509 0.19672,-0.62806 0.25862,-0.95817 0.0494,-0.25937 0.065,-0.51998 0.0898,-0.78204 0.0205,-0.22132 0.0723,-0.43293 0.0753,-0.65899 8.5e-4,-0.0615 -0.0149,-0.11862 -0.0154,-0.17982 -0.002,-0.30198 -0.0442,-0.59961 -0.0781,-0.89987 -0.0284,-0.24532 -0.0392,-0.49433 -0.0881,-0.73284 -0.0621,-0.30592 -0.16883,-0.60023 -0.26519,-0.89885 -0.0706,-0.21556 -0.12175,-0.43851 -0.2088,-0.6462 -0.12778,-0.30761 -0.30111,-0.59636 -0.46689,-0.88978 -0.10041,-0.17663 -0.18335,-0.36281 -0.29609,-0.53116 -0.27701,-0.41589 -0.59042,-0.81284 -0.9491,-1.18378 -0.005,-0.007 -0.0117,-0.0127 -0.0179,-0.0191 -0.0752,-0.0773 -0.14328,-0.15868 -0.22193,-0.23356 -0.63685,-0.60746 -1.35815,-1.05624 -2.10837,-1.42487 -0.14099,-0.0692 -0.27493,-0.14734 -0.42026,-0.20877 -0.39432,-0.16696 -0.79764,-0.28987 -1.20808,-0.39374 -0.11195,-0.0283 -0.21869,-0.0665 -0.33239,-0.0902 -0.48844,-0.10252 -0.98061,-0.15509 -1.47711,-0.16992 -0.0438,-0.002 -0.0844,-0.0141 -0.12815,-0.0145 l -18.37924,-1.54692 c 0.78432,-0.79119 8.94291,-8.68075 16.66111,-16.17027 l 43.90237,0.51114 c 2.32443,0.0381 4.4435,-0.87112 5.98915,-2.37123 l 2e-5,8.3e-4 c 1.54538,-1.50014 2.51713,-3.59126 2.54818,-5.91578 0.0646,-4.63848 -3.64269,-8.45125 -8.28107,-8.51651 l -26.77271,-0.41375 17.45175,-16.74685 c 3.32655,-3.22634 3.4729,-8.47419 0.2516,-11.80583 -3.2302,-3.33946 -8.60561,-3.35686 -11.93842,-0.11986 l -17.28122,16.73712 -0.22711,-27.35278 c 0.0649,-4.63868 -3.64285,-8.4517 -8.28148,-8.51696 -4.63256,-0.0678 -8.44575,3.62786 -8.52248,8.2602 l -0.41495,44.32162 c -3.18374,3.21522 -9.24174,8.79793 -16.17154,15.58327 l -1.39804,-17.87055 c 5.8e-4,-0.0157 -0.003,-0.0302 -0.004,-0.0453 0.005,-0.51378 -0.0441,-1.02575 -0.13322,-1.53322 -0.008,-0.0404 -0.004,-0.0833 -0.0123,-0.12341 -0.19969,-1.04641 -0.60368,-2.05938 -1.20336,-2.9829 -0.007,-0.01 -0.0104,-0.0214 -0.0168,-0.0312 l -4.2e-4,-4.1e-4 c -0.15325,-0.23379 -0.35278,-0.4427 -0.53173,-0.66351 -0.17107,-0.21096 -0.32613,-0.4345 -0.51657,-0.62785 -0.0223,-0.0228 -0.0369,-0.0498 -0.0597,-0.0725 -0.18586,-0.1848 -0.39902,-0.32087 -0.59716,-0.48469 -0.20207,-0.16712 -0.39157,-0.34678 -0.60893,-0.49474 -0.27431,-0.18687 -0.56566,-0.32937 -0.8555,-0.48014 -0.19336,-0.10088 -0.37631,-0.21605 -0.57822,-0.30197 -0.32889,-0.13968 -0.66837,-0.2333 -1.00916,-0.32913 -0.18478,-0.0522 -0.36089,-0.12171 -0.55065,-0.16132 -0.42483,-0.0888 -0.85462,-0.12554 -1.28628,-0.14796 -0.1081,-0.005 -0.20905,-0.0351 -0.31818,-0.0366 -0.0133,-3.5e-4 -0.0258,0.004 -0.0395,0.003 -0.52114,-0.005 -1.04093,0.0425 -1.5555,0.134 -0.0339,0.007 -0.0707,0.003 -0.1046,0.0109 -0.53643,0.102 -1.06413,0.25564 -1.57604,0.46299 -0.34753,0.1408 -0.67463,0.33681 -1.00461,0.52596 -0.14458,0.0829 -0.30295,0.14327 -0.44208,0.23444 -0.1755,0.11529 -0.33041,0.26874 -0.49876,0.39852 -0.27312,0.21032 -0.55166,0.41277 -0.79673,0.65454 -0.0184,0.0181 -0.0402,0.0296 -0.0582,0.0478 l -13.88513,12.13957 c -0.0213,-1.11379 -0.0262,-12.46303 -0.0469,-23.21769 l 30.8809,-31.21012 c 1.64302,-1.64469 2.46203,-3.80028 2.4576,-5.95422 l 4.3e-4,4.1e-4 c -0.004,-2.15386 -0.83229,-4.30585 -2.48204,-5.9438 -3.28998,-3.27021 -8.60828,-3.25486 -11.87898,0.0347 l -18.90448,18.96232 0.088,-24.18672 c -0.007,-4.63379 -3.67836,-8.38644 -8.31256,-8.38591 z m -20.19015,93.75182 11.58769,11.66281 8.4e-4,17.20453 -11.86782,-12.27854 z m 39.40687,0.6482 -0.31213,15.44374 -10.69865,10.34291 4.2e-4,-14.77336 z m -66.5831,27.32451 14.81248,0.29915 9.4406,9.76509 -13.45017,0.28583 z m 77.95399,0.20376 17.11218,0.28802 -11.78746,12.22062 -18.67787,0.39844 z m -48.11478,26.55275 -13.35316,12.90715 -17.11177,-0.28845 11.78747,-12.2202 z m 53.79834,2.76076 10.83041,10.37651 -14.85744,-0.30042 -9.46418,-9.78943 z m -27.96226,9.4987 11.85078,12.2609 -0.2789,16.54641 -11.57105,-11.64643 z m -16.80755,2.38968 -4e-4,14.77293 -11.00998,11.01286 0.31214,-15.44331 z" /><g
         id="g1"
         transform="rotate(0.40824751,-336.93206,-259.46518)"><path
           style="display:inline;opacity:0.516949;fill:url(#radialGradient61-7);fill-opacity:1;stroke:none;stroke-width:13.5854;stroke-linecap:round;stroke-opacity:1"
           d="m -443.40947,-763.15493 41.99602,34.48684 m 0,0 125.98786,103.46017 m -125.98786,-103.46017 -5.63186,-57.36211 m 5.63186,57.36211 -57.3621,5.63186 m 183.34996,97.82831 41.99589,34.48681 m -41.99589,-34.48681 57.3624,-5.6321 m -57.3624,5.6321 5.63208,57.36241"
           id="path19-1" /><path
           id="path2-3-1"
           style="display:inline;opacity:0.517491;fill:#4d3805;fill-opacity:1;stroke-width:1.38282;filter:url(#filter4-1)"
           d="m -135.53092,-540.83059 -2.09677,10.89917 -2.09596,10.89861 -17.66632,-3.05206 -17.66631,-3.05206 -2.33382,12.95704 -2.33378,12.95706 27.12513,4.88573 c 14.91903,2.68721 27.09149,5.04698 27.049,5.24378 -0.0426,0.19683 -15.24611,14.68928 -33.7863,32.20534 l -33.70949,31.84742 -1.8129,9.95194 -1.81223,9.95279 17.62097,3.30383 17.62097,3.30383 -1.7954,10.70585 -1.79461,10.70528 10.79309,1.94405 10.79309,1.94402 1.94568,-10.80222 1.94568,-10.80222 17.52338,3.15627 17.52408,3.15642 2.33482,-12.96268 2.334807,-12.96268 -27.125817,-4.88586 c -14.91906,-2.6872 -27.10622,-4.99473 -27.08213,-5.12849 0.0241,-0.13385 15.23373,-14.60664 33.79878,-32.16171 l 33.754947,-31.91835 1.80153,-10.00193 1.80165,-10.0026 -17.524077,-3.15641 -17.52337,-3.1563 1.98899,-11.04273 1.98887,-11.04206 -10.79308,-1.94403 z"
           sodipodi:nodetypes="cccccccscscccccccccccccccsssccccccccc"
           transform="rotate(-9.9889918,-1486.6212,574.90505)" /><path
           id="path2-8"
           style="display:inline;fill:#ffffff;fill-opacity:1;stroke-width:1.38282"
           d="m -349.57914,-758.22549 -0.17443,11.09766 -0.17372,11.09695 -17.92793,0.0586 -17.9279,0.0586 -0.0509,13.16546 -0.0509,13.16546 27.5614,0.10656 c 15.15899,0.0586 27.55626,0.27122 27.54855,0.4724 -0.008,0.20124 -12.46701,17.11119 -27.68783,37.57769 l -27.67426,37.21186 -0.0592,10.11554 -0.0583,10.11627 17.92693,0.19723 17.92692,0.19724 0.0888,10.85498 0.0895,10.8543 10.96669,0.0424 10.96668,0.0424 0.0425,-10.97597 0.0424,-10.97596 17.80523,0.0688 17.80594,0.0689 0.0509,-13.17118 0.0509,-13.17117 -27.56212,-0.10658 c -15.15902,-0.0586 -27.5617,-0.2172 -27.56118,-0.35311 5.2e-4,-0.136 12.46915,-17.02764 27.70769,-37.53687 l 27.70674,-37.28961 0.0393,-10.1628 0.0393,-10.16348 -17.80594,-0.0689 -17.80522,-0.0688 0.0434,-11.22036 0.0434,-11.21966 -10.96668,-0.0424 z"
           sodipodi:nodetypes="cccccccscscccccccccccccccsssccccccccc" /></g></g></g></svg>
