<?xml version="1.0" encoding="UTF-8" standalone="no"?>
<!-- Created with Inkscape (http://www.inkscape.org/) -->

<svg
   width="1028"
   height="1028"
   viewBox="0 0 271.99165 271.99167"
   version="1.1"
   id="svg1"
   xml:space="preserve"
   inkscape:version="1.3.2 (091e20e, 2023-11-25, custom)"
   sodipodi:docname="zcash_empty.svg"
   xmlns:inkscape="http://www.inkscape.org/namespaces/inkscape"
   xmlns:sodipodi="http://sodipodi.sourceforge.net/DTD/sodipodi-0.dtd"
   xmlns:xlink="http://www.w3.org/1999/xlink"
   xmlns="http://www.w3.org/2000/svg"
   xmlns:svg="http://www.w3.org/2000/svg"><sodipodi:namedview
     id="namedview1"
     pagecolor="#ffffff"
     bordercolor="#000000"
     borderopacity="0.25"
     inkscape:showpageshadow="2"
     inkscape:pageopacity="0.0"
     inkscape:pagecheckerboard="0"
     inkscape:deskcolor="#d1d1d1"
     inkscape:document-units="mm"
     inkscape:zoom="0.35355339"
     inkscape:cx="684.47937"
     inkscape:cy="131.52186"
     inkscape:window-width="1920"
     inkscape:window-height="1017"
     inkscape:window-x="-8"
     inkscape:window-y="-8"
     inkscape:window-maximized="1"
     inkscape:current-layer="layer1"
     showguides="true"
     showgrid="false"><sodipodi:guide
       position="428.3206,148.67535"
       orientation="0.70710678,-0.70710678"
       id="guide4"
       inkscape:locked="false" /><sodipodi:guide
       position="589.36554,-4.3775021"
       orientation="0.70710678,-0.70710678"
       id="guide5"
       inkscape:locked="false" /><sodipodi:guide
       position="723.22022,-295.83239"
       orientation="1,0"
       id="guide10"
       inkscape:locked="false" /><sodipodi:guide
       position="924.92136,-260.71127"
       orientation="1,0"
       id="guide11"
       inkscape:locked="false" /><sodipodi:guide
       position="943.36485,-276.99648"
       orientation="0,-1"
       id="guide12"
       inkscape:locked="false" /><sodipodi:guide
       position="904.85924,-297.11794"
       orientation="0,-1"
       id="guide13"
       inkscape:locked="false" /><sodipodi:guide
       position="855.93061,-283.66168"
       orientation="1,0"
       id="guide14"
       inkscape:locked="false" /></sodipodi:namedview><defs
     id="defs1"><linearGradient
       id="linearGradient6"
       inkscape:collect="always"><stop
         style="stop-color:#ffffff;stop-opacity:1;"
         offset="0"
         id="stop6" /><stop
         style="stop-color:#ffffff;stop-opacity:0;"
         offset="1"
         id="stop7" /></linearGradient><clipPath
       clipPathUnits="userSpaceOnUse"
       id="clipPath3"><path
         fill="#000000"
         d="m 126.99853,50.617833 -5.03806,24.616691 -9.54135,-1.952728 v 0 l -20.609316,-4.217923 -3.280601,16.029478 5.573037,0.941751 q 5.533985,1.132592 5.304092,1.284378 7.442248,1.523121 7.259358,8.245559 l -5.74105,28.051591 1.5266,0.31244 -1.5266,-0.31244 -8.045286,39.31036 q -0.581367,1.86924 -1.960662,2.77986 -1.917165,1.59584 -4.588738,1.04907 l -5.533985,-1.1326 -5.343155,-1.09352 -6.685327,17.12204 30.111609,6.36147 -5.077125,24.80752 14.884519,3.04629 5.03805,-24.61671 q 5.87661,1.40154 11.98307,2.65128 l -4.99901,24.42587 14.88451,3.04627 5.07712,-24.80752 q 21.22529,3.15106 32.62795,-1.07631 13.92688,-4.90371 18.85126,-21.19323 3.91786,-13.31439 -0.43558,-22.15817 -3.9372,-7.96331 -14.801,-13.169 16.21683,-4.43503 18.09241,-22.34263 1.20278,-12.67713 -7.81306,-21.083385 -7.49369,-7.100625 -23.44062,-11.756067 l 5.03806,-24.616687 -14.88448,-3.046277 -4.88185,23.853388 -12.06117,-2.269626 4.9209,-24.044206 z m 14.42438,46.096043 q 11.44962,2.343279 17.43002,6.151894 8.79932,5.57845 6.73387,14.6991 -2.03087,9.923 -15.09854,10.6285 -7.26033,0.5023 -20.38835,-2.38331 l -2.48076,-0.50771 6.13161,-29.959835 z m -7.69032,45.347624 q 13.73954,2.81194 20.82587,7.04571 10.66852,6.15982 8.59861,16.27367 -1.60125,7.82391 -9.86365,10.30815 -6.38874,2.07241 -16.88868,0.91758 -5.84196,-0.59915 -15.53509,-2.78179 l -3.05323,-0.62488 6.71742,-32.82224 z"
         id="path3"
         style="fill:#ffffff;fill-opacity:1;stroke:none;stroke-width:1.095;stroke-dasharray:none;stroke-opacity:1" /></clipPath><radialGradient
       inkscape:collect="always"
       xlink:href="#linearGradient6"
       id="radialGradient17"
       cx="-218.67233"
       cy="120.41451"
       fx="-218.67233"
       fy="120.41451"
       r="171.10539"
       gradientTransform="matrix(1,0,0,1.0000503,0,-0.00606056)"
       gradientUnits="userSpaceOnUse" /><clipPath
       clipPathUnits="userSpaceOnUse"
       id="clipPath18"><circle
         style="opacity:1;fill:#000000;fill-opacity:1;stroke-width:4"
         id="circle18"
         cx="-218.67233"
         cy="120.41451"
         r="155.65778" /></clipPath><radialGradient
       inkscape:collect="always"
       xlink:href="#linearGradient1"
       id="radialGradient2-8"
       cx="68.003006"
       cy="67.289055"
       fx="68.003006"
       fy="67.289055"
       r="66.218147"
       gradientUnits="userSpaceOnUse"
       gradientTransform="matrix(1.9752805,-0.34790396,0.34790396,1.9752805,-493.96703,-785.77324)" /><linearGradient
       id="linearGradient1"
       inkscape:collect="always"><stop
         style="stop-color:#ccc3ae;stop-opacity:1;"
         offset="0"
         id="stop1" /><stop
         style="stop-color:#dfb870;stop-opacity:1;"
         offset="0.86939275"
         id="stop8" /><stop
         style="stop-color:#d3b47c;stop-opacity:1;"
         offset="0.9039759"
         id="stop3" /><stop
         style="stop-color:#4d3b1b;stop-opacity:1;"
         offset="0.95686269"
         id="stop15" /></linearGradient><radialGradient
       inkscape:collect="always"
       xlink:href="#linearGradient6"
       id="radialGradient7-1"
       cx="67.73333"
       cy="67.73333"
       fx="67.73333"
       fy="67.73333"
       r="66.218147"
       gradientUnits="userSpaceOnUse"
       gradientTransform="matrix(1.9752805,-0.34790396,0.34790396,1.9752805,-493.58895,-786.74465)" /><radialGradient
       inkscape:collect="always"
       xlink:href="#linearGradient48"
       id="radialGradient61-7"
       gradientUnits="userSpaceOnUse"
       cx="11.999935"
       cy="11.999999"
       fx="11.999935"
       fy="11.999999"
       r="9.7761574"
       gradientTransform="matrix(13.403233,2.2171242,-2.2171242,13.403233,-472.65252,-864.38789)" /><linearGradient
       id="linearGradient48"
       inkscape:collect="always"><stop
         style="stop-color:#ffffff;stop-opacity:1;"
         offset="0.48478702"
         id="stop48" /><stop
         style="stop-color:#ffffff;stop-opacity:0;"
         offset="1"
         id="stop49" /></linearGradient><filter
       inkscape:collect="always"
       style="color-interpolation-filters:sRGB"
       id="filter4-1"
       x="-0.098869937"
       y="-0.067129158"
       width="1.1977399"
       height="1.1342583"><feGaussianBlur
         inkscape:collect="always"
         stdDeviation="4.6878982"
         id="feGaussianBlur4-9" /></filter></defs><g
     inkscape:label="Layer 1"
     inkscape:groupmode="layer"
     id="layer1"
     style="display:inline"><g
       id="g14"
       style="opacity:0.78649;fill:url(#radialGradient17)"
       transform="matrix(0.82444293,0,0,0.82444293,317.34512,37.264576)"
       clip-path="url(#clipPath18)" /><g
       id="g16"
       transform="rotate(180,1373.3552,590.61845)" /><path
       id="path20-6-9-0-4-2"
       style="fill:#ffffff;fill-opacity:1;stroke:none;stroke-width:13.532;stroke-linecap:round;stroke-opacity:1"
       d="m 937.40576,816.89978 c 2.60166,-0.0552 5.18222,-1.10504 7.12256,-3.13572 3.87427,-4.05003 3.73232,-10.47378 -0.31729,-14.34848 l -23.76548,-22.77122 29.63179,-0.63407 c 5.59776,-0.11654 10.04368,-4.74459 9.93583,-10.34252 -0.10939,-5.6122 -4.75383,-10.06965 -10.36578,-9.94875 l -29.61938,0.61133 22.78207,-23.72982 c 3.87462,-4.04996 3.73244,-10.47413 -0.31729,-14.34899 -4.04217,-3.87205 -10.45625,-3.74066 -14.33608,0.29404 l -36.81325,38.39662 c -11.70572,0.27684 -15.50323,0.55987 -27.2092,0.82579 l 14.9133,-15.8812 c 3.87426,-4.05002 3.73231,-10.47377 -0.31729,-14.34848 -4.04217,-3.87204 -10.45625,-3.74066 -14.33607,0.29404 l -31.90503,30.54439 -53.37039,1.02629 v 20.30574 l 53.76106,-1.02784 31.74793,30.54697 c 4.04936,3.89342 10.49095,3.75709 14.37174,-0.30438 3.87474,-4.05009 3.73276,-10.47472 -0.3173,-14.34951 l -14.98565,-16.49253 18.69292,-0.63407 0.0868,-0.009 9.26093,-0.19533 38.41936,36.82566 c 2.0247,1.94658 4.64751,2.88601 7.24917,2.83083 z" /><g
       id="g10"
       style="display:inline"
       transform="translate(472.22731,812.51222)"><path
         id="path1-7"
         style="display:inline;fill:url(#radialGradient2-8);stroke:url(#radialGradient7-1);stroke-width:1.09073"
         d="m -205.43251,-699.55462 a 132.8127,132.8127 0 0 1 -107.76189,153.83698 132.8127,132.8127 0 0 1 -153.83694,-107.76187 132.8127,132.8127 0 0 1 107.76183,-153.83695 132.8127,132.8127 0 0 1 153.837,107.76184 z" /><circle
         style="display:inline;fill:none;stroke:#ffffff;stroke-width:4.35164;stroke-dasharray:none;stroke-opacity:1"
         id="path2-9-0"
         cx="-213.78711"
         cy="-724.58429"
         r="130.67538"
         transform="rotate(-9.9889918)" /><g
         id="g1"
         transform="rotate(0.40824751,-336.93206,-259.46518)"><path
           style="display:inline;opacity:0.516949;fill:url(#radialGradient61-7);fill-opacity:1;stroke:none;stroke-width:13.5854;stroke-linecap:round;stroke-opacity:1"
           d="m -443.40947,-763.15493 41.99602,34.48684 m 0,0 125.98786,103.46017 m -125.98786,-103.46017 -5.63186,-57.36211 m 5.63186,57.36211 -57.3621,5.63186 m 183.34996,97.82831 41.99589,34.48681 m -41.99589,-34.48681 57.3624,-5.6321 m -57.3624,5.6321 5.63208,57.36241"
           id="path19-1" /><path
           id="path2-3-1"
           style="display:inline;opacity:0.517491;fill:#4d3805;fill-opacity:1;stroke-width:1.38282;filter:url(#filter4-1)"
           d="m -135.53092,-540.83059 -2.09677,10.89917 -2.09596,10.89861 -17.66632,-3.05206 -17.66631,-3.05206 -2.33382,12.95704 -2.33378,12.95706 27.12513,4.88573 c 14.91903,2.68721 27.09149,5.04698 27.049,5.24378 -0.0426,0.19683 -15.24611,14.68928 -33.7863,32.20534 l -33.70949,31.84742 -1.8129,9.95194 -1.81223,9.95279 17.62097,3.30383 17.62097,3.30383 -1.7954,10.70585 -1.79461,10.70528 10.79309,1.94405 10.79309,1.94402 1.94568,-10.80222 1.94568,-10.80222 17.52338,3.15627 17.52408,3.15642 2.33482,-12.96268 2.334807,-12.96268 -27.125817,-4.88586 c -14.91906,-2.6872 -27.10622,-4.99473 -27.08213,-5.12849 0.0241,-0.13385 15.23373,-14.60664 33.79878,-32.16171 l 33.754947,-31.91835 1.80153,-10.00193 1.80165,-10.0026 -17.524077,-3.15641 -17.52337,-3.1563 1.98899,-11.04273 1.98887,-11.04206 -10.79308,-1.94403 z"
           sodipodi:nodetypes="cccccccscscccccccccccccccsssccccccccc"
           transform="rotate(-9.9889918,-1486.6212,574.90505)" /><path
           id="path2-8"
           style="display:inline;fill:#ffffff;fill-opacity:1;stroke-width:1.38282"
           d="m -349.57914,-758.22549 -0.17443,11.09766 -0.17372,11.09695 -17.92793,0.0586 -17.9279,0.0586 -0.0509,13.16546 -0.0509,13.16546 27.5614,0.10656 c 15.15899,0.0586 27.55626,0.27122 27.54855,0.4724 -0.008,0.20124 -12.46701,17.11119 -27.68783,37.57769 l -27.67426,37.21186 -0.0592,10.11554 -0.0583,10.11627 17.92693,0.19723 17.92692,0.19724 0.0888,10.85498 0.0895,10.8543 10.96669,0.0424 10.96668,0.0424 0.0425,-10.97597 0.0424,-10.97596 17.80523,0.0688 17.80594,0.0689 0.0509,-13.17118 0.0509,-13.17117 -27.56212,-0.10658 c -15.15902,-0.0586 -27.5617,-0.2172 -27.56118,-0.35311 5.2e-4,-0.136 12.46915,-17.02764 27.70769,-37.53687 l 27.70674,-37.28961 0.0393,-10.1628 0.0393,-10.16348 -17.80594,-0.0689 -17.80522,-0.0688 0.0434,-11.22036 0.0434,-11.21966 -10.96668,-0.0424 z"
           sodipodi:nodetypes="cccccccscscccccccccccccccsssccccccccc" /></g></g></g></svg>
