<svg width="1852" height="849" viewBox="0 0 1852 849" xmlns="http://www.w3.org/2000/svg">
  <!-- ============ TEMPLATE: photo-overlay (modo foto — PRINCIPAL) ============
       Overlay canonico TRANSPARENTE pra compor sobre foto de gelo (receita no BANNER-KIT.md).
       Exemplo real: "Why BIP-110 Doesn't Stop Alkanes" (3 linhas).
       Troque: eyebrow, linhas do titulo. Veu: stops 0.55 padrao; foto escura -> reduza/remova;
       foto ocupada atras do texto -> suba ate ~0.97. -->

  <defs>
    <linearGradient id="veil" x1="0" y1="0" x2="1" y2="0">
      <stop offset="0" stop-color="#01040A" stop-opacity="0.55"/>
      <stop offset="0.785" stop-color="#01040A" stop-opacity="0.55"/>
      <stop offset="1" stop-color="#01040A" stop-opacity="0"/>
    </linearGradient>
  </defs>

  <!-- veu de legibilidade (coluna do texto) -->
  <rect x="0" y="0" width="1220" height="849" fill="url(#veil)"/>

  <!-- logotype "subfrost" (canonico — nao mover) -->
  <g transform="translate(6.8,68.3) scale(0.188)">
    <path d="M437.391 248.417C422.655 248.417 410.25 246.272 400.177 241.982C390.291 237.692 382.643 231.722 377.234 224.075C371.824 216.427 368.746 207.753 368 198.053L404.654 196.374C405.96 204.209 409.224 210.271 414.447 214.561C419.67 218.852 427.412 220.997 437.671 220.997C446.065 220.997 452.594 219.691 457.257 217.079C462.107 214.281 464.532 209.991 464.532 204.209C464.532 200.851 463.693 198.053 462.014 195.814C460.335 193.576 457.164 191.617 452.5 189.939C447.837 188.26 440.935 186.581 431.795 184.902C416.499 182.291 404.468 179.12 395.701 175.389C386.933 171.472 380.684 166.622 376.954 160.839C373.41 155.057 371.638 147.875 371.638 139.294C371.638 125.304 376.954 114.019 387.586 105.438C398.405 96.6712 414.168 92.2876 434.873 92.2876C448.303 92.2876 459.589 94.526 468.729 99.0029C477.869 103.293 484.958 109.262 489.994 116.91C495.217 124.372 498.481 132.952 499.787 142.652L463.693 144.331C462.76 139.294 461.081 134.911 458.656 131.18C456.231 127.449 452.967 124.651 448.863 122.786C444.759 120.734 439.909 119.708 434.313 119.708C425.919 119.708 419.577 121.387 415.287 124.745C410.996 128.102 408.851 132.579 408.851 138.175C408.851 142.092 409.784 145.357 411.649 147.968C413.701 150.58 416.966 152.725 421.442 154.404C425.919 155.896 431.888 157.295 439.35 158.601C455.019 161.026 467.33 164.197 476.284 168.114C485.424 171.845 491.859 176.695 495.59 182.664C499.507 188.446 501.466 195.441 501.466 203.649C501.466 213.162 498.761 221.277 493.352 227.992C488.129 234.707 480.667 239.837 470.967 243.381C461.454 246.739 450.262 248.417 437.391 248.417Z" fill="white"/>
    <path d="M578.663 248.417C563.554 248.417 551.522 243.474 542.568 233.588C533.801 223.515 529.418 209.618 529.418 191.897V95.6452H565.232V182.944C565.232 195.441 567.284 204.675 571.388 210.644C575.678 216.427 582.114 219.318 590.694 219.318C600.394 219.318 607.856 216.147 613.079 209.805C618.488 203.276 621.193 193.856 621.193 181.545V95.6452H657.008V245.06H624.271L623.431 203.929L627.908 205.328C625.67 219.504 620.353 230.23 611.959 237.505C603.565 244.78 592.466 248.417 578.663 248.417Z" fill="white"/>
    <path d="M773.941 248.417C763.495 248.417 754.355 246.179 746.52 241.702C738.872 237.225 732.903 230.976 728.613 222.955L727.773 245.06H693.638V46.4H729.452V116.91C733.556 110.008 739.432 104.226 747.08 99.5625C754.728 94.7126 763.681 92.2876 773.941 92.2876C786.812 92.2876 797.911 95.552 807.237 102.081C816.751 108.423 824.026 117.47 829.062 129.222C834.285 140.787 836.896 154.497 836.896 170.352C836.896 186.208 834.285 200.012 829.062 211.763C824.026 223.328 816.751 232.375 807.237 238.904C797.911 245.246 786.812 248.417 773.941 248.417ZM765.827 219.318C776.086 219.318 784.294 215.028 790.449 206.447C796.605 197.68 799.683 185.648 799.683 170.352C799.683 154.87 796.605 142.839 790.449 134.258C784.48 125.677 776.366 121.387 766.106 121.387C758.459 121.387 751.837 123.346 746.24 127.263C740.831 130.994 736.634 136.496 733.649 143.771C730.851 151.046 729.452 159.907 729.452 170.352C729.452 180.425 730.851 189.193 733.649 196.654C736.634 203.929 740.831 209.525 746.24 213.442C751.65 217.359 758.179 219.318 765.827 219.318Z" fill="white"/>
    <path d="M1139.73 248.417C1124.99 248.417 1112.03 245.246 1100.84 238.904C1089.83 232.375 1081.25 223.235 1075.09 211.483C1069.12 199.732 1066.14 186.021 1066.14 170.352C1066.14 154.497 1069.12 140.787 1075.09 129.222C1081.25 117.47 1089.83 108.423 1100.84 102.081C1112.03 95.552 1124.99 92.2876 1139.73 92.2876C1154.46 92.2876 1167.34 95.552 1178.34 102.081C1189.35 108.423 1197.83 117.47 1203.8 129.222C1209.96 140.787 1213.04 154.497 1213.04 170.352C1213.04 186.021 1209.96 199.732 1203.8 211.483C1197.83 223.235 1189.35 232.375 1178.34 238.904C1167.34 245.246 1154.46 248.417 1139.73 248.417ZM1139.73 219.318C1151.29 219.318 1160.15 215.028 1166.31 206.447C1172.65 197.866 1175.82 185.835 1175.82 170.352C1175.82 155.057 1172.65 143.118 1166.31 134.538C1160.15 125.771 1151.29 121.387 1139.73 121.387C1128.16 121.387 1119.21 125.771 1112.87 134.538C1106.52 143.118 1103.35 155.057 1103.35 170.352C1103.35 185.835 1106.52 197.866 1112.87 206.447C1119.21 215.028 1128.16 219.318 1139.73 219.318Z" fill="white"/>
    <path fill-rule="evenodd" clip-rule="evenodd" d="M874.62 99.5625V89.7694C874.62 76.3389 878.35 65.7996 885.812 58.1517C893.46 50.3172 905.118 46.4 920.787 46.4H949.886V74.1005H927.502C921.72 74.1005 917.429 75.5927 914.631 78.5773C912.02 81.5618 910.714 85.9454 910.714 91.728V99.5625H947.928V127.263H910.714V245.06H874.62V127.263H853.355V99.5625H874.62Z" fill="white"/>
    <path fill-rule="evenodd" clip-rule="evenodd" d="M1404.73 95.6452V60.6699H1440.55V95.6452H1480V123.346H1440.55V198.892C1440.55 205.794 1442.04 210.644 1445.03 213.442C1448.01 216.054 1452.67 217.359 1459.02 217.359H1480V245.06H1448.1C1433.18 245.06 1422.17 241.609 1415.09 234.707C1408.18 227.805 1404.73 216.986 1404.73 202.25V123.346H1381.23V95.6452H1404.73ZM1301.39 248.417C1286.65 248.417 1274.25 246.272 1264.18 241.982C1254.29 237.692 1246.64 231.722 1241.23 224.075C1235.82 216.427 1232.75 207.753 1232 198.053L1268.65 196.374C1269.96 204.209 1273.22 210.271 1278.45 214.561C1283.67 218.852 1291.41 220.997 1301.67 220.997C1310.06 220.997 1316.59 219.691 1321.26 217.079C1326.11 214.281 1328.53 209.991 1328.53 204.209C1328.53 200.851 1327.69 198.053 1326.01 195.814C1324.33 193.576 1321.16 191.617 1316.5 189.939C1311.84 188.26 1304.93 186.581 1295.79 184.902C1280.5 182.291 1268.47 179.12 1259.7 175.389C1250.93 171.472 1244.68 166.622 1240.95 160.839C1237.41 155.057 1235.64 147.875 1235.64 139.294C1235.64 125.304 1240.95 114.019 1251.59 105.438C1262.4 96.6712 1278.17 92.2876 1298.87 92.2876C1312.3 92.2876 1323.59 94.526 1332.73 99.0029C1341.87 103.293 1348.96 109.262 1353.99 116.91C1359.22 124.372 1362.48 132.952 1363.79 142.652L1327.69 144.331C1326.76 139.294 1325.08 134.911 1322.66 131.18C1320.23 127.449 1316.97 124.651 1312.86 122.786C1308.76 120.734 1303.91 119.708 1298.31 119.708C1289.92 119.708 1283.58 121.387 1279.29 124.745C1275 128.102 1272.85 132.579 1272.85 138.175C1272.85 142.092 1273.78 145.357 1275.65 147.968C1277.7 150.58 1280.96 152.725 1285.44 154.404C1289.92 155.896 1295.89 157.295 1303.35 158.601C1319.02 161.026 1331.33 164.197 1340.28 168.114C1349.42 171.845 1355.86 176.695 1359.59 182.664C1363.51 188.446 1365.47 195.441 1365.47 203.649C1365.47 213.162 1362.76 221.277 1357.35 227.992C1352.13 234.707 1344.67 239.837 1334.97 243.381C1325.45 246.739 1314.26 248.417 1301.39 248.417Z" fill="white"/>
    <path d="M971.527 95.6452V245.06H1007.34V158.881C1007.34 151.233 1008.55 145.077 1010.98 140.414C1013.59 135.564 1017.41 132.02 1022.45 129.781C1027.49 127.543 1033.83 126.424 1041.48 126.424H1055.47V95.6452H1041.76C1030.94 95.6452 1022.36 98.9096 1016.02 105.438C1011.77 109.814 1008.45 116.099 1006.07 124.294L1005.1 95.6452H971.527Z" fill="white"/>
  </g>

  <!-- eyebrow (canonico) -->
  <text x="86" y="315" font-family="Geist Mono" font-weight="600" font-size="33" letter-spacing="7" fill="#A7C6DC">ARTICLE #3:</text>

  <!-- titulo: 3 linhas, 108px, avanco 124 -->
  <text x="84" y="445" font-family="Geist" font-weight="700" font-size="108" fill="#F4F7FA">Why BIP-110</text>
  <text x="84" y="569" font-family="Geist" font-weight="700" font-size="108" fill="#F4F7FA">Doesn&#39;t Stop</text>
  <text x="84" y="693" font-family="Geist" font-weight="700" font-size="108" fill="#F4F7FA">Alkanes</text>

  <!-- logomark floco (canonico — nao mover) -->
  <g transform="translate(1673,701)">
    <polygon points="0,-61 12.5,-33.5 0,-11 -12.5,-33.5" fill="#A7C6DC"/>
    <polygon points="0,-61 12.5,-33.5 0,-11 -12.5,-33.5" transform="rotate(45)" fill="#A7C6DC"/>
    <polygon points="0,-61 12.5,-33.5 0,-11 -12.5,-33.5" transform="rotate(90)" fill="#A7C6DC"/>
    <polygon points="0,-61 12.5,-33.5 0,-11 -12.5,-33.5" transform="rotate(135)" fill="#A7C6DC"/>
    <polygon points="0,-61 12.5,-33.5 0,-11 -12.5,-33.5" transform="rotate(180)" fill="#A7C6DC"/>
    <polygon points="0,-61 12.5,-33.5 0,-11 -12.5,-33.5" transform="rotate(225)" fill="#A7C6DC"/>
    <polygon points="0,-61 12.5,-33.5 0,-11 -12.5,-33.5" transform="rotate(270)" fill="#A7C6DC"/>
    <polygon points="0,-61 12.5,-33.5 0,-11 -12.5,-33.5" transform="rotate(315)" fill="#A7C6DC"/>
  </g>
</svg>
