<svg width="320" height="320" viewBox="0 0 320 320" fill="none" xmlns="http://www.w3.org/2000/svg">
<path d="M183.897 157.072L268.038 133.031C268.769 132.822 269.555 132.894 270.237 133.236L318.316 157.277C320.561 158.398 320.561 161.602 318.316 162.723L270.237 186.764C269.555 187.106 268.769 187.178 268.038 186.969L183.897 162.928C180.952 162.088 180.952 157.912 183.897 157.072Z" fill="#A7C6DC"/>
<path d="M162.725 318.315C161.601 320.561 158.398 320.561 157.276 318.316L133.236 270.237C132.896 269.553 132.822 268.769 133.031 268.038L157.071 183.897C157.913 180.951 162.088 180.952 162.928 183.897L186.969 268.038C187.178 268.769 187.105 269.555 186.765 270.236L162.725 318.315Z" fill="#A7C6DC"/>
<path d="M157.276 1.68354C158.398 -0.561406 161.601 -0.561404 162.725 1.68489L186.765 49.7643C187.105 50.4452 187.178 51.2306 186.969 51.9624L162.928 136.103C162.088 139.048 157.913 139.049 157.071 136.103L133.031 51.9624C132.822 51.2306 132.896 50.4465 133.236 49.763L157.276 1.68354Z" fill="#A7C6DC"/>
<path d="M136.103 162.928L51.9622 186.969C51.2304 187.178 50.4464 187.104 49.7642 186.765L1.68471 162.725C-0.561578 161.602 -0.561567 158.398 1.68472 157.275L49.7642 133.235C50.4464 132.896 51.2304 132.822 51.9622 133.031L136.103 157.072C139.049 157.913 139.049 162.087 136.103 162.928Z" fill="#A7C6DC"/>
<path d="M270.02 273.873L219.024 256.875C218.3 256.633 217.694 256.129 217.324 255.465C217.324 255.465 186.742 188.997 174.829 178.969C162.915 168.941 156.331 168.866 145.174 178.969C134.016 189.072 102.677 255.463 102.677 255.463C102.305 256.129 101.7 256.633 100.977 256.873L49.9799 273.873C47.5996 274.667 45.3346 272.402 46.1267 270.02L63.1266 219.023C63.3665 218.3 63.8705 217.694 64.5366 217.323C64.5366 217.323 130.949 186.768 141.032 174.827C151.116 162.887 151.1 156.394 141.032 145.173C130.965 133.951 64.5366 102.677 64.5366 102.677C63.8705 102.306 63.3665 101.7 63.1266 100.977L46.1267 49.9801C45.3346 47.5984 47.5996 45.3334 49.9799 46.1268L100.977 63.1268C101.7 63.3667 102.305 63.8706 102.677 64.5368C102.677 64.5368 133.306 130.334 145.174 141.031C157.041 151.728 163.112 150.726 174.829 141.031C186.545 131.336 217.324 64.5354 217.324 64.5354C217.694 63.8706 218.3 63.3667 219.024 63.1254L270.02 46.1268C272.403 45.3334 274.668 47.5984 273.873 49.9801L256.874 100.976C256.633 101.7 256.129 102.305 255.464 102.675C255.464 102.675 188.984 133.345 178.97 145.173C168.956 157 168.983 163.493 178.97 174.827C188.957 186.162 255.464 217.325 255.464 217.325C256.129 217.695 256.633 218.3 256.874 219.024L273.873 270.02C274.668 272.402 272.403 274.667 270.02 273.873Z" fill="#A7C6DC"/>
</svg>
